<svg id="Layer_1" data-name="Layer 1" xmlns="http://www.w3.org/2000/svg" viewBox="0 0 437.65 297.26">
  <defs>
    <style>
      .cls-1{fill:none}.cls-2{fill:#525d66}.cls-4{opacity:.1}.cls-6{fill:#3d474f}.cls-8{fill:#e4ecef}.cls-12{fill:#063c61}.cls-13{fill:#06395c}.cls-17{fill:#063b5f}.cls-21{fill:#dcdcdc}.cls-24{fill:#0059a3}.cls-25{fill:#fff}.cls-26{fill:#cfd8dc}.cls-28{fill:#455a64}.cls-29{fill:#efce4a}
    </style>
    <clipPath id="clip-path">
      <path class="cls-1" d="M224.85 227.59V226c0 1.89 1.24 3.78 3.74 5.23v1.63c-2.5-1.53-3.74-3.38-3.74-5.27z"/>
    </clipPath>
    <clipPath id="clip-path-2">
      <path class="cls-1" d="M420.61 252v1.63c0 1.87-1.23 3.73-3.68 5.15v-1.63c2.45-1.44 3.68-3.3 3.68-5.15z"/>
    </clipPath>
    <clipPath id="clip-path-3">
      <path class="cls-1" d="M354.41 293.48v1.63c-4.94 2.87-13 2.86-17.92 0v-1.63c4.99 2.85 12.99 2.85 17.92 0z"/>
    </clipPath>
    <clipPath id="clip-path-4">
      <path class="cls-1" d="M214.85 207.59V206c0 1.89 1.24 3.78 3.74 5.23v1.63c-2.5-1.53-3.74-3.38-3.74-5.27z"/>
    </clipPath>
    <clipPath id="clip-path-5">
      <path class="cls-1" d="M410.61 232v1.63c0 1.87-1.23 3.73-3.68 5.15v-1.63c2.45-1.44 3.68-3.3 3.68-5.15z"/>
    </clipPath>
    <clipPath id="clip-path-6">
      <path class="cls-1" d="M344.41 273.48v1.63c-4.94 2.87-13 2.86-17.92 0v-1.63c4.99 2.85 12.99 2.85 17.92 0z"/>
    </clipPath>
  </defs>
  <path class="cls-2" d="M437.65 173.23l-47.93 27.85-190.9-110.23L246.75 63l190.9 110.23z"/>
  <path fill="#0b71b7" d="M281.64 120.57L159.25 191.7 0 99.75l122.39-71.13 159.25 91.95z"/>
  <g class="cls-4">
    <path d="M400.73 94.63c10.14 5.86 10.2 15.35.12 21.21L180.25 244c-10.08 5.86-26.48 5.86-36.62 0l-86.08-49.67c-10.14-5.86-10.2-15.36-.12-21.21L278 44.92c10.08-5.86 26.48-5.86 36.63 0z"/>
    <path d="M410.86 107.78a17.13 17.13 0 0 0-.49-2.44 16.32 16.32 0 0 0-.93-2.53 16.55 16.55 0 0 0-1.11-2 13.53 13.53 0 0 0-1.2-1.61 24.66 24.66 0 0 0-1.83-1.87 29.32 29.32 0 0 0-2.43-1.87c-.4-.28-1-.6-1.38-.86a.72.72 0 0 0-.76 0c10.14 5.86 10.2 15.35.12 21.21L180.25 244c-10.08 5.86-26.48 5.86-36.62 0l-86.08-49.67c-10.14-5.86-10.2-15.36-.12-21.21a.73.73 0 0 0-.78 0c-.78.48-1.8 1.16-2.54 1.7a13.18 13.18 0 0 0-1.15 1 22 22 0 0 0-1.63 1.51 17.15 17.15 0 0 0-1.59 2.13 16.15 16.15 0 0 0-1.89 4.33 17.75 17.75 0 0 0-.47 2.42 18.63 18.63 0 0 0-.14 2.19v1.2a9.8 9.8 0 0 0 .29 2.39 9.8 9.8 0 0 1-.29-2.39 17.6 17.6 0 0 0 .67 4.93 16.07 16.07 0 0 0 3.09 5.91 20.13 20.13 0 0 0 4.35 3.89c.39.28.95.59 1.35.84l86.09 49.7a28.4 28.4 0 0 0 3.49 1.71c1.07.41 2.52.91 3.61 1.26.57.18 1.35.36 1.93.51a44.87 44.87 0 0 0 10.06 1.13 44.2 44.2 0 0 0 10.12-1.15c.6-.14 1.39-.33 2-.52 1.09-.35 2.53-.85 3.59-1.27.56-.22 1.29-.57 1.82-.83s1.11-.6 1.58-.85a1.85 1.85 0 0 0 .69-1 1.85 1.85 0 0 1-.69 1l88.24-51.28 132.36-76.92c.75-.46 1.75-1.09 2.45-1.62a28.36 28.36 0 0 0 2.18-1.91 14.44 14.44 0 0 0 1.31-1.49c.39-.51.87-1.23 1.21-1.78a16.18 16.18 0 0 0 1.59-3.72 18.06 18.06 0 0 0 .5-2.4 19 19 0 0 0 .17-2.42v-1.2a18.53 18.53 0 0 0-.14-2.34zm-62.12-26.06a1.15 1.15 0 0 1 0 2.17 4.12 4.12 0 0 1-3.74 0l-18.75-10.83a1.14 1.14 0 0 1 0-2.17 4.12 4.12 0 0 1 3.74 0zm-29.59-17.08a1.14 1.14 0 0 1 0 2.17 4.12 4.12 0 0 1-3.73 0 1.14 1.14 0 0 1 0-2.17 4.12 4.12 0 0 1 3.73 0z"/>
    <path d="M117.48 201.09c5.18 3 5.21 7.83.06 10.83s-13.51 3-18.69 0-5.2-7.84-.06-10.83 13.53-2.99 18.69 0z"/>
    <path d="M100.12 202.41c5.15-3 13.51-3 18.69 0a11 11 0 0 1 1.39 1 9.27 9.27 0 0 0-2.72-2.28c-5.18-3-13.54-3-18.69 0-4.63 2.69-5.05 6.87-1.33 9.87-2.18-2.86-1.31-6.28 2.66-8.59zm277.36-84.24c1.73 1 1.74 2.62 0 3.62l-190 110.44a6.91 6.91 0 0 1-6.26 0L74.29 170.51c-1.73-1-1.74-2.63 0-3.63l190-110.44a6.9 6.9 0 0 1 6.26 0z"/>
    <path d="M74.27 168.72l190-110.39a6.91 6.91 0 0 1 6.26 0L377.48 120a2.92 2.92 0 0 1 1 .91c.61-.92.27-2-1-2.74L270.56 56.45a6.91 6.91 0 0 0-6.26 0l-190 110.44c-1.26.73-1.59 1.81-1 2.72a2.91 2.91 0 0 1 .97-.89z"/>
  </g>
  <path d="M390.73 74.63c10.14 5.86 10.2 15.35.12 21.21L170.25 224c-10.08 5.86-26.48 5.86-36.62 0l-86.08-49.67c-10.14-5.86-10.2-15.36-.12-21.21L268 24.92c10.08-5.86 26.48-5.86 36.63 0z" fill="#47525d"/>
  <path class="cls-6" d="M400.86 87.78a17.13 17.13 0 0 0-.49-2.44 16.32 16.32 0 0 0-.93-2.53 16.55 16.55 0 0 0-1.11-2 13.53 13.53 0 0 0-1.2-1.61 24.66 24.66 0 0 0-1.83-1.87 29.32 29.32 0 0 0-2.43-1.87c-.4-.28-1-.6-1.38-.86a.72.72 0 0 0-.76 0c10.14 5.86 10.2 15.35.12 21.21L170.25 224c-10.08 5.86-26.48 5.86-36.62 0l-86.08-49.67c-10.14-5.86-10.2-15.36-.12-21.21a.73.73 0 0 0-.78 0c-.78.48-1.8 1.16-2.54 1.7a13.18 13.18 0 0 0-1.15 1 22 22 0 0 0-1.63 1.51 17.15 17.15 0 0 0-1.59 2.13 16.15 16.15 0 0 0-1.89 4.33 17.75 17.75 0 0 0-.47 2.42 18.63 18.63 0 0 0-.14 2.19v1.2a9.8 9.8 0 0 0 .29 2.39 9.8 9.8 0 0 1-.29-2.39 17.6 17.6 0 0 0 .67 4.93 16.07 16.07 0 0 0 3.09 5.91 27.05 27.05 0 0 0 4.35 3.89c.39.28.95.59 1.35.84l86.09 49.7a28.4 28.4 0 0 0 3.49 1.71c1.07.41 2.52.91 3.61 1.26.57.18 1.35.36 1.93.51a44.87 44.87 0 0 0 10.06 1.13 44.2 44.2 0 0 0 10.12-1.15c.6-.14 1.39-.33 2-.52 1.09-.35 2.53-.85 3.59-1.27.56-.22 1.29-.57 1.82-.83s1.11-.6 1.58-.85a1.85 1.85 0 0 0 .69-1 1.85 1.85 0 0 1-.69 1l88.24-51.28 132.36-76.92c.75-.46 1.75-1.09 2.45-1.62a28.36 28.36 0 0 0 2.18-1.91 14.44 14.44 0 0 0 1.31-1.49c.39-.51.87-1.23 1.21-1.78a16.18 16.18 0 0 0 1.59-3.72 18.06 18.06 0 0 0 .5-2.4 19 19 0 0 0 .17-2.42v-1.2a18.53 18.53 0 0 0-.14-2.34z"/>
  <path d="M338.74 61.72a1.15 1.15 0 0 1 0 2.17 4.12 4.12 0 0 1-3.74 0l-18.75-10.83a1.14 1.14 0 0 1 0-2.17 4.12 4.12 0 0 1 3.74 0zm-29.59-17.08a1.14 1.14 0 0 1 0 2.17 4.12 4.12 0 0 1-3.73 0 1.14 1.14 0 0 1 0-2.17 4.12 4.12 0 0 1 3.73 0z" fill="#37474f"/>
  <path class="cls-6" d="M107.48 181.09c5.18 3 5.21 7.83.06 10.83s-13.51 3-18.69 0-5.2-7.84-.06-10.83 13.53-2.99 18.69 0z"/>
  <path class="cls-6" d="M90.12 182.41c5.15-3 13.51-3 18.69 0a11 11 0 0 1 1.39 1 9.27 9.27 0 0 0-2.72-2.28c-5.18-3-13.54-3-18.69 0-4.63 2.69-5.05 6.87-1.33 9.87-2.18-2.86-1.31-6.28 2.66-8.59z"/>
  <path class="cls-8" d="M367.48 98.17c1.73 1 1.74 2.62 0 3.62l-190 110.44a6.91 6.91 0 0 1-6.26 0L64.29 150.51c-1.73-1-1.74-2.63 0-3.63l190-110.44a6.9 6.9 0 0 1 6.26 0z"/>
  <path class="cls-8" d="M64.27 148.72l190-110.39a6.91 6.91 0 0 1 6.26 0L367.48 100a2.92 2.92 0 0 1 1 .91c.61-.92.27-2-1-2.74L260.56 36.45a6.91 6.91 0 0 0-6.26 0l-190 110.44c-1.26.73-1.59 1.81-1 2.72a2.91 2.91 0 0 1 .97-.89z"/>
  <g class="cls-4">
    <path d="M270.21 206.99v1.63l-13.39 7.79v-1.63l13.39-7.79zm26.98 15.58v1.63l-26.98-15.58v-1.63l26.98 15.58z"/>
    <path d="M297.19 222.57l-13.4 7.78-26.97-15.57 13.39-7.79 26.98 15.58z"/>
    <path d="M297.19 222.57v1.63l-13.4 7.78v-1.63l13.4-7.78z"/>
    <path d="M283.79 230.35v1.63l-26.97-15.57v-1.63l26.97 15.57z"/>
    <g clip-path="url(#clip-path)">
      <path d="M228.6 231.19v1.63c-2.5-1.44-3.75-3.34-3.74-5.23V226c0 1.89 1.24 3.78 3.74 5.23"/>
    </g>
    <path d="M306.18 227.76v1.63l-13.4 7.78v-1.63l13.4-7.78z"/>
    <g clip-path="url(#clip-path-2)">
      <path d="M420.61 252v1.63c0 1.87-1.23 3.73-3.68 5.15v-1.63c2.45-1.42 3.68-3.29 3.68-5.15"/>
    </g>
    <path d="M414.7 258.43l-.01 1.63-125.86-72.67v-1.63l125.87 72.67z"/>
    <path d="M414.7 258.43l-.01 1.63-.61.36.01-1.63.61-.36z"/>
    <path d="M416.93 257.13v1.63l-2.85 1.66.01-1.63 2.84-1.66zm-2.23 1.3l-.61.36-12.78 7.43-125.88-72.67 13.4-7.79 125.87 72.67z"/>
    <path d="M416.87 246.76L309 184.46c-5-2.86-13-2.86-17.92 0l-2.23 1.3 125.85 72.67-.38.22.38-.22 2.23-1.3c4.93-2.86 4.91-7.5-.06-10.37zm-15.56 19.46l-.01 1.63-125.88-72.67.01-1.63 125.88 72.67zm12.78-7.43l-.01 1.63-12.78 7.43.01-1.63 12.78-7.43zm-35.99 10.5v1.63l-71.92-41.53v-1.63l71.92 41.53z"/>
    <path d="M378.1 269.29v1.63l-13.4 7.78v-1.63l13.4-7.78zm-13.4 7.78v1.63l-71.92-41.53v-1.63l71.92 41.53z"/>
    <path d="M401.3 266.22l-46.89 27.26c-4.93 2.85-12.93 2.85-17.93 0L228.6 231.19c-5-2.87-5-7.52-.06-10.39l46.89-27.25zm-36.6 10.85l13.4-7.79-71.92-41.52-13.4 7.79 71.92 41.53m-80.91-46.75l13.4-7.79-27-15.58-13.39 7.79 27 15.57"/>
    <path d="M378.1 269.29l-13.4 7.78-71.92-41.53 13.4-7.78 71.92 41.53zm23.2-3.07v1.63l-46.89 27.26v-1.63l46.89-27.26zm-64.81 27.26v1.63l-107.9-62.29.01-1.63 107.89 62.29z"/>
    <g clip-path="url(#clip-path-3)">
      <path d="M354.41 293.48v1.63c-4.94 2.87-13 2.86-17.92 0v-1.63c5 2.86 13 2.87 17.92 0"/>
    </g>
  </g>
  <path class="cls-12" d="M260.21 186.99v1.63l-13.39 7.79v-1.63l13.39-7.79z"/>
  <path class="cls-13" d="M287.19 202.57v1.63l-26.98-15.58v-1.63l26.98 15.58z"/>
  <path fill="#07426a" d="M287.19 202.57v1.63l-13.4 7.78v-1.63l13.4-7.78z"/>
  <path fill="#073f65" d="M273.79 210.35v1.63l-26.97-15.57v-1.63l26.97 15.57z"/>
  <g clip-path="url(#clip-path-4)">
    <path class="cls-17" d="M218.6 211.19v1.63c-2.5-1.44-3.75-3.34-3.74-5.23V206c0 1.89 1.24 3.78 3.74 5.23"/>
  </g>
  <path class="cls-12" d="M296.18 207.76v1.63l-13.4 7.78v-1.63l13.4-7.78z"/>
  <g clip-path="url(#clip-path-5)">
    <path class="cls-17" d="M410.61 232v1.63c0 1.87-1.23 3.73-3.68 5.15v-1.63c2.45-1.42 3.68-3.29 3.68-5.15"/>
  </g>
  <path class="cls-13" d="M404.7 238.43l-.01 1.63-125.86-72.67v-1.63l125.87 72.67z"/>
  <path fill="#6d7274" d="M404.7 238.43l-.01 1.63-.61.36.01-1.63.61-.36z"/>
  <path class="cls-12" d="M406.93 237.13v1.63l-2.85 1.66.01-1.63 2.84-1.66z"/>
  <path class="cls-12" d="M404.09 238.79l-.01 1.63-12.78 7.43.01-1.63 12.78-7.43z"/>
  <path d="M406.87 226.76L299 164.46c-5-2.86-13-2.86-17.92 0l-2.23 1.3-13.4 7.79-46.91 27.25c-4.94 2.87-4.94 7.52.06 10.39l107.88 62.29c5 2.85 13 2.85 17.93 0L389.89 247l1.41.81v-1.63l12.78-7.43.61-.36 2.23-1.3c4.94-2.82 4.92-7.46-.05-10.33zm-160-32l13.32-7.76 27 15.58-27-15.57z" fill="#0b6fb3"/>
  <path class="cls-21" d="M359.53 234c1.2.69 1.94 1.62 1.52 2.74s-2.23 2.11-3.56 2.88l-8.61 5a1.14 1.14 0 0 1-.95 0l-2.69-1.55c-.23-.15-.25-.37 0-.53l7.43-4.32c1.5-.87 3.86-2 2-3.11a3.92 3.92 0 0 0-2.65-.26 10 10 0 0 0-3 1.26l-7.36 4.28a1.14 1.14 0 0 1-1 0l-2.67-1.54c-.26-.17-.26-.41 0-.57l13.68-8a1.14 1.14 0 0 1 1 0l2.49 1.44c.22.14.26.35.1.5l-2.09 1.22c2.56-.55 4.5-.44 6.36.56zm-47.4-12.94a.65.65 0 0 1-.72.4l-3.83-.16a1.16 1.16 0 0 1-.49-.14.51.51 0 0 1-.21-.2 3.18 3.18 0 0 1 .24-1.92c-3 0-4.45-.33-6.36-1.43-2.25-1.3-2.63-3.12.14-4.73a10 10 0 0 1 7.22-.88 31.8 31.8 0 0 1 6 2.37l.34-.2c.63-.37 1.43-.78 1.6-1.32s-.26-1-.81-1.27a4.47 4.47 0 0 0-3.76-.32 1.3 1.3 0 0 1-1 0l-2.32-1.66c-.17-.16-.24-.4.16-.56a11.74 11.74 0 0 1 10.08 1.09c1.3.75 2.66 1.94 2.71 3.1.1 1.46-1.64 2.32-3.4 3.35l-4.13 2.42a2.55 2.55 0 0 0-1.46 2.06zm-4.13-3.75a8.78 8.78 0 0 0 3.33-1.35l.58-.34c-1.94-1.12-4.4-2.06-6.67-.74-1.15.67-1.33 1.47-.31 2.06a4.86 4.86 0 0 0 3.07.37M272.85 203a.55.55 0 0 1 .23.25c2.73 5.91 8.49 11.85 16.76 16.63a78.49 78.49 0 0 0 20.89 8 1.7 1.7 0 0 1 .46.17c.65.38.32 1-.9.93a62.77 62.77 0 0 1-24.29-7.46c-8.81-5.09-13.51-11.55-14.13-18.14-.01-.38.61-.56.98-.38zm63 17.67c.28.16.31.41 0 .58l-1.67 1a6 6 0 0 1-1.89.33l-11 1.13.32.18a8.82 8.82 0 0 1 3.62 3.34c.16.31 0 .53-.29.72l-2.09 1.21a1.13 1.13 0 0 1-1 0 .36.36 0 0 1-.14-.13 9.16 9.16 0 0 0-3.54-3.34 17.87 17.87 0 0 0-5.79-2 .65.65 0 0 1-.21-.07c-.25-.14-.2-.42 0-.55l2-1.15a4.18 4.18 0 0 1 1.67-.59l12.87-1.33-4.61-2.66c-.28-.16-.3-.41 0-.58l2-1.14a1.07 1.07 0 0 1 1 0zm8.35 4.53c4 2.3 2.73 5.51-1.58 8s-9.86 3-13.61.81c-3.91-2.26-2.64-5.46 1.59-7.91s9.72-3.1 13.6-.9zm-12.38 7.19c2.08 1.2 5.05-.41 6.81-1.43a14.12 14.12 0 0 0 3.23-2.34c.65-.72.42-1.29-.43-1.78-2-1.14-4.78.34-6.45 1.31s-5.26 3-3.15 4.24"/>
  <path class="cls-21" d="M316.13 227c1.54.89 2.48 1.78 2.42 2.13-.13.71-5.53 3-10.48 2.79a1.39 1.39 0 0 1-.59-.13c-.21-.12-.15-.3.26-.4 2.12-.53 6.85-1.7 7-2.55.08-.38-.68-1-1.71-1.54-1.28-.74-3-1.51-4-2h-.09c-.41-.24-.06-.49.65-.42a16.76 16.76 0 0 1 6.54 2.12zM277 200.76a.64.64 0 0 1-.71.41l-3.83-.16a1.16 1.16 0 0 1-.49-.14.51.51 0 0 1-.21-.2 3.18 3.18 0 0 1 .24-1.92c-3 0-4.45-.33-6.36-1.43-2.26-1.3-2.63-3.12.13-4.73a10 10 0 0 1 7.22-.88 32 32 0 0 1 6 2.37l.34-.2c.63-.37 1.43-.77 1.61-1.31s-.26-1-.82-1.27a4.47 4.47 0 0 0-3.75-.31 1.31 1.31 0 0 1-1 0l-2.37-1.65c-.17-.16-.24-.4.16-.56a11.71 11.71 0 0 1 10.07 1.09c1.31.76 2.67 1.94 2.72 3.1.09 1.46-1.64 2.32-3.4 3.35l-4.15 2.41a2.55 2.55 0 0 0-1.4 2.03zm-4.11-3.76a8.75 8.75 0 0 0 3.33-1.36l.58-.34c-1.94-1.12-4.4-2.06-6.67-.74-1.15.67-1.33 1.47-.3 2.07a4.86 4.86 0 0 0 3.07.37m32.84 6c1.13.65 1.89 1.63 1.61 2.66s-2.15 2-3.61 2.88l-8.63 5a1.11 1.11 0 0 1-1 0L291.4 212a.3.3 0 0 1 0-.56l7.25-4.21a21.83 21.83 0 0 0 2.49-1.53c.72-.65.38-1.15-.4-1.6a4 4 0 0 0-2.73-.27 12.59 12.59 0 0 0-2.87 1.38l-7.25 4.21a1.11 1.11 0 0 1-1 0l-2.68-1.55a.3.3 0 0 1 0-.56l7.24-4.22c1.52-.88 4-2 2.12-3.14s-4 .2-5.63 1.12l-7.25 4.21a1.11 1.11 0 0 1-1 0L277 203.7c-.24-.16-.25-.39 0-.54l13.68-7.95a1.1 1.1 0 0 1 1 0l2.5 1.44c.24.15.26.39 0 .55l-1.79 1a8 8 0 0 1 6.12.59c1.67 1 1.92 2 .94 3.48a8.38 8.38 0 0 1 6.29.73z"/>
  <path class="cls-13" d="M344.41 273.48v1.63l46.89-27.26v-1.63l-46.89 27.26zm-125.82-60.66l107.9 62.29v-1.63L218.6 211.19l-.01 1.63z"/>
  <g clip-path="url(#clip-path-6)">
    <path class="cls-17" d="M344.41 273.48v1.63c-4.94 2.87-13 2.86-17.92 0v-1.63c5 2.86 13 2.87 17.92 0"/>
  </g>
  <g class="cls-4">
    <path d="M388.25 122.73c.44.25.59.65.32 1a2.1 2.1 0 0 1-2 .45 1.85 1.85 0 0 1-.45-.18c-.44-.25-.59-.65-.33-1a2.11 2.11 0 0 1 2-.45 1.85 1.85 0 0 1 .46.18zm-5.68-6.89a.79.79 0 0 1 0 1.5l-5.8 3.37a2.85 2.85 0 0 1-2.59 0l-79.9-46.13a.79.79 0 0 1 0-1.5l5.8-3.37a2.85 2.85 0 0 1 2.6 0zm-54.36-23.22c.36 0 .65-.17.66-.38v-1.06a4.4 4.4 0 0 0 1.67-.52 1.63 1.63 0 0 0 1-1.36 1.66 1.66 0 0 0-1-1.35 5.15 5.15 0 0 0-4.68 0 1.65 1.65 0 0 0-1 1.36 1.67 1.67 0 0 0 1 1.35 4.34 4.34 0 0 0 1.68.52v1.06a.33.33 0 0 0 .19.27 1 1 0 0 0 .47.11m21.62 10a1.55 1.55 0 0 0 1.41 0 .43.43 0 0 0 0-.82l-14.07-8.12a1.56 1.56 0 0 0-1.41 0 .43.43 0 0 0 0 .82l14.07 8.12"/>
    <path d="M328.87 92.23c0 .21-.3.38-.66.38a1 1 0 0 1-.47-.11.33.33 0 0 1-.19-.27v-1.06a4.34 4.34 0 0 1-1.68-.52 1.67 1.67 0 0 1-1-1.35 1.65 1.65 0 0 1 1-1.36 5.15 5.15 0 0 1 4.68 0 1.66 1.66 0 0 1 1 1.35 1.63 1.63 0 0 1-1 1.36 4.4 4.4 0 0 1-1.67.52zm-.68-1.79a2.83 2.83 0 0 0 1.4-.34.86.86 0 0 0 0-1.62 2.86 2.86 0 0 0-1.4-.34 2.83 2.83 0 0 0-1.4.34.85.85 0 0 0 0 1.61 2.83 2.83 0 0 0 1.39.34"/>
    <path d="M329.58 88.49a.86.86 0 0 1 0 1.62 3 3 0 0 1-2.79 0 .85.85 0 0 1 0-1.61 2.83 2.83 0 0 1 1.4-.34 2.86 2.86 0 0 1 1.39.33zm21.65 13.3a.43.43 0 0 1 0 .82 1.55 1.55 0 0 1-1.41 0l-14.07-8.12a.43.43 0 0 1 0-.82 1.56 1.56 0 0 1 1.41 0zM291.9 65.5l-.09.58-4.57-.25.25 2.53-1 .03-.31-3.19 5.72.3zm97.2 59.65c.08.17.14.27-.07.31l-.4.08-.41.09a.3.3 0 0 1-.23 0 .85.85 0 0 1-.19-.18.78.78 0 0 0-.63-.3H387a.84.84 0 0 0-.65.28c-.15.15-.23.24-.43.19l-.39-.1-.4-.11H385c-.1-.06 0-.14 0-.28s.13-.34-.07-.47l-.13-.08a1.22 1.22 0 0 0-.8-.07c-.24 0-.39.07-.48 0h-.06l-.15-.23-.15-.24c-.07-.12.07-.16.35-.24s.51-.18.52-.36v-.11a.31.31 0 0 0-.19-.26 1.47 1.47 0 0 0-.29-.12l-.29-.11c-.07 0-.08-.08 0-.14l.17-.22.18-.23c.09-.12.25-.08.54 0a1.19 1.19 0 0 0 .81 0l.14-.07a.31.31 0 0 0 .14-.42c-.08-.17-.14-.27.07-.31l.4-.08.41-.09a.3.3 0 0 1 .23 0 .85.85 0 0 1 .19.18.78.78 0 0 0 .63.3h.18a.85.85 0 0 0 .65-.28c.15-.15.23-.24.43-.19l.39.1.4.11h.09c.1.06 0 .14 0 .28s-.14.34.07.47l.12.08a1.22 1.22 0 0 0 .81.07c.24 0 .39-.07.48 0h.06l.15.23.15.24c.07.12-.07.16-.35.24s-.51.18-.52.36v.1a.32.32 0 0 0 .19.26 1.53 1.53 0 0 0 .3.12l.29.11c.07 0 .08.08 0 .14l-.17.22-.18.23c-.09.12-.25.08-.54 0a1.19 1.19 0 0 0-.81 0l-.13.07a.31.31 0 0 0-.17.41zm-2.54-1a2.1 2.1 0 0 0 2-.45c.26-.35.12-.74-.32-1a1.85 1.85 0 0 0-.45-.18 2.11 2.11 0 0 0-2 .45c-.26.35-.11.74.33 1a1.85 1.85 0 0 0 .45.18"/>
    <path d="M401.39 120.77c1.44.83 1.45 2.17 0 3l-16 9.33-112.52-65 16-9.33a5.72 5.72 0 0 1 5.19 0zm-24.61-.06l5.8-3.37a.79.79 0 0 0 0-1.5L302.67 69.7a2.85 2.85 0 0 0-2.6 0l-5.8 3.37a.79.79 0 0 0 0 1.5l79.91 46.14a2.85 2.85 0 0 0 2.59 0m12.33 4.44a.31.31 0 0 1 .06-.43h.06l.11-.07a1.23 1.23 0 0 1 .83 0c.29.06.45.09.54 0l.18-.23.18-.23V124l-.29-.11a1.53 1.53 0 0 1-.3-.12.32.32 0 0 1-.19-.26v-.19c0-.18.23-.29.52-.37s.43-.12.35-.24l-.15-.23-.15-.24h-.54a1.22 1.22 0 0 1-.81-.07l-.11-.07c-.22-.14-.19-.31-.08-.48s.14-.23 0-.28h-.09l-.4-.11-.39-.1c-.2 0-.28 0-.43.19a.85.85 0 0 1-.65.28h-.17a.83.83 0 0 1-.41-.1.82.82 0 0 1-.23-.2.85.85 0 0 0-.19-.18.3.3 0 0 0-.23 0l-.4.08-.41.09c-.21 0-.15.14-.07.31a.31.31 0 0 1-.07.43l-.12.07a1.23 1.23 0 0 1-.83 0c-.29-.06-.45-.09-.54 0a2.12 2.12 0 0 0-.18.23l-.18.23v.14l.29.11a1.47 1.47 0 0 1 .29.12.31.31 0 0 1 .19.26v.1c0 .18-.23.29-.52.37s-.43.12-.35.24l.15.23.15.24h.54a1.22 1.22 0 0 1 .8.07l.12.07a.31.31 0 0 1 .12.42v.06c-.08.14-.14.23 0 .28h.09l.4.1.4.1c.2 0 .28 0 .43-.19a.84.84 0 0 1 .58-.28h.17a.83.83 0 0 1 .41.1.82.82 0 0 1 .23.2.85.85 0 0 0 .19.18.3.3 0 0 0 .23 0l.4-.08.41-.09c.2 0 .15-.14.07-.31M287.48 68.33l-.25-2.53 4.56.24.09-.58-5.72-.3.32 3.2h1"/>
  </g>
  <path class="cls-24" d="M378.25 102.73c.44.25.59.65.32 1a2.1 2.1 0 0 1-2 .45 1.85 1.85 0 0 1-.45-.18c-.44-.25-.59-.65-.33-1a2.11 2.11 0 0 1 2-.45 1.85 1.85 0 0 1 .46.18z"/>
  <path class="cls-25" d="M372.57 95.84a.79.79 0 0 1 0 1.5l-5.8 3.37a2.85 2.85 0 0 1-2.59 0l-79.9-46.13a.79.79 0 0 1 0-1.5l5.8-3.37a2.85 2.85 0 0 1 2.6 0zm-54.36-23.22c.36 0 .65-.17.66-.38v-1.06a4.4 4.4 0 0 0 1.67-.52 1.63 1.63 0 0 0 1-1.36 1.66 1.66 0 0 0-1-1.35 5.15 5.15 0 0 0-4.68 0 1.65 1.65 0 0 0-1 1.36 1.67 1.67 0 0 0 1 1.35 4.34 4.34 0 0 0 1.68.52v1.06a.33.33 0 0 0 .19.27 1 1 0 0 0 .47.11m21.62 10a1.55 1.55 0 0 0 1.41 0 .43.43 0 0 0 0-.82l-14.07-8.12a1.56 1.56 0 0 0-1.41 0 .43.43 0 0 0 0 .82l14.07 8.12"/>
  <path class="cls-26" d="M318.87 72.23c0 .21-.3.38-.66.38a1 1 0 0 1-.47-.11.33.33 0 0 1-.19-.27v-1.06a4.34 4.34 0 0 1-1.68-.52 1.67 1.67 0 0 1-1-1.35 1.65 1.65 0 0 1 1-1.36 5.15 5.15 0 0 1 4.68 0 1.66 1.66 0 0 1 1 1.35 1.63 1.63 0 0 1-1 1.36 4.4 4.4 0 0 1-1.67.52zm-.68-1.79a2.83 2.83 0 0 0 1.4-.34.86.86 0 0 0 0-1.62 2.86 2.86 0 0 0-1.4-.34 2.83 2.83 0 0 0-1.4.34.85.85 0 0 0 0 1.61 2.83 2.83 0 0 0 1.39.34"/>
  <path class="cls-25" d="M319.58 68.49a.86.86 0 0 1 0 1.62 3 3 0 0 1-2.79 0 .85.85 0 0 1 0-1.61 2.83 2.83 0 0 1 1.4-.34 2.86 2.86 0 0 1 1.39.33z"/>
  <path class="cls-26" d="M341.23 81.79a.43.43 0 0 1 0 .82 1.55 1.55 0 0 1-1.41 0l-14.07-8.12a.43.43 0 0 1 0-.82 1.56 1.56 0 0 1 1.41 0z"/>
  <path class="cls-25" d="M281.9 45.5l-.09.58-4.57-.24.25 2.52-1 .03-.31-3.19 5.72.3zm97.2 59.65c.08.17.14.27-.07.31l-.4.08-.41.09a.3.3 0 0 1-.23 0 .85.85 0 0 1-.19-.18.78.78 0 0 0-.63-.3H377a.84.84 0 0 0-.65.28c-.15.15-.23.24-.43.19l-.39-.1-.4-.11H375c-.1-.06 0-.14 0-.28s.13-.34-.07-.47l-.13-.08a1.22 1.22 0 0 0-.8-.07c-.24 0-.39.07-.48 0h-.06l-.15-.23-.15-.24c-.07-.12.07-.16.35-.24s.51-.18.52-.36v-.11a.31.31 0 0 0-.19-.26 1.47 1.47 0 0 0-.29-.12l-.29-.11c-.07 0-.08-.08 0-.14l.17-.22.18-.23c.09-.12.25-.08.54 0a1.19 1.19 0 0 0 .81 0l.14-.07a.31.31 0 0 0 .14-.42c-.08-.17-.14-.27.07-.31l.4-.08.41-.09a.3.3 0 0 1 .23 0 .85.85 0 0 1 .19.18.78.78 0 0 0 .63.3h.18a.85.85 0 0 0 .65-.28c.15-.15.23-.24.43-.19l.39.1.4.11h.09c.1.06 0 .14 0 .28s-.14.34.07.47l.12.08a1.22 1.22 0 0 0 .81.07c.24 0 .39-.07.48 0h.06l.15.23.15.24c.07.12-.07.16-.35.24s-.51.18-.52.36v.1a.32.32 0 0 0 .19.26 1.53 1.53 0 0 0 .3.12l.29.11c.07 0 .08.08 0 .14l-.17.22-.18.23c-.09.12-.25.08-.54 0a1.19 1.19 0 0 0-.81 0l-.13.07a.31.31 0 0 0-.17.41zm-2.54-1a2.1 2.1 0 0 0 2-.45c.26-.35.12-.74-.32-1a1.85 1.85 0 0 0-.45-.18 2.11 2.11 0 0 0-2 .45c-.26.35-.11.74.33 1a1.85 1.85 0 0 0 .45.18"/>
  <path class="cls-24" d="M391.39 100.77c1.44.83 1.45 2.17 0 3l-16 9.33-112.52-65 16-9.33a5.72 5.72 0 0 1 5.19 0zm-24.61-.06l5.8-3.37a.79.79 0 0 0 0-1.5L292.67 49.7a2.85 2.85 0 0 0-2.6 0l-5.8 3.37a.79.79 0 0 0 0 1.5l79.91 46.14a2.85 2.85 0 0 0 2.59 0m12.33 4.44a.31.31 0 0 1 .06-.43h.06l.11-.07a1.23 1.23 0 0 1 .83 0c.29.06.45.09.54 0l.18-.23.18-.23V104l-.29-.11a1.53 1.53 0 0 1-.3-.12.32.32 0 0 1-.19-.26v-.19c0-.18.23-.29.52-.37s.43-.12.35-.24l-.15-.23-.15-.24h-.54a1.22 1.22 0 0 1-.81-.07l-.11-.07c-.22-.14-.19-.31-.08-.48s.14-.23 0-.28h-.09l-.4-.11-.39-.1c-.2 0-.28 0-.43.19a.85.85 0 0 1-.65.28h-.17a.83.83 0 0 1-.41-.1.82.82 0 0 1-.23-.2.85.85 0 0 0-.19-.18.3.3 0 0 0-.23 0l-.4.08-.41.09c-.21 0-.15.14-.07.31a.31.31 0 0 1-.07.43l-.12.07a1.23 1.23 0 0 1-.83 0c-.29-.06-.45-.09-.54 0a2.12 2.12 0 0 0-.18.23l-.18.23v.14l.29.11a1.47 1.47 0 0 1 .29.12.31.31 0 0 1 .19.26v.1c0 .18-.23.29-.52.37s-.43.12-.35.24l.15.23.15.24h.54a1.22 1.22 0 0 1 .8.07l.12.07a.31.31 0 0 1 .12.42v.06c-.08.14-.14.23 0 .28h.09l.4.1.4.1c.2 0 .28 0 .43-.19a.84.84 0 0 1 .58-.28h.17a.83.83 0 0 1 .41.1.82.82 0 0 1 .23.2.85.85 0 0 0 .19.18.3.3 0 0 0 .23 0l.4-.08.41-.09c.2 0 .15-.14.07-.31M277.48 48.33l-.25-2.53 4.56.24.09-.58-5.72-.3.32 3.2h1"/>
  <g class="cls-4">
    <path d="M113.48 174.68a.58.58 0 0 1 0-1.09l3-1.74a2.07 2.07 0 0 1 1.88 0l3 1.74c.52.3.53.79 0 1.09l-3 1.74a2.1 2.1 0 0 1-1.9 0zm3.45-2v1.21h-2.09v.58h2.1v1.21h1v-1.21H120v-.58h-2v-1.26h-1m20.33 12.95l.01 1.22h-1v-1.21l.99-.01zm-.01-1.79l.01 1.22h-1l-.01-1.22h1z"/>
    <path d="M139.43 185.01v.57h-2.1l-.99.01h-2.1V185l2.09.01h3.1z"/>
    <path d="M141.48 184.33a1 1 0 0 1 0 1.91l-3 1.74a3.65 3.65 0 0 1-3.3 0l-3-1.75a1 1 0 0 1 0-1.91l3-1.74a3.65 3.65 0 0 1 3.3 0zm-3.7 3.25l3-1.74a.58.58 0 0 0 0-1.09l-3-1.75a2.08 2.08 0 0 0-1.88 0l-3 1.74a.58.58 0 0 0 0 1.09l3 1.75a2.08 2.08 0 0 0 1.89 0m-.79 2.89l-.7.41-9.1-5.26.7-.41 9.1 5.26z"/>
    <path d="M132.87 185.84a.58.58 0 0 1 0-1.09l3-1.74a2.08 2.08 0 0 1 1.88 0l3 1.75a.58.58 0 0 1 0 1.09l-3 1.74a2.08 2.08 0 0 1-1.89 0zm3.45-2v1.21h-2.09v.58h2.09v1.21h1v-1.21h2.09v-.58h-2.09v-1.21h-1m20.04 17.8l-.71.41-9.11-5.26.71-.41 9.11 5.26zm.32-4.88l.01 1.21h-1l-.01-1.21h1zm-.01-1.79l.01 1.21h-1v-1.21h.99z"/>
    <path d="M160.84 195.51a1 1 0 0 1 0 1.92l-3 1.74a3.66 3.66 0 0 1-3.31 0l-3-1.74a1 1 0 0 1 0-1.92l3-1.74a3.66 3.66 0 0 1 3.31 0zm-3.7 3.25l3-1.74a.58.58 0 0 0 0-1.09l-3-1.74a2.08 2.08 0 0 0-1.89 0l-3 1.74a.58.58 0 0 0 0 1.1l3 1.74a2.1 2.1 0 0 0 1.9 0"/>
    <path d="M158.77 196.18l.01.58h-5.19v-.58h5.18z"/>
    <path d="M152.22 197a.58.58 0 0 1 0-1.1l3-1.74a2.08 2.08 0 0 1 1.89 0l3 1.74c.52.3.53.79 0 1.09l-3 1.74a2.1 2.1 0 0 1-1.9 0zm3.45-2v1.21h-2.09v.58h2.1V198h1v-1.21h2.1v-.58h-2.1V195h-1m15.89 13.19a.58.58 0 0 1 0-1.09l3-1.74a2.07 2.07 0 0 1 1.88 0l3 1.75a.58.58 0 0 1 0 1.09l-3 1.74a2.08 2.08 0 0 1-1.89 0zm3.45-2v1.14h-2.09v.58H175v1.21h1v-1.19h2.09v-.6H176v-1.21h-1m20.38 12.98v1.21h-1v-1.21h1zm-.01-1.79v1.21h-1v-1.22l1 .01z"/>
    <path d="M197.47 218.52v.58h-5.19v-.58h5.19z"/>
    <path d="M190.92 219.33a.58.58 0 0 1 0-1.1l3-1.74a2.08 2.08 0 0 1 1.89 0l3 1.74a.58.58 0 0 1 0 1.09l-3 1.74a2.08 2.08 0 0 1-1.89 0zm3.44-2v1.21h-2.08v.58h2.09v1.26h1v-1.21h2.11v-.58h-2.09v-1.21h-1m.66 6.6l-.71.41-9.1-5.26.7-.41 9.11 5.26zm-74.98-50.15l.01.58h-5.19v-.58h5.18zm-2.41 5.5a.22.22 0 0 1 0 .41.78.78 0 0 1-.7 0l-9.1-5.26a.22.22 0 0 1 0-.41.78.78 0 0 1 .71 0z"/>
    <path d="M117.99 174.41l.01 1.22h-1.01v-1.22h1zm57.71 38.4l-.7.41-9.11-5.26.71-.41 9.1 5.26zm.33-4.88l.01 1.21h-1.01v-1.21h1z"/>
    <path d="M180.19 206.68a1 1 0 0 1 0 1.91l-3 1.74a3.65 3.65 0 0 1-3.3 0l-3-1.75a1 1 0 0 1 0-1.91l3-1.74a3.65 3.65 0 0 1 3.3 0zm-3.71 3.25l3-1.74a.58.58 0 0 0 0-1.09l-3-1.77a2.07 2.07 0 0 0-1.88 0l-3 1.74a.58.58 0 0 0 0 1.09l3 1.75a2.08 2.08 0 0 0 1.89 0"/>
    <path d="M178.12 207.35l.01.58h-5.19v-.58h5.18zm-2.1-1.21l.01 1.21h-1l-.01-1.22 1 .01zm23.52 11.71a1 1 0 0 1 0 1.92l-3 1.74a3.66 3.66 0 0 1-3.31 0l-3-1.74a1 1 0 0 1 0-1.92l3-1.74a3.66 3.66 0 0 1 3.31 0zm-3.7 3.25l3-1.74a.58.58 0 0 0 0-1.09l-3-1.74a2.08 2.08 0 0 0-1.89 0l-3 1.74a.58.58 0 0 0 0 1.1l3 1.74a2.08 2.08 0 0 0 1.89 0m-73.7-47.94a1 1 0 0 1 0 1.92l-3 1.74a3.66 3.66 0 0 1-3.31 0l-3-1.74a1 1 0 0 1 0-1.91l3-1.74a3.65 3.65 0 0 1 3.3 0zm-3.7 3.25l3-1.74a.58.58 0 0 0 0-1.09l-3-1.74a2.07 2.07 0 0 0-1.88 0l-3 1.74a.58.58 0 0 0 0 1.09l3 1.74a2.1 2.1 0 0 0 1.9 0"/>
    <path d="M117.97 172.62l.01 1.21h-1v-1.21h.99z"/>
    <path d="M105 161l112.52 65-10.45 6.08a5.73 5.73 0 0 1-5.19 0l-107.31-62c-1.44-.83-1.44-2.18 0-3zm49.44 32.76l-3 1.74a1 1 0 0 0 0 1.92l3 1.74a3.66 3.66 0 0 0 3.31 0l3-1.74a1 1 0 0 0 0-1.92l-3-1.74a3.66 3.66 0 0 0-3.31 0m38.7 22.34l-3 1.74a1 1 0 0 0 0 1.92l3 1.74a3.66 3.66 0 0 0 3.31 0l3-1.74a1 1 0 0 0 0-1.92l-3-1.74a3.66 3.66 0 0 0-3.31 0m-58-33.51l-3 1.74a1 1 0 0 0 0 1.91l3 1.75a3.65 3.65 0 0 0 3.3 0l3-1.74a1 1 0 0 0 0-1.91l-3-1.75a3.65 3.65 0 0 0-3.3 0m38.7 22.34l-3 1.74a1 1 0 0 0 0 1.91l3 1.75a3.65 3.65 0 0 0 3.3 0l3-1.74a1 1 0 0 0 0-1.91l-3-1.75a3.65 3.65 0 0 0-3.3 0m-58-33.51l-3 1.74a1 1 0 0 0 0 1.91l3 1.74a3.66 3.66 0 0 0 3.31 0l3-1.74a1 1 0 0 0 0-1.92l-3-1.74a3.65 3.65 0 0 0-3.3 0m1.15 8.29a.78.78 0 0 0 .7 0 .22.22 0 0 0 0-.41l-9.1-5.26a.78.78 0 0 0-.71 0c-.19.11-.19.29 0 .41l9.1 5.26m38.72 22.3l.7-.41-9.11-5.26-.7.41 9.11 5.26m-19.35-11.17l.7-.41-9.06-5.22-.7.41 9.1 5.26m58 33.51l.7-.41-9.1-5.26-.7.41 9.1 5.26M175 213.21l.7-.41-9.1-5.26-.7.41 9.1 5.26"/>
  </g>
  <path class="cls-24" d="M103.48 154.68a.58.58 0 0 1 0-1.09l3-1.74a2.07 2.07 0 0 1 1.88 0l3 1.74c.52.3.53.79 0 1.09l-3 1.74a2.1 2.1 0 0 1-1.9 0zm3.45-2v1.21h-2.09v.58h2.1v1.21h1v-1.21H110v-.58h-2v-1.26h-1"/>
  <path class="cls-25" d="M127.33 165.58l.01 1.22h-1l-.01-1.21 1-.01zm-.01-1.79l.01 1.22h-1v-1.22h.99z"/>
  <path class="cls-25" d="M129.43 165.01v.57h-2.1l-1 .01h-2.09V165l2.09.01h3.1z"/>
  <path class="cls-25" d="M131.48 164.33a1 1 0 0 1 0 1.91l-3 1.74a3.65 3.65 0 0 1-3.3 0l-3-1.75a1 1 0 0 1 0-1.91l3-1.74a3.65 3.65 0 0 1 3.3 0zm-3.7 3.25l3-1.74a.58.58 0 0 0 0-1.09l-3-1.75a2.08 2.08 0 0 0-1.88 0l-3 1.74a.58.58 0 0 0 0 1.09l3 1.75a2.08 2.08 0 0 0 1.89 0m-.79 2.89l-.7.41-9.1-5.26.7-.41 9.1 5.26z"/>
  <path class="cls-24" d="M122.87 165.84a.58.58 0 0 1 0-1.09l3-1.74a2.08 2.08 0 0 1 1.88 0l3 1.75a.58.58 0 0 1 0 1.09l-3 1.74a2.08 2.08 0 0 1-1.89 0zm3.45-2v1.21h-2.09v.58h2.09v1.21h1v-1.21h2.09v-.58h-2.09v-1.21h-1"/>
  <path class="cls-25" d="M146.36 181.64l-.71.41-9.11-5.26.71-.41 9.11 5.26zm.32-4.88l.01 1.21h-1l-.01-1.21h1zm-.01-1.79l.01 1.21h-1v-1.21h.99z"/>
  <path class="cls-25" d="M150.84 175.51a1 1 0 0 1 0 1.92l-3 1.74a3.66 3.66 0 0 1-3.31 0l-3-1.74a1 1 0 0 1 0-1.92l3-1.74a3.66 3.66 0 0 1 3.31 0zm-3.7 3.25l3-1.74a.58.58 0 0 0 0-1.09l-3-1.74a2.08 2.08 0 0 0-1.89 0l-3 1.74a.58.58 0 0 0 0 1.1l3 1.74a2.1 2.1 0 0 0 1.9 0"/>
  <path class="cls-25" d="M148.77 176.18l.01.58h-5.19v-.58h5.18z"/>
  <path class="cls-24" d="M142.22 177a.58.58 0 0 1 0-1.1l3-1.74a2.08 2.08 0 0 1 1.89 0l3 1.74c.52.3.53.79 0 1.09l-3 1.74a2.1 2.1 0 0 1-1.9 0zm3.45-2v1.21h-2.09v.58h2.1V178h1v-1.21h2.1v-.58h-2.1V175h-1m15.89 13.19a.58.58 0 0 1 0-1.09l3-1.74a2.07 2.07 0 0 1 1.88 0l3 1.75a.58.58 0 0 1 0 1.09l-3 1.74a2.08 2.08 0 0 1-1.89 0zm3.45-2v1.14h-2.09v.58H165v1.21h1v-1.19h2.09v-.6H166v-1.21h-1"/>
  <path class="cls-25" d="M185.38 199.1v1.21h-1v-1.21h1zm-.01-1.79v1.21h-1v-1.22l1 .01z"/>
  <path class="cls-25" d="M187.47 198.52v.58h-5.19v-.58h5.19z"/>
  <path class="cls-24" d="M180.92 199.33a.58.58 0 0 1 0-1.1l3-1.74a2.08 2.08 0 0 1 1.89 0l3 1.74a.58.58 0 0 1 0 1.09l-3 1.74a2.08 2.08 0 0 1-1.89 0zm3.44-2v1.21h-2.08v.58h2.09v1.26h1v-1.21h2.11v-.58h-2.09v-1.21h-1"/>
  <path class="cls-25" d="M185.05 203.98l-.71.41-9.1-5.26.7-.41 9.11 5.26zm-74.98-50.15l.01.58h-5.19v-.58h5.18zm-2.41 5.5a.22.22 0 0 1 0 .41.78.78 0 0 1-.7 0l-9.1-5.26a.22.22 0 0 1 0-.41.78.78 0 0 1 .71 0z"/>
  <path class="cls-25" d="M107.99 154.41l.01 1.22h-1.01v-1.22h1zm57.71 38.4l-.7.41-9.11-5.26.71-.41 9.1 5.26zm.33-4.88l.01 1.21h-1.01v-1.21h1z"/>
  <path class="cls-25" d="M170.19 186.68a1 1 0 0 1 0 1.91l-3 1.74a3.65 3.65 0 0 1-3.3 0l-3-1.75a1 1 0 0 1 0-1.91l3-1.74a3.65 3.65 0 0 1 3.3 0zm-3.71 3.25l3-1.74a.58.58 0 0 0 0-1.09l-3-1.77a2.07 2.07 0 0 0-1.88 0l-3 1.74a.58.58 0 0 0 0 1.09l3 1.75a2.08 2.08 0 0 0 1.89 0"/>
  <path class="cls-25" d="M168.12 187.35l.01.58h-5.19v-.58h5.18zm-2.1-1.21l.01 1.21h-1l-.01-1.22 1 .01zm23.52 11.71a1 1 0 0 1 0 1.92l-3 1.74a3.66 3.66 0 0 1-3.31 0l-3-1.74a1 1 0 0 1 0-1.92l3-1.74a3.66 3.66 0 0 1 3.31 0zm-3.7 3.25l3-1.74a.58.58 0 0 0 0-1.09l-3-1.74a2.08 2.08 0 0 0-1.89 0l-3 1.74a.58.58 0 0 0 0 1.1l3 1.74a2.08 2.08 0 0 0 1.89 0m-73.7-47.94a1 1 0 0 1 0 1.92l-3 1.74a3.66 3.66 0 0 1-3.31 0l-3-1.74a1 1 0 0 1 0-1.91l3-1.74a3.65 3.65 0 0 1 3.3 0zm-3.7 3.25l3-1.74a.58.58 0 0 0 0-1.09l-3-1.74a2.07 2.07 0 0 0-1.88 0l-3 1.74a.58.58 0 0 0 0 1.09l3 1.74a2.1 2.1 0 0 0 1.9 0"/>
  <path class="cls-25" d="M107.97 152.62l.01 1.21h-1v-1.21h.99z"/>
  <path class="cls-24" d="M95 141l112.52 65-10.45 6.08a5.73 5.73 0 0 1-5.19 0l-107.31-62c-1.44-.83-1.44-2.18 0-3zm49.44 32.76l-3 1.74a1 1 0 0 0 0 1.92l3 1.74a3.66 3.66 0 0 0 3.31 0l3-1.74a1 1 0 0 0 0-1.92l-3-1.74a3.66 3.66 0 0 0-3.31 0m38.7 22.34l-3 1.74a1 1 0 0 0 0 1.92l3 1.74a3.66 3.66 0 0 0 3.31 0l3-1.74a1 1 0 0 0 0-1.92l-3-1.74a3.66 3.66 0 0 0-3.31 0m-58-33.51l-3 1.74a1 1 0 0 0 0 1.91l3 1.75a3.65 3.65 0 0 0 3.3 0l3-1.74a1 1 0 0 0 0-1.91l-3-1.75a3.65 3.65 0 0 0-3.3 0m38.7 22.34l-3 1.74a1 1 0 0 0 0 1.91l3 1.75a3.65 3.65 0 0 0 3.3 0l3-1.74a1 1 0 0 0 0-1.91l-3-1.75a3.65 3.65 0 0 0-3.3 0m-58-33.51l-3 1.74a1 1 0 0 0 0 1.91l3 1.74a3.66 3.66 0 0 0 3.31 0l3-1.74a1 1 0 0 0 0-1.92l-3-1.74a3.65 3.65 0 0 0-3.3 0m1.15 8.29a.78.78 0 0 0 .7 0 .22.22 0 0 0 0-.41L98.62 154a.78.78 0 0 0-.71 0c-.19.11-.19.29 0 .41l9.1 5.26m38.7 22.33l.7-.41-9.11-5.26-.7.41 9.11 5.26m-19.35-11.17l.7-.41-9.06-5.22-.7.41 9.1 5.26m58 33.51l.7-.41-9.1-5.26-.7.41 9.1 5.26M165 193.21l.7-.41-9.1-5.26-.7.41 9.1 5.26"/>
  <g class="cls-4">
    <path d="M275.3 172.5l-2.82 1.64-65.03-37.55 2.82-1.63 65.03 37.54zm-2.82 16.69a.43.43 0 0 1 0 .82 1.56 1.56 0 0 1-1.41 0l-78-45.06a.43.43 0 0 1 0-.82 1.55 1.55 0 0 1 1.42 0z"/>
    <path d="M204.33 118.44l112.52 65-63.85 37.1-112.54-65zm5.93 16.56l-2.78 1.64 65 37.55 2.82-1.64-65-37.55m-5.17 3l-2.82 1.64 48.77 28.16 2.82-1.64L205.13 138m66 52a1.56 1.56 0 0 0 1.41 0 .43.43 0 0 0 0-.82l-78.06-45a1.55 1.55 0 0 0-1.42 0 .43.43 0 0 0 0 .82l78 45.06m-23-9.26a1.56 1.56 0 0 0 1.41 0 .43.43 0 0 0 0-.82l-58.53-33.79a1.55 1.55 0 0 0-1.42 0 .43.43 0 0 0 0 .82l58.53 33.79m-50.12-38.62a1.54 1.54 0 0 0-1.41 0 .43.43 0 0 0 0 .82l58.53 33.79a1.56 1.56 0 0 0 1.41 0 .43.43 0 0 0 0-.82l-58.53-33.79"/>
    <path d="M253.87 166.12l-2.82 1.64-48.77-28.16 2.82-1.64 48.77 28.16zm2.61 9.8a.43.43 0 0 1 0 .82 1.56 1.56 0 0 1-1.41 0l-58.59-33.79a.43.43 0 0 1 0-.82 1.54 1.54 0 0 1 1.41 0zm-6.92 4.01a.43.43 0 0 1 0 .82 1.56 1.56 0 0 1-1.41 0L189.62 147a.43.43 0 0 1 0-.82 1.55 1.55 0 0 1 1.42 0z"/>
  </g>
  <path class="cls-24" d="M265.3 152.5l-2.82 1.64-65.03-37.55 2.82-1.64 65.03 37.55z"/>
  <path class="cls-26" d="M262.48 169.19a.43.43 0 0 1 0 .82 1.56 1.56 0 0 1-1.41 0l-78-45.06a.43.43 0 0 1 0-.82 1.55 1.55 0 0 1 1.42 0z"/>
  <path d="M194.33 98.44l112.52 65-63.85 37.1-112.54-65zm5.93 16.56l-2.78 1.64 65 37.55 2.82-1.64-65-37.55m-5.17 3l-2.82 1.64 48.77 28.16 2.82-1.64L195.13 118m66 52a1.56 1.56 0 0 0 1.41 0 .43.43 0 0 0 0-.82l-78.06-45a1.55 1.55 0 0 0-1.42 0 .43.43 0 0 0 0 .82l78 45.06m-23-9.26a1.56 1.56 0 0 0 1.41 0 .43.43 0 0 0 0-.82l-58.53-33.79a1.55 1.55 0 0 0-1.42 0 .43.43 0 0 0 0 .82l58.53 33.79m-50.12-38.62a1.54 1.54 0 0 0-1.41 0 .43.43 0 0 0 0 .82l58.53 33.79a1.56 1.56 0 0 0 1.41 0 .43.43 0 0 0 0-.82l-58.53-33.79" fill="#f7f9f9"/>
  <path class="cls-24" d="M243.87 146.12l-2.82 1.64-48.77-28.16 2.82-1.64 48.77 28.16z"/>
  <path class="cls-26" d="M246.48 155.92a.43.43 0 0 1 0 .82 1.56 1.56 0 0 1-1.41 0l-58.59-33.79a.43.43 0 0 1 0-.82 1.54 1.54 0 0 1 1.41 0zm-6.92 4.01a.43.43 0 0 1 0 .82 1.56 1.56 0 0 1-1.41 0L179.62 127a.43.43 0 0 1 0-.82 1.55 1.55 0 0 1 1.42 0z"/>
  <g class="cls-4">
    <path d="M154.42 146.07a9.62 9.62 0 0 0-.76.79l-1.09 1.3-1.76-1 2.26-.65c.46-.14.91-.29 1.34-.44zm-8.63-5.07c.83.48 1 1 .24 1.46a2.67 2.67 0 0 1-2.71-.13 2.81 2.81 0 0 1-.56-.4l2.26-1.31a5.23 5.23 0 0 1 .77.38z"/>
    <path d="M147.48 141.83a1.17 1.17 0 0 1-.71 1 3.37 3.37 0 0 1-1.69.46 4.76 4.76 0 0 1-2.43-.66 3.45 3.45 0 0 1-.56-.38l-2.32 1.35-.75-.43 5.73-3.33a12.61 12.61 0 0 1 1.56.77c.8.39 1.17.84 1.17 1.22zm-4.2.46a2.67 2.67 0 0 0 2.71.13c.77-.45.59-1-.24-1.46a5.23 5.23 0 0 0-.77-.38l-2.26 1.31a2.81 2.81 0 0 0 .56.4m22.8 9.71l-5.3.81-2.47 1.43-.77-.44 2.46-1.4 1.5-3 .86.5-.78 1.41c-.21.38-.4.69-.61 1l1.8-.34 2.44-.45zm-10.53-6l-3.81 4.52-.8-.46 1.2-1.42-2.07-1.19-2.43.71-.79-.45 7.79-2.23zm-4.75 1.19l1.76 1 1.09-1.3c.25-.29.51-.55.76-.79-.43.15-.88.3-1.34.44l-2.26.65"/>
    <path d="M195.48 164.19c1.58.91 1.58 2.38 0 3.29l-7.26 4.22a6.25 6.25 0 0 1-5.68 0l-72.31-41.77c-1.58-.91-1.59-2.39 0-3.29l7.26-4.22a6.26 6.26 0 0 1 5.68 0zM150.92 150l.8.46 3.81-4.52-.91-.53-7.79 2.23.79.45 2.43-.71 2.07 1.19-1.2 1.42m9.85 2.83l5.3-.81-.86-.5-2.44.45c-.67.12-1.25.23-1.79.35.2-.35.38-.65.6-1l.78-1.41-.86-.5-1.5 3-2.46 1.43.77.44 2.47-1.43m-15.65-9.53a3.37 3.37 0 0 0 1.69-.46c.52-.3.75-.66.71-1s-.41-.8-1.16-1.23a12.61 12.61 0 0 0-1.56-.77l-5.73 3.33.75.43 2.32-1.35a3.45 3.45 0 0 0 .56.38 4.76 4.76 0 0 0 2.43.66"/>
  </g>
  <path class="cls-2" d="M144.42 126.07a9.62 9.62 0 0 0-.76.79l-1.09 1.3-1.76-1 2.26-.65c.46-.14.91-.29 1.34-.44zm-8.63-5.07c.83.48 1 1 .24 1.46a2.67 2.67 0 0 1-2.71-.13 2.81 2.81 0 0 1-.56-.4l2.26-1.31a5.23 5.23 0 0 1 .77.38z"/>
  <path class="cls-25" d="M137.48 121.83a1.17 1.17 0 0 1-.71 1 3.37 3.37 0 0 1-1.69.46 4.76 4.76 0 0 1-2.43-.66 3.45 3.45 0 0 1-.56-.38l-2.32 1.35-.75-.43 5.73-3.33a12.61 12.61 0 0 1 1.56.77c.8.39 1.17.84 1.17 1.22zm-4.2.46a2.67 2.67 0 0 0 2.71.13c.77-.45.59-1-.24-1.46a5.23 5.23 0 0 0-.77-.38l-2.26 1.31a2.81 2.81 0 0 0 .56.4m22.8 9.71l-5.3.81-2.47 1.43-.77-.44 2.46-1.4 1.5-3 .86.5-.78 1.41c-.21.38-.4.69-.61 1l1.8-.34 2.44-.45zm-10.53-6l-3.81 4.52-.8-.46 1.2-1.42-2.07-1.19-2.43.71-.79-.45 7.79-2.23zm-4.75 1.19l1.76 1 1.09-1.3c.25-.29.51-.55.76-.79-.43.15-.88.3-1.34.44l-2.26.65"/>
  <path class="cls-2" d="M185.48 144.19c1.58.91 1.58 2.38 0 3.29l-7.26 4.22a6.25 6.25 0 0 1-5.68 0l-72.31-41.77c-1.58-.91-1.59-2.39 0-3.29l7.26-4.22a6.26 6.26 0 0 1 5.68 0zM140.92 130l.8.46 3.81-4.52-.91-.53-7.79 2.23.79.45 2.43-.71 2.07 1.19-1.2 1.42m9.85 2.83l5.3-.81-.86-.5-2.44.45c-.67.12-1.25.23-1.79.35.2-.35.38-.65.6-1l.78-1.41-.86-.5-1.5 3-2.46 1.43.77.44 2.47-1.43m-15.65-9.53a3.37 3.37 0 0 0 1.69-.46c.52-.3.75-.66.71-1s-.41-.8-1.16-1.23a12.61 12.61 0 0 0-1.56-.77l-5.73 3.33.75.43 2.32-1.35a3.45 3.45 0 0 0 .56.38 4.76 4.76 0 0 0 2.43.66"/>
  <g class="cls-4">
    <path d="M237.48 86.8c4 2.3 4 6 0 8.33a1.56 1.56 0 0 1-1.41 0 .43.43 0 0 1 0-.82c1.59-.93 2.38-2.13 2.37-3.35s-.82-2.42-2.41-3.35a.43.43 0 0 1 0-.82 1.56 1.56 0 0 1 1.45.01zM215.37 74c4 2.3 4 6 0 8.33a1.56 1.56 0 0 1-1.41 0 .43.43 0 0 1 0-.82 4 4 0 0 0 2.37-3.35c0-1.21-.82-2.42-2.41-3.35a.43.43 0 0 1 0-.82 1.56 1.56 0 0 1 1.45.01z"/>
    <path d="M258.68 74.33c1.55.89 1.83 2.27.69 3.34l-19.75 18.47a1.47 1.47 0 0 1-1.37.18l-.18-.08.71-.41c2.07-1.2 3.21-2.74 3.42-4.31l15.47-14.47c.65-.61.49-1.4-.39-1.91l-4.44-2.56a.43.43 0 0 1 0-.82 1.56 1.56 0 0 1 1.41 0z"/>
    <path d="M242.19 91.54c-.21 1.57-1.35 3.11-3.42 4.31-.24.14-.48.27-.73.39-4.67 2.3-11.69 2.17-16.13-.39s-4.68-6.62-.73-9.34a1.56 1.56 0 0 0 1.38 0c.38-.22.39-.57 0-.8 4.67-2.3 11.69-2.17 16.12.39 2.62 1.48 3.8 3.49 3.51 5.44zm-6.08 3.59a1.56 1.56 0 0 0 1.41 0c4-2.3 3.94-6 0-8.33a1.56 1.56 0 0 0-1.41 0 .43.43 0 0 0 0 .82c1.6.93 2.4 2.14 2.41 3.35s-.78 2.42-2.37 3.35a.43.43 0 0 0 0 .82M182.35 97c.72.42.73 1.09 0 1.5a2.85 2.85 0 0 1-2.6 0 .79.79 0 0 1 0-1.5 2.85 2.85 0 0 1 2.6 0zm3.9 2.21c.72.42.73 1.09 0 1.5a2.85 2.85 0 0 1-2.6 0 .79.79 0 0 1 0-1.5 2.85 2.85 0 0 1 2.6 0zm3.96 2.29c.72.42.73 1.09 0 1.5a2.85 2.85 0 0 1-2.6 0 .8.8 0 0 1 0-1.5 2.86 2.86 0 0 1 2.6 0zm3.9 2.25c.72.42.73 1.09 0 1.5a2.85 2.85 0 0 1-2.6 0 .79.79 0 0 1 0-1.5 2.85 2.85 0 0 1 2.6 0zM198 106c.72.42.73 1.09 0 1.5a2.85 2.85 0 0 1-2.6 0 .79.79 0 0 1 0-1.5 2.85 2.85 0 0 1 2.6 0z"/>
    <path d="M218.23 20l112.51 65-100.12 58.15-112.51-65zm20 76.33a1.47 1.47 0 0 0 1.37-.18l19.75-18.47c1.14-1.07.86-2.45-.69-3.34l-4.44-2.56a1.56 1.56 0 0 0-1.41 0 .43.43 0 0 0 0 .82l4.44 2.56c.88.51 1 1.3.39 1.91l-15.47 14.47c.27-2-.89-4-3.48-5.46-4.43-2.56-11.45-2.69-16.12-.39l-5.23-3c3.92-2.73 3.68-6.79-.76-9.35a17.69 17.69 0 0 0-9.44-2l24.94-9a4.21 4.21 0 0 1 3.29.22l4.44 2.56a1.55 1.55 0 0 0 1.41 0 .43.43 0 0 0 0-.82l-4.44-2.56a7.39 7.39 0 0 0-5.77-.38l-31.82 11.5c-.47.17-.61.52-.31.8l.14.1c-3.92 2.73-3.67 6.79.76 9.35s11.45 2.69 16.12.39l5.23 3c-3.92 2.73-3.67 6.8.76 9.35s11.46 2.69 16.13.39l.21.1M187.61 103a2.85 2.85 0 0 0 2.6 0 .79.79 0 0 0 0-1.5 2.86 2.86 0 0 0-2.59 0 .8.8 0 0 0 0 1.5m3.9 2.25a2.85 2.85 0 0 0 2.6 0 .79.79 0 0 0 0-1.5 2.85 2.85 0 0 0-2.58 0 .79.79 0 0 0 0 1.5m3.9 2.25a2.85 2.85 0 0 0 2.6 0 .79.79 0 0 0 0-1.5 2.85 2.85 0 0 0-2.58 0 .79.79 0 0 0 0 1.5m-11.76-6.79a2.85 2.85 0 0 0 2.6 0 .79.79 0 0 0 0-1.5 2.85 2.85 0 0 0-2.58 0 .79.79 0 0 0 0 1.5m-3.9-2.25a2.85 2.85 0 0 0 2.6 0 .79.79 0 0 0 0-1.5 2.85 2.85 0 0 0-2.58 0 .79.79 0 0 0 0 1.5"/>
    <path d="M241.24 64.27a.43.43 0 0 1 0 .82 1.55 1.55 0 0 1-1.41 0l-4.44-2.56a4.21 4.21 0 0 0-3.29-.22l-24.94 9a16.6 16.6 0 0 0-7.41 2l-.67.43a.85.85 0 0 1-.17-.12c-.29-.27-.16-.63.31-.8L231 61.33a7.39 7.39 0 0 1 5.77.38z"/>
    <path d="M215.94 82.67a.43.43 0 0 0 0 .8c-4.67 2.3-11.68 2.17-16.12-.39s-4.68-6.62-.73-9.34l.67-.43a16.6 16.6 0 0 1 7.41-2 17.69 17.69 0 0 1 9.44 2c4.43 2.56 4.68 6.62.73 9.34a1.57 1.57 0 0 0-1.4.02zm-1.94-.31a1.56 1.56 0 0 0 1.41 0c4-2.3 3.94-6 0-8.33A1.56 1.56 0 0 0 214 74a.43.43 0 0 0 0 .82c1.6.93 2.4 2.13 2.41 3.35a4 4 0 0 1-2.41 3.38.43.43 0 0 0 0 .82"/>
    <path d="M222.56 85.67a.43.43 0 0 1 0 .8 1.56 1.56 0 0 1-1.38 0l-5.2-3a.43.43 0 0 1 0-.8 1.57 1.57 0 0 1 1.38 0z"/>
  </g>
  <path class="cls-25" d="M227.48 66.8c4 2.3 4 6 0 8.33a1.56 1.56 0 0 1-1.41 0 .43.43 0 0 1 0-.82c1.59-.93 2.38-2.13 2.37-3.35s-.82-2.42-2.41-3.35a.43.43 0 0 1 0-.82 1.56 1.56 0 0 1 1.45.01zM205.37 54c4 2.3 4 6 0 8.33a1.56 1.56 0 0 1-1.41 0 .43.43 0 0 1 0-.82 4 4 0 0 0 2.37-3.35c0-1.21-.82-2.42-2.41-3.35a.43.43 0 0 1 0-.82 1.56 1.56 0 0 1 1.45.01z"/>
  <path class="cls-28" d="M248.68 54.33c1.55.89 1.83 2.27.69 3.34l-19.75 18.47a1.47 1.47 0 0 1-1.37.18l-.18-.08.71-.41c2.07-1.2 3.21-2.74 3.42-4.31L247.67 57c.65-.61.49-1.4-.39-1.91l-4.44-2.56a.43.43 0 0 1 0-.82 1.56 1.56 0 0 1 1.41 0z"/>
  <path class="cls-29" d="M232.19 71.54c-.21 1.57-1.35 3.11-3.42 4.31-.24.14-.48.27-.73.39-4.67 2.3-11.69 2.17-16.13-.39s-4.68-6.62-.73-9.34a1.56 1.56 0 0 0 1.38 0c.38-.22.39-.57 0-.8 4.67-2.3 11.69-2.17 16.12.39 2.62 1.48 3.8 3.49 3.51 5.44zm-6.08 3.59a1.56 1.56 0 0 0 1.41 0c4-2.3 3.94-6 0-8.33a1.56 1.56 0 0 0-1.41 0 .43.43 0 0 0 0 .82c1.6.93 2.4 2.14 2.41 3.35s-.78 2.42-2.37 3.35a.43.43 0 0 0 0 .82"/>
  <path class="cls-24" d="M172.35 77c.72.42.73 1.09 0 1.5a2.85 2.85 0 0 1-2.6 0 .79.79 0 0 1 0-1.5 2.85 2.85 0 0 1 2.6 0z"/>
  <path d="M176.25 79.21c.72.42.73 1.09 0 1.5a2.85 2.85 0 0 1-2.6 0 .79.79 0 0 1 0-1.5 2.85 2.85 0 0 1 2.6 0zm3.96 2.29c.72.42.73 1.09 0 1.5a2.85 2.85 0 0 1-2.6 0 .8.8 0 0 1 0-1.5 2.86 2.86 0 0 1 2.6 0zm3.9 2.25c.72.42.73 1.09 0 1.5a2.85 2.85 0 0 1-2.6 0 .79.79 0 0 1 0-1.5 2.85 2.85 0 0 1 2.6 0zM188 86c.72.42.73 1.09 0 1.5a2.85 2.85 0 0 1-2.6 0 .79.79 0 0 1 0-1.5 2.85 2.85 0 0 1 2.6 0z" fill="#eceff1"/>
  <path class="cls-25" d="M208.23 0l112.51 65-100.12 58.15-112.51-65zm20 76.33a1.47 1.47 0 0 0 1.37-.18l19.75-18.47c1.14-1.07.86-2.45-.69-3.34l-4.44-2.56a1.56 1.56 0 0 0-1.41 0 .43.43 0 0 0 0 .82l4.44 2.56c.88.51 1 1.3.39 1.91l-15.47 14.47c.27-2-.89-4-3.48-5.46-4.43-2.56-11.45-2.69-16.12-.39l-5.23-3c3.92-2.73 3.68-6.79-.76-9.35a17.69 17.69 0 0 0-9.44-2l24.94-9a4.21 4.21 0 0 1 3.29.22l4.44 2.56a1.55 1.55 0 0 0 1.41 0 .43.43 0 0 0 0-.82l-4.44-2.56a7.39 7.39 0 0 0-5.77-.38l-31.82 11.5c-.47.17-.61.52-.31.8l.14.1c-3.92 2.73-3.67 6.79.76 9.35s11.45 2.69 16.12.39l5.23 3c-3.92 2.73-3.67 6.8.76 9.35s11.46 2.69 16.13.39l.21.1M177.61 83a2.85 2.85 0 0 0 2.6 0 .79.79 0 0 0 0-1.5 2.86 2.86 0 0 0-2.59 0 .8.8 0 0 0 0 1.5m3.9 2.25a2.85 2.85 0 0 0 2.6 0 .79.79 0 0 0 0-1.5 2.85 2.85 0 0 0-2.58 0 .79.79 0 0 0 0 1.5m3.9 2.25a2.85 2.85 0 0 0 2.6 0 .79.79 0 0 0 0-1.5 2.85 2.85 0 0 0-2.58 0 .79.79 0 0 0 0 1.5m-11.76-6.79a2.85 2.85 0 0 0 2.6 0 .79.79 0 0 0 0-1.5 2.85 2.85 0 0 0-2.58 0 .79.79 0 0 0 0 1.5m-3.9-2.25a2.85 2.85 0 0 0 2.6 0 .79.79 0 0 0 0-1.5 2.85 2.85 0 0 0-2.58 0 .79.79 0 0 0 0 1.5"/>
  <path class="cls-28" d="M231.24 44.27a.43.43 0 0 1 0 .82 1.55 1.55 0 0 1-1.41 0l-4.44-2.56a4.21 4.21 0 0 0-3.29-.22l-24.94 9a16.6 16.6 0 0 0-7.41 2l-.67.43a.85.85 0 0 1-.17-.12c-.29-.27-.16-.63.31-.8L221 41.33a7.39 7.39 0 0 1 5.77.38z"/>
  <path class="cls-29" d="M205.94 62.67a.43.43 0 0 0 0 .8c-4.67 2.3-11.68 2.17-16.12-.39s-4.68-6.62-.73-9.34l.67-.43a16.6 16.6 0 0 1 7.41-2 17.69 17.69 0 0 1 9.44 2c4.43 2.56 4.68 6.62.73 9.34a1.57 1.57 0 0 0-1.4.02zm-1.94-.31a1.56 1.56 0 0 0 1.41 0c4-2.3 3.94-6 0-8.33A1.56 1.56 0 0 0 204 54a.43.43 0 0 0 0 .82c1.6.93 2.4 2.13 2.41 3.35a4 4 0 0 1-2.41 3.38.43.43 0 0 0 0 .82"/>
  <path class="cls-28" d="M212.56 65.67a.43.43 0 0 1 0 .8 1.56 1.56 0 0 1-1.38 0l-5.2-3a.43.43 0 0 1 0-.8 1.57 1.57 0 0 1 1.38 0z"/>
</svg>
