<?xml version="1.0" encoding="utf-8"?>
<!-- Generator: Adobe Illustrator 23.0.1, SVG Export Plug-In . SVG Version: 6.00 Build 0)  -->
<svg version="1.1" id="Layer_1" xmlns="http://www.w3.org/2000/svg" xmlns:xlink="http://www.w3.org/1999/xlink" x="0px" y="0px"
	 viewBox="0 0 497 342" style="enable-background:new 0 0 497 342;" xml:space="preserve">
<style type="text/css">
	.st0{fill:#0D7DC9;}
	.st1{fill:#0B71B7;}
	.st2{fill:#CFD8DC;}
	.st3{fill:#47525D;}
	.st4{fill:#FFFFFF;}
	.st5{fill:#3D474F;}
	.st6{fill:#EFCE4A;}
	.st7{fill:#E5BE45;}
</style>
<title>worldcard</title>
<rect x="97" y="118.5" class="st0" width="29.9" height="50.4"/>
<path class="st1" d="M91.3,222.7H13.1c-5,0-9.1-4.1-9.1-9.1l0,0v-140c0-5,4.1-9.1,9.1-9.1h78.2c5,0,9.1,4.1,9.1,9.1v139.9
	c0.1,5-4,9.1-9,9.2C91.4,222.7,91.3,222.7,91.3,222.7z"/>
<rect x="56.3" y="64.5" class="st2" width="23.6" height="158.2"/>
<circle class="st2" cx="27.6" cy="86.5" r="12.8"/>
<path class="st3" d="M485,27v233.5c0,11.8-9.7,21.4-21.5,21.4c0,0,0,0,0,0H137.9c-11.8,0-21.4-9.6-21.4-21.4V27
	c0-11.8,9.6-21.4,21.4-21.4h325.6c11.8-0.1,21.4,9.4,21.5,21.1C485,26.8,485,26.9,485,27L485,27"/>
<polyline class="st4" points="164.5,28 448.6,28 448.6,259.4 164.5,259.4 164.5,28 "/>
<path class="st5" d="M150.2,143.7c0,6.5-5.2,11.7-11.7,11.7s-11.7-5.2-11.7-11.7S132,132,138.5,132l0,0l0,0
	C145,132,150.2,137.2,150.2,143.7L150.2,143.7"/>
<path class="st5" d="M138.6,132.1c-1.5,0-3.1,0.3-4.5,0.9l6.8,22.2c6.3-1.3,10.4-7.5,9.1-13.8C148.9,136,144.1,132.1,138.6,132.1"/>
<path class="st5" d="M99,203.3l-39.9-5.7c-3.6-0.5-6.3-3.6-6.3-7.3v-93c0-3.7,2.7-6.8,6.3-7.3L99,84.3c4-0.6,7.7,2.1,8.3,6.1
	c0,0,0,0.1,0,0.1c0.1,0.4,0.1,0.7,0.1,1.1V196c0,4.1-3.3,7.4-7.4,7.4c0,0,0,0,0,0C99.7,203.3,99.3,203.3,99,203.3z"/>
<polygon class="st3" points="61.3,189.2 61.3,98.3 98.8,92.9 98.8,194.6 "/>
<polyline class="st3" points="354.4,259.4 237.2,259.4 237.2,281.9 386.2,281.9 361.2,281.9 354.4,259.4 "/>
<path class="st2" d="M327.4,171c-2.6,1-5.3,1.7-8,2.2h8.6L327.4,171 M270.1,144.4c-11.8,1.9-22,9.4-27.3,20.2
	c-1.5,2.9-0.4,6.4,2.5,7.9c0.1,0,0.1,0.1,0.2,0.1c0.8,0.4,1.8,0.6,2.7,0.6H304C288.3,170.4,275.4,159.4,270.1,144.4 M265.8,129.9
	c-18.9,0.5-37,7.9-50.8,20.8l-31.9,30l32.2,44l22-13.5v48.3h117.1l-21.7-71.2h-84.4c-11.6,0-21-9.4-21-21c0-3.2,0.7-6.4,2.2-9.3
	C236.5,143.5,250,133.1,265.8,129.9"/>
<rect x="181.9" y="41.8" class="st6" width="77.1" height="12.1"/>
<polyline class="st6" points="431.2,53.9 269.8,53.9 269.8,41.8 431.2,41.8 431.2,53.9 "/>
<rect x="181.9" y="60.2" class="st6" width="77.1" height="12.1"/>
<polyline class="st3" points="375.2,5.6 277,5.6 283.9,28 375.2,28 375.2,5.6 "/>
<polyline class="st4" points="375.2,28 283.9,28 288,41.8 375.2,41.8 375.2,28 "/>
<path class="st3" d="M485,57.1h-36.4v202.3h-62.4v22.5h77.3c11.8,0,21.4-9.6,21.5-21.4l0,0V57.1"/>
<path class="st4" d="M347.4,143.9h-0.3c-5.7,7.7-13.8,13.4-23,16.1l3.4,11c12.1-4.6,21.5-14.4,25.8-26.6
	C351.4,144,349.4,143.9,347.4,143.9 M381.1,53.9h-89.3l9.3,30.4c2.9-1.5,6.1-2.4,9.3-2.6h1.5c5.9,0,11.6,2.2,15.9,6.3
	c4.7,4.4,7.3,10.5,7.4,16.9v4.3h-15v-4.3c0-4.6-3.7-8.3-8.3-8.3c0,0,0,0,0,0h-0.5c-2.1,0.1-4.2,1.1-5.6,2.7l4.6,15.1
	c3.9,4,6.7,9,8.1,14.4H337c6.8-2.7,13.1-6.5,18.7-11.2c0,3.9-0.5,7.8-1.5,11.6c1.2,0.2,2.3,0.3,3.5,0.6c18.9,0.5,37,7.9,50.8,20.8
	l32,30l-32.1,44l-22-13.5v48.3h62.4V57.1h-58.2C387.2,57.2,383.8,56,381.1,53.9"/>
<polyline class="st3" points="386.2,259.4 354.4,259.4 361.2,281.9 386.2,281.9 386.2,259.4 "/>
<path class="st2" d="M353.3,144.3c-4.3,12.3-13.8,22.1-25.9,26.7l0.7,2.2h47.1c3.3,0,6-2.7,6-6c0-0.9-0.2-1.9-0.6-2.7
	C375.3,153.7,365.1,146.2,353.3,144.3 M357.7,129.9c15.8,3.2,29.2,13.5,36.3,28c5.1,10.3,0.9,22.9-9.4,28c-2.9,1.4-6.1,2.2-9.4,2.2
	h-42.5l21.7,71.2h31.8v-48.2l22.1,13.5l32.1-44l-32-30C394.6,137.7,376.6,130.3,357.7,129.9"/>
<path class="st6" d="M375.2,41.8H288l3.7,12.1H381C377.3,51,375.1,46.5,375.2,41.8L375.2,41.8"/>
<path class="st1" d="M355.7,117.7c17.5,25.4-19.7,77.9-44,77.9s-62.7-52.5-44-77.9C293.2,139,330.2,139,355.7,117.7"/>
<path class="st6" d="M319.5,173.2H304C309.1,174.1,314.4,174.1,319.5,173.2 M269.2,129.3c-1.2,0.2-2.3,0.3-3.5,0.6h1.9
	c0,4.9,0.9,9.8,2.5,14.4c2-0.3,3.9-0.5,5.9-0.5h0.3C273.1,139.4,270.7,134.5,269.2,129.3 M301,84.2c-11.4,5.9-15.9,19.9-10,31.3
	c0,0,0,0,0,0c1.6,3.1,3.9,5.8,6.7,8c1.9,1.4,3.5,3.3,4.5,5.4h-15.9c8.1,3.2,16.6,4.8,25.3,4.8c1.5,0,2.9,0,4.3-0.1l-5.8-19.1
	c-1.1-1.1-2.2-2.1-3.4-3c-3.6-2.7-4.4-7.8-1.7-11.5c0.2-0.2,0.3-0.4,0.5-0.6L301,84.2"/>
<path class="st6" d="M267.7,129.9h-1.9c-15.8,3.1-29.3,13.5-36.4,28c-5.1,10.4-0.8,23,9.6,28.1c2.9,1.4,6.1,2.2,9.3,2.2h84.4
	l-4.6-15h-8.6c-5.1,0.9-10.4,0.9-15.5,0h-55.7c-3.3,0-6-2.7-6-6c0-0.9,0.2-1.9,0.6-2.7c5.3-10.8,15.5-18.3,27.3-20.2
	C268.5,139.7,267.7,134.8,267.7,129.9"/>
<path class="st6" d="M354.2,129.3c-1.4,5.3-3.8,10.2-7.1,14.6h0.3c2,0,3.9,0.2,5.9,0.5c1.6-4.7,2.4-9.6,2.4-14.5h1.9
	C356.5,129.6,355.3,129.4,354.2,129.3 M310.2,114.5l5.8,19.1c7.2-0.4,14.3-2,21-4.6h-18.7C316.9,123.5,314.1,118.5,310.2,114.5
	 M311.7,81.6h-1.5c-3.2,0.2-6.4,1.1-9.3,2.6l4.6,15.1c1.4-1.6,3.4-2.6,5.6-2.7h0.5c4.6,0,8.3,3.7,8.3,8.3c0,0,0,0,0,0l0,0v4.3h15
	V105c0-6.4-2.7-12.5-7.3-16.9C323.4,83.9,317.6,81.6,311.7,81.6"/>
<path class="st6" d="M355.7,129.9c0,4.9-0.8,9.8-2.4,14.5c11.8,1.9,22,9.4,27.3,20.2c1.5,2.9,0.4,6.4-2.5,7.9
	c-0.1,0-0.1,0.1-0.2,0.1c-0.8,0.4-1.8,0.6-2.7,0.6H328l4.6,15h42.5c11.6,0,21-9.3,21.1-20.9c0-3.2-0.7-6.4-2.2-9.3
	c-7.1-14.5-20.5-24.9-36.4-28L355.7,129.9"/>
<path class="st7" d="M347.4,128.9H337c-6.7,2.7-13.8,4.2-21,4.7c-1.5,0.1-2.9,0.1-4.3,0.1c-8.7,0-17.2-1.6-25.3-4.8H276
	c-2.3,0-4.5,0.1-6.8,0.4c1.4,5.3,3.8,10.2,7.1,14.6h70.8c3.2-4.4,5.6-9.4,7.1-14.6C351.9,129,349.7,128.9,347.4,128.9"/>
<path class="st6" d="M394,154.9c-8.7-17.8-26.8-29.1-46.6-29h-29c-1.7-6.9-5.8-13.1-11.5-17.4c-3.7-2.7-4.5-7.8-1.8-11.5
	c2.7-3.7,7.8-4.5,11.5-1.8c2.1,1.6,3.4,4.1,3.4,6.7v4.2h15v-4.2c0-12.9-10.4-23.3-23.3-23.3c-12.9,0-23.3,10.4-23.3,23.3
	c0,7.4,3.5,14.3,9.4,18.7c1.9,1.4,3.5,3.3,4.5,5.4H276c-19.8-0.1-37.9,11.2-46.6,29c-5.1,10.4-0.9,23,9.5,28.1
	c2.9,1.4,6.1,2.2,9.3,2.2h126.9c11.6,0,21-9.4,21-21l0,0C396.2,161,395.5,157.8,394,154.9z M380.3,167.3c-1.1,1.8-3,2.9-5.1,2.8
	h-127c-3.3,0-6-2.7-6-6c0-0.9,0.2-1.9,0.6-2.7c6.2-12.7,19.1-20.7,33.2-20.6h71.4c14.1-0.1,27,7.9,33.2,20.6
	C381.5,163.3,381.4,165.5,380.3,167.3L380.3,167.3z"/>
<path class="st0" d="M355.7,117.7L355.7,117.7c0,24.3-19.7,44-44,44s-44-19.7-44-44l0,0l0,0c-19.6,0-38.4,7.4-52.7,20.8l-32,29.9
	l32.2,44l22-13.5v138.8h149V199l22,13.5l32.2-44l-32-29.9C394.1,125.2,375.3,117.8,355.7,117.7z"/>
<path class="st2" d="M320,101.9H164.5v-7.7h150.3c0.9,0.4,1.8,0.9,2.5,1.6C319,97.4,320,99.6,320,101.9z"/>
<path class="st2" d="M448.6,94.2v7.7H335c0-2.6-0.4-5.2-1.3-7.7H448.6z"/>
</svg>
