<?xml version="1.0" encoding="utf-8"?>
<!-- Generator: Adobe Illustrator 21.0.0, SVG Export Plug-In . SVG Version: 6.00 Build 0)  -->
<svg version="1.1" id="Layer_1" xmlns="http://www.w3.org/2000/svg" xmlns:xlink="http://www.w3.org/1999/xlink" x="0px" y="0px"
	 viewBox="0 0 1920 1175" style="enable-background:new 0 0 1920 1175;" xml:space="preserve">
<style type="text/css">
	.st0{clip-path:url(#SVGID_2_);}
	.st1{clip-path:url(#SVGID_4_);}
	.st2{clip-path:url(#SVGID_6_);fill:#FAFAFA;}
	.st3{clip-path:url(#SVGID_6_);fill:#0059A3;}
	.st4{opacity:0.79;clip-path:url(#SVGID_6_);}
	.st5{clip-path:url(#SVGID_8_);fill:#0059A3;}
</style>
<title>glow12</title>
<g>
	<g>
		<defs>
			<rect id="SVGID_1_" width="1920" height="1175"/>
		</defs>
		<clipPath id="SVGID_2_">
			<use xlink:href="#SVGID_1_"  style="overflow:visible;"/>
		</clipPath>
		<g class="st0">
			<defs>
				<rect id="SVGID_3_" width="1920" height="1175"/>
			</defs>
			<clipPath id="SVGID_4_">
				<use xlink:href="#SVGID_3_"  style="overflow:visible;"/>
			</clipPath>
			<g class="st1">
				<defs>
					<rect id="SVGID_5_" width="1920" height="1175"/>
				</defs>
				<clipPath id="SVGID_6_">
					<use xlink:href="#SVGID_5_"  style="overflow:visible;"/>
				</clipPath>
				<path class="st2" d="M1922.8,293.4V879H2.8v-50.2c136.1-197.9,364.1-327.6,622.4-327.6c112.8,0,219.8,24.7,315.9,69.1
					c6.3,2.9,12.5,5.9,18.7,9c1.8,0.9,3.5,1.7,5.2,2.6c96.1,44.3,203.1,69.1,315.8,69.1C1552,650.8,1789.7,507.9,1922.8,293.4"/>
				<rect x="2.8" class="st2" width="1920" height="1175"/>
				<path class="st3" d="M1922.8,2v349.6c-134.1,179.4-346.2,297.1-585.9,303c-6.3,0.2-12.7,0.2-19,0.2c-2,0-4,0-6,0
					c-1.5,0-2.9,0-4.4,0c-1.8,0-3.5-0.1-5.3-0.1c-3.5-0.1-6.9-0.2-10.4-0.3c-0.1,0-0.2,0-0.2,0c-1.7-0.1-3.4-0.1-5.1-0.2
					c-1.8-0.1-3.5-0.2-5.2-0.2c-3.5-0.2-7-0.4-10.4-0.6c-1.7-0.1-3.5-0.2-5.2-0.3c-3.5-0.2-6.9-0.5-10.4-0.8
					c-82.9-6.8-162-27-235.1-58.4c0.6,0.2,1.1,0.4,1.7,0.6c64.9,24.9,135.5,38.5,209.1,38.5c323.1,0,585-261.9,585-585
					c0-15.5-0.6-30.8-1.8-46H1922.8z"/>
				<g class="st4">
					<g>
						<defs>
							<rect id="SVGID_7_" x="2.8" y="349.8" width="1920" height="825.2"/>
						</defs>
						<clipPath id="SVGID_8_">
							<use xlink:href="#SVGID_7_"  style="overflow:visible;"/>
						</clipPath>
						<path class="st5" d="M1922.8,349.8V1175H2.8V879.7c11.7-16.8,24.1-33.2,37.2-49c136.1-197.8,364.1-327.6,622.4-327.6
							c112.8,0,219.8,24.7,315.9,69.1c6.2,3.1,12.4,6.2,18.7,9.1c1.8,0.8,3.5,1.6,5.3,2.4c6.5,3,13,5.9,19.7,8.7
							c68.1,29.1,141.3,48.4,217.9,56.3c5.1,0.5,10.3,1,15.5,1.4c3.4,0.3,6.9,0.5,10.4,0.8c1.7,0.1,3.5,0.2,5.2,0.3
							c3.5,0.2,7,0.4,10.4,0.6c1.7,0.1,3.5,0.2,5.2,0.2c1.7,0.1,3.4,0.1,5.1,0.2c0.1,0,0.2,0,0.2,0c3.5,0.1,6.9,0.2,10.4,0.3
							c1.8,0,3.5,0.1,5.3,0.1c1.5,0,2.9,0,4.4,0c2,0,4,0,6,0c6.4,0,12.7-0.1,19-0.2c9.5-0.2,18.9-0.6,28.3-1.2
							C1593.3,637.3,1794,522,1922.8,349.8"/>
					</g>
				</g>
			</g>
		</g>
	</g>
</g>
</svg>
