<svg id="Layer_1" data-name="Layer 1" xmlns="http://www.w3.org/2000/svg" viewBox="0 0 512 512"><defs><style>.cls-1{fill:#fff;}.cls-2{fill:#47525d;}.cls-3{fill:#3d474f;}.cls-4{fill:#0b71b7;}.cls-5{fill:#4398d1;}.cls-6{fill:#3e8cc7;}.cls-7{fill:#cfcfcf;}.cls-8{fill:#efce4a;}.cls-9{fill:#cfd8dc;}.cls-10{fill:#0d7dc9;}</style></defs><title>truchcard</title><circle class="cls-1" cx="256" cy="256" r="256"/><path class="cls-2" d="M43,406.73V189.61a10.27,10.27,0,0,1,10.27-10.27H369.91a14.67,14.67,0,0,1,13.94,10l33.3,100L468.5,326v80.69H43Z" transform="translate(0.23 -0.36)"/><rect class="cls-3" x="439.38" y="369.7" width="29.34" height="14.67"/><rect class="cls-3" x="43.28" y="369.7" width="44.01" height="14.67"/><rect class="cls-3" x="344.02" y="311.01" width="29.34" height="14.67"/><rect class="cls-4" x="182.65" y="369.7" width="139.37" height="14.67"/><rect class="cls-4" x="43.28" y="281.67" width="29.34" height="14.67"/><path class="cls-5" d="M336.46,223.35V274.7a14.67,14.67,0,0,0,14.67,14.67h66l-26.92-80.69h-39.1A14.67,14.67,0,0,0,336.46,223.35Z" transform="translate(0.23 -0.36)"/><path class="cls-6" d="M336.46,274.7a14.67,14.67,0,0,0,14.67,14.67h66l-18.7-56Z" transform="translate(0.23 -0.36)"/><circle class="cls-4" cx="131.3" cy="406.37" r="36.68"/><circle class="cls-4" cx="380.7" cy="406.37" r="36.68"/><circle class="cls-7" cx="131.3" cy="406.37" r="22.01"/><circle class="cls-7" cx="380.7" cy="406.37" r="22.01"/><path class="cls-8" d="M160.41,128a29.34,29.34,0,1,1,29.34-29.34A29.34,29.34,0,0,1,160.41,128Zm0-44a14.67,14.67,0,1,0,14.67,14.67A14.67,14.67,0,0,0,160.41,84Z" transform="translate(0.23 -0.36)"/><polygon class="cls-9" points="107.17 118.17 96.75 107.75 67.41 137.09 77.83 147.51 87.29 137.97 96.75 147.51 107.17 137.09 97.63 127.63 107.17 118.17"/><polygon class="cls-9" points="253.87 137.09 224.53 107.75 214.12 118.17 223.65 127.63 214.12 137.09 224.53 147.51 233.99 137.97 243.46 147.51 253.87 137.09"/><circle class="cls-4" cx="160.64" cy="208.32" r="88.02"/><path class="cls-4" d="M90.51,262a88,88,0,0,0,146.71-96.46Z" transform="translate(0.23 -0.36)"/><circle class="cls-8" cx="160.64" cy="208.32" r="14.67"/><rect class="cls-8" x="144.15" y="172.04" width="69.17" height="14.67" transform="matrix(0.53, -0.85, 0.85, 0.53, -67.86, 235.57)"/><rect class="cls-10" x="153.31" y="142.3" width="14.67" height="14.67"/><rect class="cls-10" x="153.31" y="259.67" width="14.67" height="14.67"/><rect class="cls-10" x="123.69" y="150.54" width="14.67" height="14.67" transform="translate(-61.14 86.26) rotate(-29.99)"/><rect class="cls-10" x="182.43" y="252.18" width="14.67" height="14.67" transform="translate(-104.08 129.23) rotate(-29.99)"/><rect class="cls-10" x="102.25" y="172.02" width="14.67" height="14.67" transform="translate(-100.3 184.27) rotate(-60.01)"/><rect class="cls-10" x="203.9" y="230.65" width="14.67" height="14.67" transform="translate(-100.24 301.63) rotate(-60.01)"/><rect class="cls-10" x="94.62" y="200.98" width="14.67" height="14.67"/><rect class="cls-10" x="211.99" y="200.98" width="14.67" height="14.67"/><rect class="cls-10" x="102.27" y="230.7" width="14.67" height="14.67" transform="translate(-104.08 86.29) rotate(-29.99)"/><rect class="cls-10" x="203.88" y="171.99" width="14.67" height="14.67" transform="translate(-61.13 129.21) rotate(-29.99)"/><rect class="cls-10" x="123.75" y="252.14" width="14.67" height="14.67" transform="translate(-158.95 242.96) rotate(-60.01)"/><rect class="cls-1" x="123.96" y="399.04" width="14.67" height="14.67" rx="7.34" ry="7.34"/><rect class="cls-1" x="373.36" y="399.04" width="14.67" height="14.67" rx="7.34" ry="7.34"/></svg>