<svg xmlns="http://www.w3.org/2000/svg" viewBox="0 0 425.91 366.81">
  <defs>
    <style>
      .cls-48{fill:none;stroke-miterlimit:10}.cls-3{fill:#f2d27d}.cls-4{fill:#272425}.cls-6{fill:#efc9a2}.cls-7{fill:#9dc44d}.cls-8{fill:#4c8556}.cls-9{fill:#c49d75}.cls-10{fill:#a78566}.cls-13{fill:#f4eadf}.cls-16{mix-blend-mode:multiply}.cls-17{fill:#cfd1d2}.cls-20{fill:#90bf4f}.cls-25{fill:#e5e5e6}.cls-26{fill:#babcbe}.cls-27{fill:#919395}.cls-28{fill:#9e9e9e}.cls-29{fill:#d4d4d5}.cls-35{fill:#59595b}.cls-38{fill:#434244}.cls-39{fill:#6d6e70}.cls-47{fill:#90cbe0}.cls-48{stroke:#ca1e49;stroke-width:1.7px}.cls-52{fill:#f2d031}
    </style>
  </defs>
  <g style="isolation:isolate">
    <g id="OBJECTS">
      <path d="M283.57 46.47c67 21.91 124.3 73.74 124.3 131.09 0 77.71-85.74 140.7-191.52 140.7S24.84 255.27 24.84 177.57c0-67.9 65.46-124.56 152.55-137.78" stroke="#f2d27d" stroke-width="5.83" fill="none" stroke-miterlimit="10"/>
      <path class="cls-3" d="M292.24 112.72c9.32 7.78 20.24 19.28 25.95 29.4l-.19-20.27 12.85-15.67c-10.76 4.27-26.47 6.36-38.61 6.54z" transform="translate(-30.22 -75.33)"/>
      <path class="cls-4" d="M230.7 242.27s-10.5 4.52-8.1 9.31 19.15.8 22.35-1.6l.8-8.78s-8.35-3.31-15.05 1.07zm29.01 2.67s-9.16 4.52-6 8.8 19.82.92 22.54-2l-1.05-10.51s-9.67-1.78-15.49 3.71z" transform="translate(-30.22 -75.33)"/>
      <path d="M276.09 182.5s-1.79 25.17-1.79 28.76 1.7 30.54 1.7 30.54-8.24 2.53-15.85 2c0 0-2.76-22.69-4.08-27.71s-1-7.77-1.88-15.8l-5 13.38-2.29 30s-10.2 1.76-16.64-3.25l1.84-30.24 5.76-32.09z" transform="translate(-30.22 -75.33)" fill="#98a9bb"/>
      <path class="cls-6" d="M219.65 167a40.51 40.51 0 0 0-6.18 4.56c-1.87 1.93-3.72 4-1.13 3.91a4.08 4.08 0 0 0 2.56-1s-3 5.21-4.31 6.26-.75 2.53 1.6 2.78 7.4-.39 10.61-3.84a20.37 20.37 0 0 0 4.24-6.42s-2.79-7.19-7.39-6.25z" transform="translate(-30.22 -75.33)"/>
      <path class="cls-7" d="M216.53 167.44s5 6.43 10 7.46c0 0 2.76-2.9 6.34-6.45S246 150 246 150l4-4.1s3.81-7.89 3.86-13-.49-6.72-.49-6.72-10.38-6.44-18.14 11.22c0 0-2.16 4.9-3.47 7.18-.62 1.08-2.21 4.48-3.29 6.13-.55.86-11.94 16.73-11.94 16.73z" transform="translate(-30.22 -75.33)"/>
      <path class="cls-8" d="M275.56 184.46l2.27-7.49s6.1-20 6.8-26.62-4.83-16-4.83-16-3-3.47-9.76-6.15c-11.66-4.62-20.69-3.73-20.69-3.73s-11.78 6.22-12.45 32.66c-.06 2.46.94 23.29.94 23.29s26.16 6.4 37.72 4.04z" transform="translate(-30.22 -75.33)"/>
      <path class="cls-9" d="M196.82 144.93l-36-20.34V89.97l36 20.34v34.62z"/>
      <path class="cls-10" d="M196.82 144.93l27.06-16.32V93.99l-27.06 16.32v34.62z"/>
      <path fill="#eac6a2" d="M196.82 110.31l27.06-16.32-36.63-20.95-26.43 16.93 36 20.34z"/>
      <path fill="#d8cfc5" d="M183.29 137.29l-10.07-5.69V96.98l10.07 5.67v34.64z"/>
      <path class="cls-13" d="M183.29 102.67l-10.07-5.69 26.7-16.62L210 86.03l-26.71 16.64zm-13.68 21.76l-6.63-3.74v-6.38l6.63 3.75v6.37z"/>
      <ellipse cx="231.13" cy="52.39" rx="7.83" ry="6.45" fill="#e8b281"/>
      <ellipse class="cls-6" cx="231.66" cy="35.24" rx="19.5" ry="21.22"/>
      <path d="M273 106.11s7.71.61 8.22 6.92c0 0 1.51-10.58.22-17.64s-18-9.78-26.48-7.22-10.83 13.6-10.83 13.6 11.74 15.54 28.87 4.34z" transform="translate(-30.22 -75.33)" fill="#4e2b07"/>
      <path class="cls-7" d="M241.49 96s16.05-3.07 25.22 10.12c0 0-7 11.73-13.56 7.7s-11.37-5.82-15.4-5.82-11-1.1-5.5-5.13 9.24-6.87 9.24-6.87z" transform="translate(-30.22 -75.33)"/>
      <path class="cls-8" d="M241.49 96a31.64 31.64 0 0 1-1.18-9.67c.37-4.4 8.07-11.36 21.63-11s17.6 9.53 17.6 9.53l2.37 11.43c-3.9 5.69-15.2 9.83-15.2 9.83S259.52 94.73 241.49 96z" transform="translate(-30.22 -75.33)"/>
      <path class="cls-6" d="M249.67 188.18a45 45 0 0 0-6.23 5.71c-1.82 2.34-3.56 3.73-.78 4.41a3.79 3.79 0 0 0 2.71-.45s-2.71 5.12-4 6.42-.52 2.85 2.08 2.85 8.06-1.3 11.17-5.45a22.46 22.46 0 0 0 3.89-7.53s-3.91-7.52-8.84-5.96z" transform="translate(-30.22 -75.33)"/>
      <path class="cls-7" d="M246.47 188.54s6.18 6.45 11.83 7c0 0 2.69-3.49 6.18-7.79s13.68-21.86 13.68-21.86 5-13.87 4.68-19.53a10.55 10.55 0 0 0-5.24-8.88s-11.49-1.58-15.66 16.15c0 0-.77 4.94-1 8.05a18 18 0 0 1-1.88 7c-.51.96-12.59 19.86-12.59 19.86z" transform="translate(-30.22 -75.33)"/>
      <g class="cls-16">
        <path class="cls-17" d="M49.65 189.07c-1.68.93-1.72 2.51-.08 3.52l48.58 30a6.61 6.61 0 0 0 6 .14l68.11-37.66c1.68-.93 1.72-2.51.08-3.52l-48.58-30a6.61 6.61 0 0 0-6-.14z" transform="translate(-30.22 -75.33)"/>
      </g>
      <path class="cls-10" d="M72.07 83.41L24.86 54.92l63.92-36.54 46.1 29.52-62.81 35.51z"/>
      <path class="cls-9" d="M88.78 18.38v94.47l-63.92 2.48V54.92l63.92-36.54z"/>
      <path fill="#83b04a" d="M73.44 128.84l53.23-30.08V47.57L73.44 77.66v51.18z"/>
      <path fill="#71953d" d="M73.44 128.84l-40-24.13V53.52l40 24.14v51.18z"/>
      <path class="cls-20" d="M73.44 77.66l-40-24.14L87.6 22.55l39.07 25.02-53.23 30.09z"/>
      <path fill="#b2b936" d="M93.45 117.54l14.89-8.42V57.94l-14.89 8.38v51.22z"/>
      <path fill="#d7de4f" d="M93.45 66.35l14.89-8.41-39.48-24.57-14.9 8.38 39.49 24.6z"/>
      <path class="cls-9" d="M72.07 143.81l62.81-35.5V47.9L72.07 83.41v60.4z"/>
      <path class="cls-13" d="M119.55 108.03l11.57-6.53V90.38l-11.57 6.53v11.12z"/>
      <path d="M72.07 83.41l13.76 27.66 63.58-34.73-14.53-28.44-62.81 35.51zM5.91 54.19l18.95.73 63.92-36.54-20.06.31-62.81 35.5z" fill="#deb78e"/>
      <path class="cls-10" d="M72.07 143.81l-47.21-28.48V54.92l47.21 28.49v60.4z"/>
      <path d="M72.07 83.41l-20.12 22.43-47.2-27.71 20.11-23.21 47.21 28.49zm80.15-28.56l-17.34-6.95-46.1-29.52 17.34 6.17 46.1 30.3z" fill="#d9ad86"/>
      <g class="cls-16">
        <path class="cls-25" d="M445.7 215.78a1.53 1.53 0 0 1 0 2.88l-19.13 11.17a5.26 5.26 0 0 1-4.85 0l-88.86-53.48a1.53 1.53 0 0 1 0-2.88l19.14-11.2a5.26 5.26 0 0 1 4.85 0z" transform="translate(-30.22 -75.33)"/>
      </g>
      <path class="cls-26" d="M332.32 116.83l35.66 22.38.1-3.26-35.76-22.37v3.25z"/>
      <path class="cls-27" d="M332.32 113.58l35.76 22.37 18.83-12.48-35.4-20.92-19.19 11.03z"/>
      <path class="cls-28" d="M367.98 139.21l18.93-12.79v-2.95l-18.83 12.48-.1 3.26z"/>
      <path class="cls-29" d="M347.62 114.41l23.36 13.78.09-24.57-23.37-13.78-.08 24.57z"/>
      <path fill="#36404f" d="M347.7 89.84l23.37 13.78 4.61-2.24-23.37-13.78-4.61 2.24z"/>
      <path class="cls-26" d="M370.98 128.19l4.6-3.23.1-23.58-4.61 2.24-.09 24.57z"/>
      <path class="cls-4" d="M310.46 74.22l107.45 63.14v-69.8L310.46 4.42v69.8z"/>
      <path fill="#80c6e5" d="M314.12 59.62l100.41 59.34v-48.4L314.12 11.22v48.4z"/>
      <path class="cls-25" d="M310.46 4.42l107.45 63.14 8-3.89L318.46.52l-8 3.9z"/>
      <path class="cls-26" d="M417.91 137.36l8-5.61V63.67l-8 3.89v69.8z"/>
      <path class="cls-25" d="M310.46 74.22l107.45 63.14v-10.95L310.46 63.26v10.96z"/>
      <path style="mix-blend-mode:multiply" opacity=".4" fill="#80c6e5" d="M314.12 59.62l100.41 10.94v48.4L314.12 59.62z"/>
      <path d="M406.3 146.27a.86.86 0 0 0 .86-.74l2-11.39a1.16 1.16 0 0 0-.21-.87 1.12 1.12 0 0 0-.76-.46l-21.68-2.68-1.14-4a1.17 1.17 0 0 0-.95-.84l-4.07-.5a.88.88 0 0 0-1 .91 1.18 1.18 0 0 0 1 1.16l3.34.41 4.8 16.65a1 1 0 0 0-.06.16l-.81 2.66a1.18 1.18 0 0 0 0 .23 3 3 0 0 0 .65 1.91 3.46 3.46 0 0 0 2.37 1.21c2.14.27 15.25 1.18 15.81 1.21a.88.88 0 0 0 .94-1 1.18 1.18 0 0 0-1-1.11c-.13 0-13.62-.94-15.71-1.2-.44-.06-1-.21-1-.61l.39-1.26zm-6.21-6.66v4.55h-5.24V139zm-5.24-1.82v-4.56l5.24.65v4.56zm6.36 6.37v-4.41l4.8.6-.67 3.84zm5-5l-5-.62V134l5.78.71zm-12.47-6.11v4.56l-5.26-.65-1.36-4.73zm-4.91 5.13l4.91.61v5.29h-3.21zm3.23 15.64a2.2 2.2 0 0 1-2.49 2.29 3 3 0 0 1-2.49-2.91 2.2 2.2 0 0 1 2.49-2.29 3 3 0 0 1 2.49 2.91zm14.28 1.77a2.2 2.2 0 0 1-2.49 2.29 3 3 0 0 1-2.49-2.91 2.2 2.2 0 0 1 2.49-2.29 3 3 0 0 1 2.49 2.91z" transform="translate(-30.22 -75.33)" fill="#fff"/>
      <path d="M422.39 168.14v-2.22a19.22 19.22 0 0 1-4-3.37l.7-2.32a17 17 0 0 0 3.88 3.34c1.33.79 2.24.82 2.24-.11s-.75-1.89-2.48-3.51c-2.5-2.33-4.2-4.51-4.2-6.78 0-2.06 1.45-2.81 3.95-1.81v-2.22l2.29 1.36v2.06a16.88 16.88 0 0 1 3.39 2.79l-.68 2.24a15.73 15.73 0 0 0-3.37-2.8c-1.52-.9-2-.54-2 .11s.82 1.75 2.8 3.68c2.78 2.64 3.9 4.59 3.9 6.69s-1.47 3-4.16 1.85v2.38zm-58.98-35.3v-2.22a19.24 19.24 0 0 1-4-3.37l.7-2.32a17 17 0 0 0 3.88 3.34c1.33.79 2.24.82 2.24-.11s-.75-1.89-2.47-3.51c-2.5-2.33-4.21-4.51-4.21-6.78 0-2.06 1.45-2.81 3.95-1.81v-2.22l2.29 1.36v2.06a16.84 16.84 0 0 1 3.41 2.74l-.68 2.24a15.74 15.74 0 0 0-3.37-2.8c-1.52-.9-2-.54-2 .11s.82 1.75 2.8 3.68c2.78 2.64 3.9 4.59 3.9 6.69s-1.47 3-4.16 1.85v2.38z" transform="translate(-30.22 -75.33)" fill="#f6e29e"/>
      <g class="cls-16">
        <path class="cls-17" d="M160.06 440.27c-4.4 2.52-11.57 2.48-15.94-.1L33.39 374.78c-4.37-2.58-4.21-6.5.35-8.72l55-26.72c4.56-2.22 11.78-1.77 16 1l100.1 64.77c4.26 2.76 4.14 7.07-.26 9.6z" transform="translate(-30.22 -75.33)"/>
      </g>
      <path class="cls-35" d="M8.25 290.05l115.5 67.81-.85-14.12-112.25-65.91-2.4 12.22z"/>
      <path class="cls-8" d="M123.04 352.46l-.28-13.44 17.86-2.34 27.39-17.56 4.66-6.71 1.73 15.52-8.4 10.14-20.35 11.95-22.61 2.44z"/>
      <path class="cls-4" d="M186.62 364.16a.52.52 0 0 0 .64.53l3.48-.62a.8.8 0 0 0 .64-.76v-9.54a.52.52 0 0 0-.64-.53l-3.48.63a.81.81 0 0 0-.64.76z" transform="translate(-30.22 -75.33)"/>
      <path class="cls-4" d="M182.87 363.3c0 .28.25.44.59.34l3.6-1a.9.9 0 0 0 .66-.69c0-.28-.25-.44-.59-.34l-3.6 1a.89.89 0 0 0-.66.69z" transform="translate(-30.22 -75.33)"/>
      <path fill="#dadbdc" d="M173.36 311.43l-5.34 8.62-27.4 16.63-17.86 2.34-36.52-75.74 37.45-21.22 49.67 69.37z"/>
      <path fill="#f0f1f1" d="M123.69 242.06l-37.45 21.22-71.81-45.18 36.68-19.74 72.58 43.7z"/>
      <path class="cls-4" d="M127.62 415.92c1.63 5.63 7.35 17.3 11.49 17.42 8-2.07 9.21-6.45 7.54-12.13s-6.37-10.3-10.5-10.35-8.45 3.44-8.53 5.06z" transform="translate(-30.22 -75.33)"/>
      <path class="cls-38" d="M127.35 423.08c1.63 5.63 6.3 10.29 10.44 10.4s6.19-4.42 4.52-10.1S136 413.09 131.82 413s-6.09 4.47-4.47 10.08z" transform="translate(-30.22 -75.33)"/>
      <path class="cls-27" d="M130.2 422.71c1 3.49 3.87 6.66 6.51 6.93s4-2.65 2.71-6.41c-1.22-3.57-4.21-6.39-6.66-6.42s-3.5 2.56-2.56 5.9z" transform="translate(-30.22 -75.33)"/>
      <path class="cls-39" d="M131.47 417.14c-.77 1.06-.39 2.56.18 4.6 1 3.49 3.29 6.89 5.93 7.17a2.79 2.79 0 0 0 1.61-.3 2.58 2.58 0 0 1-2.48 1c-2.64-.28-5.53-3.44-6.51-6.93-.75-2.62-.2-4.77 1.27-5.54z" transform="translate(-30.22 -75.33)"/>
      <path class="cls-29" d="M139.42 423.23c-1.22-3.57-4.21-6.39-6.66-6.42s-3.5 2.55-2.56 5.89 3.87 6.66 6.51 6.93 3.97-2.63 2.71-6.4zm-8.12-.62a5.77 5.77 0 0 1-.14-2.82l2.82 3.3-2.55-.08c-.04-.13-.09-.26-.13-.4zm5-2.59a10.51 10.51 0 0 1 2 3.2l-3-.09zm-1.43 2.12l-1.06-3.88a5.31 5.31 0 0 1 2 1.23zm-1.76-4l1.21 4.39-2.91-3.4a1.76 1.76 0 0 1 1.69-.99zm-1.46 5.52l2.67.08-1 2.79a10.82 10.82 0 0 1-1.67-2.87zm2.23 3.43l.94-2.73 1.13 4.12a5.72 5.72 0 0 1-2.07-1.39zm2.76 1.55l-1-3.57 2.58 3a1.81 1.81 0 0 1-1.58.57zm1.95-1.11l-3.21-3.76 3.12.1a5.43 5.43 0 0 1 .09 3.66z" transform="translate(-30.22 -75.33)"/>
      <path class="cls-4" d="M51.35 371.91c1.63 5.63 7.35 17.3 11.49 17.42 8-2.07 9.21-6.45 7.54-12.13s-6.38-10.3-10.5-10.36-8.45 3.45-8.53 5.07z" transform="translate(-30.22 -75.33)"/>
      <path class="cls-38" d="M51.09 379.07c1.63 5.63 6.3 10.29 10.44 10.41s6.19-4.42 4.52-10.1-6.36-10.3-10.5-10.35-6.09 4.43-4.46 10.04z" transform="translate(-30.22 -75.33)"/>
      <path class="cls-27" d="M53.93 378.7c1 3.49 3.87 6.66 6.51 6.94s4-2.66 2.71-6.41c-1.22-3.57-4.21-6.39-6.66-6.42s-3.49 2.54-2.56 5.89z" transform="translate(-30.22 -75.33)"/>
      <path class="cls-39" d="M55.2 373.13c-.77 1.06-.39 2.56.18 4.6 1 3.49 3.29 6.89 5.93 7.17a2.74 2.74 0 0 0 1.61-.3 2.6 2.6 0 0 1-2.48 1c-2.64-.28-5.53-3.45-6.51-6.94-.75-2.61-.17-4.76 1.27-5.53z" transform="translate(-30.22 -75.33)"/>
      <path class="cls-29" d="M63.15 379.22c-1.22-3.57-4.21-6.39-6.66-6.42s-3.5 2.55-2.56 5.89 3.87 6.66 6.51 6.94 3.97-2.63 2.71-6.41zM55 378.6a5.73 5.73 0 0 1-.14-2.82l2.82 3.3-2.52-.08c-.04-.13-.09-.26-.16-.4zm5-2.6a10.43 10.43 0 0 1 2 3.2l-3-.09zm-1.43 2.12l-1.06-3.88a5.34 5.34 0 0 1 2 1.23zm-1.76-4l1.19 4.4-2.91-3.4a1.76 1.76 0 0 1 1.75-.99zm-1.46 5.53l2.67.08-1 2.79a10.77 10.77 0 0 1-1.64-2.87zm2.23 3.43l.94-2.73 1.14 4.11a5.71 5.71 0 0 1-2.05-1.38zm2.76 1.54l-1-3.56 2.58 3a1.8 1.8 0 0 1-1.55.57zm1.95-1.1l-3.21-3.76 3.12.1a5.45 5.45 0 0 1 .12 3.67z" transform="translate(-30.22 -75.33)"/>
      <path d="M172.67 312.41l-4.66 6.71.16 10.63 5.33-9.12-.83-8.22zm-32.05 24.27l4.18 6.18-16.91 2.28-3.29-6.36 16.02-2.1z" fill="#f9ecbb"/>
      <path class="cls-38" d="M123.04 348.93l20.86-3.22.9-2.85-2.18-3.23 14.91-7.22 10.56-7.61.08 4.95 1.52-.95 5.32-7.98-4.73 8.98-5.39 5.59L144.16 347l-21.12 1.93z"/>
      <path class="cls-25" d="M44.65 293.43l71.81 45.18L153 414.35l.55 19-8.11-4.79a24.1 24.1 0 0 0-2-8c-3.2-7.47-9.07-12.06-13.16-10.51-2.37.9-3.66 3.72-3.77 7.36l-57.81-34.2a25 25 0 0 0-1.83-6.58c-3.2-7.47-9.07-12.06-13.16-10.5-2.07.79-3.33 3-3.69 6L38.1 365z" transform="translate(-30.22 -75.33)"/>
      <path class="cls-26" transform="rotate(-59.07 20.552 285.859)" d="M101.67 276.29h.95v41.15h-.95z"/>
      <path class="cls-26" transform="rotate(-59.07 14.14 291.458)" d="M95.27 281.89h.95v41.15h-.95z"/>
      <path class="cls-26" transform="rotate(-59.07 5.946 295.548)" d="M87.07 285.98h.95v41.15h-.95z"/>
      <path class="cls-20" d="M153 414.35l.28 9.61.27 9.38-8.11-4.79a24.1 24.1 0 0 0-2-8c-3.2-7.47-9.07-12.06-13.16-10.51-2.37.9-3.66 3.72-3.77 7.36L68.7 383.2a25 25 0 0 0-1.83-6.58c-3.2-7.47-9.07-12.06-13.16-10.5-2.07.79-3.33 3-3.69 6L38.1 365l1.69-18.48 112.15 65.61z" transform="translate(-30.22 -75.33)"/>
      <path class="cls-38" d="M108.13 321.96l-11.78-29.64-15.6-9.2-1.12 20.43 28.5 18.41z"/>
      <path class="cls-35" d="M132.52 365.55l14.3 28.45s21.17-7 26.3-10 15.58-14.23 15.58-14.23l-18.75-25.48z" transform="translate(-30.22 -75.33)"/>
      <path class="cls-4" d="M128.47 397.3a.53.53 0 0 0 .64.54l3.48-.63a.81.81 0 0 0 .64-.76v-9.54a.52.52 0 0 0-.64-.54l-3.48.63a.8.8 0 0 0-.64.76z" transform="translate(-30.22 -75.33)"/>
      <path class="cls-28" d="M112.32 384.81a.19.19 0 0 0 .29-.1l.47-1.22a.3.3 0 0 0-.12-.35l-3-1.83a.19.19 0 0 0-.29.1l-.47 1.21a.29.29 0 0 0 .12.35z" transform="translate(-30.22 -75.33)"/>
      <path class="cls-4" d="M132 395.44c0 .28.25.43.59.34l3.61-1a.89.89 0 0 0 .65-.69c0-.28-.25-.44-.59-.34l-3.61 1a.9.9 0 0 0-.65.69z" transform="translate(-30.22 -75.33)"/>
      <path class="cls-38" d="M188.7 369.75s-10.45 11.19-15.58 14.25-26.3 10-26.3 10l23.12-49.72z" transform="translate(-30.22 -75.33)"/>
      <path class="cls-35" d="M204.87 396.92l-.59 14.5-6.08 6.9-22.42 12.87-22.25 2.14s-8.21-4.52-8.11-4.79-.61-6.93-.61-6.93l8.45 2.66 21.12-1.93 20.73-11.61 5.4-5.59z" transform="translate(-30.22 -75.33)"/>
      <path fill="#ebb941" d="M124.6 338.78l-1.84.24.2 6.88 4.93-.76-3.29-6.36z"/>
      <text transform="matrix(.77 .45 -.5 .87 14.73 261.97)" font-size="15.51" font-family="OpenSans-ExtraboldItalic,OpenSans ExtraboldItalic" font-weight="700" font-style="italic" fill="#90bf4f">
        DELIVE<tspan x="45.27" y="0" letter-spacing="-.01em">R</tspan><tspan x="53.45" y="0">Y</tspan>
      </text>
      <path class="cls-8" d="M14.71 265.36l51.59 29.31-4.89.91-46.7-30.22z"/>
      <circle class="cls-3" cx="177.39" cy="39.79" r="6.8"/>
      <ellipse cx="366.99" cy="340.49" rx="48.16" ry="9.07" style="mix-blend-mode:multiply" fill="#cfd1d2"/>
      <circle cx="358.02" cy="288.43" r="56.73" fill="#cddd90"/>
      <circle cx="358.02" cy="288.43" r="50.32" fill="#4275bb"/>
      <path class="cls-47" d="M386.33 325.5c-.05 0 0-.05-.14-.07h-.15c-.1 0-.24 0-.24-.12a.42.42 0 0 1 .05-.19s.22-.12.31-.05l.09.07a.53.53 0 0 0 .31.16c.05 0 .31.07.43 0s.29-.05.36-.09.47-.16.22-.26a1.56 1.56 0 0 1-.33-.17s-.17 0-.1-.1 0-.1.13-.19.14-.22.29-.22.33-.24.45-.36.36-.14.41-.17a.87.87 0 0 0 .14-.17v-.31l-.21-.12-.21-.22s-.09-.07.12-.07a1.73 1.73 0 0 0 .43-.07.34.34 0 0 0 0-.12.94.94 0 0 0-.07-.21l-.24-.15s.05-.05-.14-.05h-.19a1.3 1.3 0 0 1-.31-.05s0-.14.05-.16l.21-.04a.77.77 0 0 0 .16-.1.13.13 0 0 1 .07-.15l.1-.07s.24-.33 0-.38a2.6 2.6 0 0 0-.53-.09h-.31c-.12 0 0 0-.21.07a3 3 0 0 1-.46.05c-.08 0 0-.05-.2 0a1.82 1.82 0 0 1-.39.05s-.24.05-.05-.09a1.41 1.41 0 0 1 .28-.19.61.61 0 0 1 .28-.05 1.41 1.41 0 0 0 .28 0 2 2 0 0 0 .31 0c.12 0 .26-.09.19-.16a.76.76 0 0 0-.33-.17h-.24a.35.35 0 0 0-.22 0c-.14.05-.21 0-.31.09s-.1 0-.28.09a.57.57 0 0 1-.34.08 2 2 0 0 1-.48-.08 1.17 1.17 0 0 0-.33-.19c-.14 0 .09-.05-.34-.05a6.9 6.9 0 0 1-.72 0 2.3 2.3 0 0 0-.59-.19c-.17 0-.39-.07-.45 0s-.22.11-.34.16a2.11 2.11 0 0 1-.33.07l-.45.12c-.21 0-1.09.15-1.41.17a3.15 3.15 0 0 1-.53 0s.14-.11-.09-.16h-.23l-.07.12-.16.11s-.14.09-.14 0v-.09a.2.2 0 0 0-.25-.09c-.16.07-.18 0-.35.12s-.23.07-.39.14a2.63 2.63 0 0 1-.64.07 3 3 0 0 1-1.33.12c-.39-.16-.46-.16-.57 0a1.91 1.91 0 0 1-.28.23.86.86 0 0 1-.48.16.78.78 0 0 1-.39 0l-.37-.07c-.16 0-.16-.07-.35 0s-.18.21-.25.3-.27.09-.37.18 0 .14-.21.23a1.59 1.59 0 0 1-.48.09s-1.05.32-1.49.44-.53.12-.62.23-.12.09-.32.18a2.93 2.93 0 0 0-.62.27c-.23.16.07 0-.23.16s-.55.14-.62.21a4.55 4.55 0 0 1-.46.3.39.39 0 0 0 .25.14c.14 0 .22-.06.27 0s.12.21.21.22a1.83 1.83 0 0 0 .32 0c.11 0 .09 0 .22-.07s.14-.12.26-.14a3.12 3.12 0 0 1 .46-.07 2.24 2.24 0 0 1 .46.1l.05.05.33-.05c.12 0 .12-.05.22-.05h.36c.17 0 .76.05.76.12s.17.19.29.22 0-.14.12 0 0 .24.15.31.12-.05.16.07a.83.83 0 0 1 0 .26.56.56 0 0 0 .11.21l.24.16h.21a1.69 1.69 0 0 1 .31 0c.07 0 .4 0 .38.1s-.07.17-.16.17h-.33a.69.69 0 0 0-.29 0c-.07 0 0 .07-.12.14s.1 0-.07.07-.1-.17-.17.05-.14.31-.05.34a1.87 1.87 0 0 0 .27.07.47.47 0 0 0 .22 0c.07 0 .07-.07.17-.09a1.57 1.57 0 0 0 .24-.1l.22-.05a1 1 0 0 1 .19 0c.1 0 .28 0 .28.07s0 .1-.1.16-.12 0-.24.09-.36.12-.43.16a2.09 2.09 0 0 0-.26.17c-.07.05-.09-.1-.24.09s-.33.31-.33.38a.81.81 0 0 1-.05.21.5.5 0 0 0 0 .24c0 .17.22.17.28.33s-.05.19 0 .33.14.1.17.28.43.59.43.64a.76.76 0 0 0 .22.41c.14.1.24 0 .36.21s.16.19.28.19.11-.09.28 0a4.69 4.69 0 0 0 1.14.19 2.23 2.23 0 0 1 .41.07 1.68 1.68 0 0 1 .4 0c.19.05.21.12.34.05a.74.74 0 0 0 .38-.38c.07-.19-.1-.19 0-.38s.07-.21.19-.41.07-.21.19-.29.17-.21.29-.28a.89.89 0 0 0 .24-.15c.12-.1.19 0 .19-.26s0-.38.16-.41l.21-.05s.57-.07.69-.1 1.36-.43 1.48-.52a5.19 5.19 0 0 1 .41-.36c.22-.16.22-.33.41-.35a.54.54 0 0 0 .36-.14c0-.05-.05-.14.17-.19l.45-.08a1.73 1.73 0 0 0 .33.08 1.52 1.52 0 0 0 .67 0 9.58 9.58 0 0 0 1.36-.38c.19-.1.22-.14.36-.14a.61.61 0 0 0 .38-.12c.13-.18.19-.24.14-.28zm4.36 2.34a2.4 2.4 0 0 1 .43-.08c.28-.05 0-.09-.1-.21s0 0-.07 0-.21-.07-.22-.16-.15-.05-.38-.19 0 0 0-.1-.14-.1-.21-.1-.6 0-.65.05-.05.14-.05.14l-.26.14h-.5c-.19 0-.12 0-.19.05a2.05 2.05 0 0 1-.48 0 .9.9 0 0 1-.46-.14 2.63 2.63 0 0 0-.31-.05c-.05 0-.17-.19-.27-.21s-.3.12-.48.16a1.43 1.43 0 0 0-.29.14.5.5 0 0 0 .33.14 1.58 1.58 0 0 1 .38.05c.24.05 0 0 .14.09s.05.08 0 .17 0 0-.19 0-.16 0-.24.07 0 .08.12.19 0 0 .28.1.05.12.05.12l.41.21a2 2 0 0 0 .47.05c.24 0 .29.05.62.07a1.23 1.23 0 0 0 .53 0 1.1 1.1 0 0 0 .28-.14c.1-.05.52-.21.81-.31s.27-.18.5-.25zm-29.24 2.82h-.14a.79.79 0 0 1-.24.17 1 1 0 0 0-.28.19v.17a1 1 0 0 0 .24-.09.88.88 0 0 1 .26-.08c.12 0 .15 0 .21-.05s.15-.05.17-.1a.08.08 0 0 0 0-.09v-.1zm5.55 6.23a.38.38 0 0 0 .28-.12c.09-.07-.09-.16-.09-.16l-.5-.05-.28-.05h-.24a.69.69 0 0 0-.29 0c-.17 0 0 0 0 .1s.24.17.24.17l.11.1c-.12.05.46 0 .65 0s-.02.01.12.01zm-7-2.49a1.06 1.06 0 0 0 .46-.1c.22-.1 0 0-.07-.09s-.19 0-.29 0a.71.71 0 0 0-.21 0h-.19c-.05 0-.08 0-.15-.05a3.09 3.09 0 0 0-.45 0c-.19 0 .24.17.24.17a1.79 1.79 0 0 0 .22.14.93.93 0 0 0 .36-.07c.18-.07.08 0 .08 0zm9.83 1.75c0-.17 0 0 .08-.1a.19.19 0 0 0 0-.28c-.07-.09-.1 0-.17 0l-.22.12a1 1 0 0 0-.29.31c-.19.26-.17.21-.28.28s-.09.17-.31.39a2 2 0 0 0-.24.26s-.26.19-.24.29l.1.22a1.38 1.38 0 0 0 .4 0 2.68 2.68 0 0 1 .52-.07.49.49 0 0 1 .26.09 2 2 0 0 0 .34.15 2.92 2.92 0 0 0 .43-.17c.09 0 .1-.22.17-.35s.24-.07.39-.14.12-.05.17-.24-.19 0-.24-.12 0-.17-.05-.24-.16 0-.26 0a.43.43 0 0 1-.29-.07c-.09-.07 0 0 0-.14s-.14 0-.29-.07-.01.05.02-.12zm1.29 1.93c.09-.05.11 0 .15-.05s0-.1 0-.26v-.12c0-.12-.1 0-.17-.07a.5.5 0 0 0-.15-.05c-.07 0-.09 0-.19.14s0 0 0 .05-.14.16-.14.21a2.08 2.08 0 0 0 .14.33.36.36 0 0 0 .29-.12c.09-.14-.05-.01.07-.06zm-12.85 17.58a.74.74 0 0 0 .41-.26c.09-.14-.1-.17-.1-.17l-.33-.26a3.88 3.88 0 0 1-.39-.17 2 2 0 0 1-.31-.24 1.2 1.2 0 0 1-.43-.48c-.19-.34-.19-.09-.26-.14a9.31 9.31 0 0 1-1.12-.52c-.05-.1-.19-.09-.29-.16s-.26.12-.33.12-.21.17-.26.21-.05.14-.15.22a1.56 1.56 0 0 1-.33.22c-.14.07.16.24.16.24l.19-.15.22-.07.19-.19a4.85 4.85 0 0 1 .48.33c0 .05.21.1.35.19a2.05 2.05 0 0 0 .46.14c.1 0 .07.19.07.24s.05.16.24.22.07.21.07.21a2.16 2.16 0 0 1 .07.4c0 .14.17 0 .35 0h.51a1.91 1.91 0 0 0 .53.07zm2.1.97h.5c.14 0 .19-.07.36-.21s0-.19 0-.19l-.24-.19a1.21 1.21 0 0 1-.19-.24c0-.08-.15-.19-.58-.29s-.26 0-.36 0a.39.39 0 0 1-.21-.09 3.32 3.32 0 0 0-.5 0c-.17 0-.12.16-.12.22s.21.22.21.22.1.17.08.26-.19.09-.34.1-.09 0-.21-.14-.14 0-.28 0-.09.1-.16.14.09.31.09.36l.28.28a1.07 1.07 0 0 0 .38 0c.09-.05.14 0 .29-.07s.28.07.34.07a2 2 0 0 0 .38-.08c.19-.05 0 0 .07-.14s.13-.01.21-.01zm-3.37-.24h-.24c-.1 0 0-.1-.1 0s-.15.22-.12.29.07.09.14.14.05.07.19.09a1.46 1.46 0 0 0 .57-.1c.06 0 0-.21-.1-.22l-.31-.07s.23-.12-.03-.13zm4.87.25a2.15 2.15 0 0 0 .31.1h.31c.17 0 .09 0 .1-.23s-.1-.07-.17-.1-.12 0-.15-.1-.17-.09-.22-.1a.35.35 0 0 0-.15 0v.19l-.05.07a.15.15 0 0 0 .02.17zm40.34-33.43a.9.9 0 0 0 .37 0c.32 0 .39 0 .51-.14s.11-.21.25-.25a.83.83 0 0 1 .46 0 .27.27 0 0 1 .16.16c0 .09.09.14.18.14h.35a.91.91 0 0 0 .37.07c.14 0 .25 0 .28-.11s.16-.14-.09-.21a5 5 0 0 1-.53-.18v-.09a.2.2 0 0 1 .18-.09h1.13l.12-.07s.5-.14.09-.21a5.25 5.25 0 0 0-.76-.07s-.44-.14-.55-.16.14-.07-.28-.07h-1.49c-.07 0-.18.18-.18.18a2.2 2.2 0 0 0-.48.07 2.43 2.43 0 0 0-.18.6v.22c-.02.08-.05.19.09.21zm.92-1.08h.46a1.53 1.53 0 0 1 .34 0c.07 0 .37 0 .28.14s-.14.09-.21.12a2.13 2.13 0 0 1-.41 0h-.39s-.26-.25-.07-.25zM425 377.65c0-.24-.27-.31-.48-.28s-.07.55-.07.55a2 2 0 0 1-.17.41.72.72 0 0 0-.07.41l-.34.58a.82.82 0 0 1-.55.31.76.76 0 0 0-.48.1c-.14.07-.24.31-.34.45s-.21.48-.35.72a.82.82 0 0 0-.07.55 9.55 9.55 0 0 1-.07 1.31c-.07.34-.14.17-.28.31a3.73 3.73 0 0 0-.34.86 3.17 3.17 0 0 1-.24.65c-.14.24 0 .2 0 .38a2.67 2.67 0 0 0 0 .52.56.56 0 0 0 .14.38 1.68 1.68 0 0 0 .55.17c.21 0 .14-.17.45-.48s.2-.07.34-.24.34-.21.41-.38a6.09 6.09 0 0 0 .14-1c.07-.55.17-.34.21-.55s.52-1.41.62-1.69a4.89 4.89 0 0 1 .34-.62 2.25 2.25 0 0 0 .17-.83 1.59 1.59 0 0 1 .24-.62l.24-.14s.07-.41.1-.69-.17-.38-.17-.69.01-.21.07-.45zm-8-32.72zm0 0zm-.7.33a.35.35 0 0 0 .3.21c.23 0 .16 0 .23-.09a.41.41 0 0 1 .23-.11c.09 0 .12 0 .21-.09s0 0-.07-.21 0 0-.16 0h-.37zm.7-.33zM404.28 340c-.07-.14 0 0-.12 0s-.07-.21-.18-.3a1.17 1.17 0 0 0-.18.09c-.07 0 0 .09-.12.09s0 .11 0 .18v.23l.18.25a.73.73 0 0 0 .3-.12c.21-.11 0 0 .14-.14a.33.33 0 0 0-.02-.28zm-.53 1.41l.14.16-.12.21a1.58 1.58 0 0 1-.07.3v.11h.3c.09 0 .48-.23.48-.32s.07-.14.11-.21a.35.35 0 0 0 0-.34c-.07-.16 0 0-.07 0a.24.24 0 0 1-.14-.21.18.18 0 0 0-.12-.16h-.34a.84.84 0 0 0-.25.14l-.09.07c-.04.04.17.25.17.25zm-10.65-7.92a2.81 2.81 0 0 1 .3.18c.16.12 0 0-.07.07a2.25 2.25 0 0 1-.25.16c-.09.07 0 .09-.07.44s.32.07.32.07a1.81 1.81 0 0 1 .28 0 .61.61 0 0 0 .34 0 .82.82 0 0 0 .28-.14c.09-.07.16-.09.21-.16s.25 0 .48-.07.16 0 .23-.14 0-.11 0-.21-.09-.18-.09-.3a1.08 1.08 0 0 1 0-.28c0-.12.18-.09.18-.09a1.21 1.21 0 0 0 0-.25c0-.07-.32-.14-.32-.14a.91.91 0 0 0-.3-.16H394a.32.32 0 0 0-.2.09.76.76 0 0 1-.12.32c-.09.11-.09.09-.21.11a.76.76 0 0 1-.23 0h-.14l-.21.18.11.21z" transform="translate(-30.22 -75.33)"/>
      <path class="cls-47" d="M395 331.91a1.37 1.37 0 0 0 .27.19.12.12 0 0 1 .07.16.87.87 0 0 0 .21 0l.16-.07a1.71 1.71 0 0 0 0 .23v.27h.6l.23.23.16.18a.75.75 0 0 1 .14.28c0 .09 0 .09-.14.14a.22.22 0 0 1-.16 0l-.3.16c-.18.09 0 0 .16.23s-.16.14-.16.14l-.18.11c-.18.12 0 .16 0 .27s.21 0 .3 0h.28a1 1 0 0 1 .3.18c.12.11-.16.07-.16.07a3.85 3.85 0 0 0-.5.16c-.3.11 0 0-.14 0s-.18.09-.28.14 0 .32 0 .32h.6a.29.29 0 0 0 .21-.09c.09-.07.27 0 .32-.09s.23-.09.23-.09h1.72c.25 0 .37-.09.39-.18s-.09 0-.14-.12-.13-.18-.13-.18l.11-.21c.11-.21.25-.21.25-.21l-.16-.3c-.16-.3-.3 0-.39 0s-.11 0-.32-.14 0 0-.09-.07a1.26 1.26 0 0 1-.32-.37c0-.12-.14-.09-.23-.18a3.77 3.77 0 0 1-.53-.55c-.09-.16-.18-.16-.32-.3a.45.45 0 0 1-.14-.3.69.69 0 0 1 0-.25c0-.12.16-.12.14-.32s0 0-.07 0h-.21a1.16 1.16 0 0 1-.34 0c-.16 0-.09-.09-.09-.16s.16-.18.16-.18l.16-.28c.16-.28-.12-.07-.12-.07l-.25.07h-.46c-.25 0-.16.07-.23.11s-.14.32-.2.39a1.69 1.69 0 0 1-.34.25v.28c-.18.12-.07.15-.07.15z" transform="translate(-30.22 -75.33)"/>
      <path class="cls-47" d="M396 333.26l.23-.09v-.14c0-.14-.18-.09-.18-.09h-.28c-.16 0-.09.19-.09.19s.22.18.32.13zm19.56-5.62a.83.83 0 0 0 .3.12h.32s.07-.25-.09-.25h-.25c-.02 0 0-.18-.09-.18s-.27-.07-.27 0v.16c0 .07-.05.06.08.15zm.44-.82c.11.07.21 0 .34.18a.86.86 0 0 0 .3.3 3.4 3.4 0 0 0 .41.18c.14.07.09.07.23.07h.53s.18-.18 0-.25a.8.8 0 0 1-.39-.21 3.65 3.65 0 0 1-.28-.25c-.07-.09-.23-.28-.18-.34a1.32 1.32 0 0 1 .16-.23c.07-.07-.14-.14.16-.16h.82a.85.85 0 0 1 .23 0 1.9 1.9 0 0 0 .32 0h.07v-.21a.14.14 0 0 0-.14-.14h-.55a3.55 3.55 0 0 0-.39 0c-.21 0-.3-.07-.51-.07a1.79 1.79 0 0 0-.37 0 3.64 3.64 0 0 0-.48 0c-.14 0-.23 0-.23.16v.34a.36.36 0 0 1-.09.23c0 .07.09-.18 0 .07s-.06.26.04.33zm-36.8 47.01v-.43a.87.87 0 0 0-.17-.5c-.05 0-.26-.26-.26-.26a.21.21 0 0 0-.22-.22 3.63 3.63 0 0 0-.41 0c-.19 0-.31.07-.39 0a3.09 3.09 0 0 1-.54-.41c-.05-.09-.69-.47-1-.76s-.33-.41-.53-.39a2 2 0 0 1-.53 0 1.88 1.88 0 0 1-.48-.24c-.17-.1-.26-.17-.34-.15s-.19.12-.27.17-.16 0-.26.11-.05.26-.19.19-.29-.17-.28-.28a2.78 2.78 0 0 0 0-.33l-.5-.33a.42.42 0 0 1-.45-.1c-.21-.21-.41-.38-.54-.38s-.21-.12-.26 0 .21.07-.05.12-.55.16-.5 0a1.43 1.43 0 0 0 0-.43 1 1 0 0 1-.29-.14c-.1-.09-.33-.09-.33-.24s-.15-.39-.14-.5a2.87 2.87 0 0 0 0-.36 4.54 4.54 0 0 0-.17-.46 2.63 2.63 0 0 1-.38-.72 4.78 4.78 0 0 1-.28-.78 1.16 1.16 0 0 0-.36-.57c-.15-.14-.58-.36-.58-.41a.52.52 0 0 0-.45-.29c-.26 0-.26-.12-.46 0a1.8 1.8 0 0 1-.45.17s-.33-.09-.45-.14l-.87-.41a2.6 2.6 0 0 1-.1-.62c0-.27.14-.34-.09-.45s-.57-.17-.62-.29-.24-.48-.24-.48a.49.49 0 0 0-.26-.33c-.21-.08-.39-.1-.46-.15a3 3 0 0 0-.34-.24c-.1-.05-.33-.28-.5-.28s-.29-.07-.38.1a1.24 1.24 0 0 1-.24.36.31.31 0 0 1-.28 0c-.07-.05-.15-.29-.24-.34a.91.91 0 0 0-.29-.07s-.1-.33-.28-.09-.14.35-.28.24-.41-.36-.41-.36.14-.48-.09-.57-.43-.07-.48-.21a.69.69 0 0 1-.09-.27c0-.1.05-.36-.12-.36s-.31-.14-.53 0-.31 0-.34.21 0 .1-.15.43.07.17-.14.33-.12.15-.38.15 0-.17-.26 0a2.58 2.58 0 0 0-.36.29c-.14.12-.19.08-.22.21s-.09.45-.12.55a3.12 3.12 0 0 1-.34.86c-.15.16-.26-.07-.33-.07s-.12 0-.28-.32-.23-.53-.41-.44-.3-.12-.41.09a.89.89 0 0 1-.41.39 2 2 0 0 1-.41.07l-.16-.3c-.16-.3-.32-.32-.32-.62a7.39 7.39 0 0 1 0-1 7.21 7.21 0 0 0 0-.76v-.66s.09-.71-.32-1-.5-.32-.71-.23a2 2 0 0 1-.69.09c-.11 0-.39 0-.39-.28a2.59 2.59 0 0 1 0-.62c0-.07 0 .16.19-.25a2.58 2.58 0 0 0 .14-.73l.07-.3v-.37s0-.21.09-.23.18-.27.18-.27v-.39l.14-.12s-.3-.3-.46-.07-.53.37-.71.5-.25 0-.3.23 0 .23-.09.42a2.17 2.17 0 0 1-.16.46c-.09.21-.14.28-.23.32a.49.49 0 0 1-.38.12h-.31c-.05 0-.07.08-.2.09s-.31.06-.31-.06 0-.25-.08-.31-.19-.09-.2-.16-.12-.16-.07-.27.07-.18 0-.28a1.56 1.56 0 0 1-.26-.64c0-.12-.12-.46-.06-.53s0-.32.07-.54a4.08 4.08 0 0 0 .15-.4v-.85l.21-.41a.8.8 0 0 0 .13-.4 3.47 3.47 0 0 0 0-.55s-.06-.39 0-.5.1-.15.18-.18a1.18 1.18 0 0 0 .24-.16 1 1 0 0 0 .16-.24s0-.07.12-.07a.44.44 0 0 0 .16 0l.17-.28a.2.2 0 0 1 .1-.17c.1 0 .1-.08.18-.09s.24-.07.31-.07h.15a.89.89 0 0 1 .22.06 1.2 1.2 0 0 1 .21.06 1.82 1.82 0 0 1 .26.14c.08.06.15.14.22.08s.13-.17.19-.17a.63.63 0 0 0 .22 0s.15-.07.09-.14a.9.9 0 0 0-.16-.15s-.09 0-.09-.09a2 2 0 0 0 0-.23v-.12a1 1 0 0 1 .37 0 .94.94 0 0 0 .32 0h.81a.49.49 0 0 1 0 .15c0 .06.13.14.13.14s-.09.06 0 .13.23.09.26.06.13-.16.13-.16l.1-.09s.3 0 .25.16-.13.15 0 .23.1.06.1.15a2.43 2.43 0 0 1-.06.44.73.73 0 0 0-.08.25 1.51 1.51 0 0 0 0 .33v.31c0 .08 0 0 .13.18s.08.12.08.18.11.15.13.18 0 .06 0 .13-.06.15 0 .22.06.1.11.12.16.09.23 0a.65.65 0 0 0 .11-.26c0-.09 0-.09.07-.21s.15-.13.18-.31a2.15 2.15 0 0 0 0-.38v-.45c0-.06-.12-.32-.14-.44a3.49 3.49 0 0 1-.06-.57v-1.09s.38-.64.43-.73a.59.59 0 0 1 .23-.25 2.25 2.25 0 0 0 .37-.38c.08-.09.1-.25.21-.3l.36-.18a5.22 5.22 0 0 0 .65-.67.84.84 0 0 1 .3-.25.35.35 0 0 0 .18-.22 1.49 1.49 0 0 0 0-.4c0-.21-.08-.31 0-.46a3 3 0 0 0 .16-.49v-.16c0-.01.12 0 .12.14v.25c0 .09.09.15.13.09s.05-.21.1-.26.11-.18.11-.18.08 0 .09-.21 0-.45 0-.45.07-.1.12-.12a.9.9 0 0 0 .38-.26c.15-.17.22-.28.31-.4s.08-.17.22-.23a.6.6 0 0 0 .33-.25c.09-.15.06-.26.14-.3a1.29 1.29 0 0 1 .41-.07.6.6 0 0 0 .29-.07.62.62 0 0 0 .15-.33v-.2a.73.73 0 0 1 .18-.35 6.72 6.72 0 0 1 .57-.58l.48-.24c.17-.08.14-.13.28-.19s.37-.22.48-.26.2-.17.31-.18.15-.19.25-.06.15.15.1.23-.31.32-.31.4v.22c0 .05 0 .1.06.13a2 2 0 0 0 .71-.44c.1-.12 0-.25.26-.26a1.72 1.72 0 0 0 .56-.15l.33-.13a2.56 2.56 0 0 0 .33-.17.5.5 0 0 0 .24-.2 1.51 1.51 0 0 1 .15-.22.51.51 0 0 0 .1-.17.67.67 0 0 0 .06-.28v-.1c0 .07-.07 0-.17.15a1.48 1.48 0 0 1-.25.24 1.64 1.64 0 0 1-.3.2.79.79 0 0 1-.23.13c-.16.07-.22 0-.37.09s-.18.13-.22 0a.57.57 0 0 0-.12-.24c-.08-.07-.11-.07-.15-.14s-.13-.12-.09-.23 0-.07.07-.29 0-.25.08-.3a.56.56 0 0 0 .13-.15 1.27 1.27 0 0 1 .14-.18c.06-.06.13-.07.1-.17s0-.2-.14-.22-.14-.15-.35-.1-.18 0-.39.1a2.4 2.4 0 0 1-.39.22c-.16.09-.52.23-.6.29l-.28.19c-.15.1-.27.13-.38.21s-.2.29-.26.18-.16-.15 0-.22a.91.91 0 0 0 .37-.18c.16-.14.16-.19.32-.3a4.34 4.34 0 0 0 .37-.27 2.24 2.24 0 0 1 .32-.21 2.62 2.62 0 0 0 .36-.24c.14-.09 0-.13.23-.24a.9.9 0 0 1 .41-.14 1.63 1.63 0 0 0 .31 0c.08 0 0-.09.22-.07l.67.06a2.41 2.41 0 0 1 .62-.14c.19 0 .16.07.42 0a1.66 1.66 0 0 0 .41-.16 1.3 1.3 0 0 0 .37-.22c.17-.13.65-.43.79-.54a.49.49 0 0 1 .32-.15 1.48 1.48 0 0 0 .73-.03c.14 0 .27-.1.28-.2s0-.33 0-.36.17-.19.07-.25a1.68 1.68 0 0 0-.35-.19.69.69 0 0 1-.21-.14s0-.25-.07-.27a1.11 1.11 0 0 0-.33-.12 3.33 3.33 0 0 1-.52-.16.92.92 0 0 1-.25-.16 2.63 2.63 0 0 1-.12-.49c0-.14.1-.29 0-.41s-.21-.1-.24-.24-.23-.34-.23-.44a.41.41 0 0 0-.15-.32c-.13-.11 0-.24-.21-.18s-.22-.06-.39.15 0 .06-.29.38a2.64 2.64 0 0 1-.55.49c-.15.1-.15.2-.33.08s-.41-.24-.41-.39a2.37 2.37 0 0 1 .08-.47l-.09-.17s-.22-.2-.36-.15-.17.26-.34 0-.08-.27-.25-.32-.24-.12-.4-.11a1.48 1.48 0 0 0-.4 0c-.1 0 .06.06-.18.06s-.16-.08-.29 0-.17.17-.26.21 0 0-.2 0 0-.09-.15 0a1.18 1.18 0 0 0-.31.57.28.28 0 0 1 0 .21 1.2 1.2 0 0 1-.19.37s-.08-.2-.19.07-.17.24-.22.32a.35.35 0 0 0-.07.21.35.35 0 0 0 .13.25c.07.06.13 0 .13.14v.29c0 .2-.06.24-.12.38s-.08.25-.19.32a1.56 1.56 0 0 1-.47.09 2.44 2.44 0 0 1-.29.36c-.13.12-.28.15-.3.22s-.15-.25-.17.06.17.32-.09.32a2.51 2.51 0 0 1-.69 0 2.65 2.65 0 0 1-.56-.17s-.17-.1-.17-.2-.19-.14-.25-.29 0-.25-.19-.38-.3-.25-.48-.39a2.47 2.47 0 0 1-.37-.29.26.26 0 0 0-.24-.17c-.16 0-.24.16-.24 0s-.13-.4.06-.58.17-.29.34-.46.15-.29.31-.45.24-.32.38-.38 0-.13.41-.23a2.79 2.79 0 0 0 .7-.33l.41-.28a1.3 1.3 0 0 0 .29-.25c.15-.15.14-.28.22-.28s.21-.14.23-.06a.23.23 0 0 1 0 .21c0 .07-.15.09-.2.16a1.08 1.08 0 0 0-.15.26s0 .08.13.17l.14.09a.29.29 0 0 0 .24-.06c.1-.09.1-.17.21-.22s.13-.14.25-.14h.2c.05 0 .11 0 .16.06a.56.56 0 0 0 .21 0 .38.38 0 0 0 .15 0s.1-.08.16-.09a.79.79 0 0 0 .18-.11 1.88 1.88 0 0 1-.35-.15v-.11a.51.51 0 0 0-.17-.1s-.19 0 0-.13a1.64 1.64 0 0 1 .63-.07h.37c.21 0 .23-.14.37 0s.13 0 .14.12-.06.08 0 .11 0 0 .12 0h.99c.13 0 .29-.09.38-.1s.29-.07.34 0a.69.69 0 0 1 .13.18.59.59 0 0 0 .15.22 2.76 2.76 0 0 0 .32.2 2.18 2.18 0 0 0 .39.13.46.46 0 0 1 .24 0 1.12 1.12 0 0 0 .22.13 1.75 1.75 0 0 0 .36.08l.21-.13.18-.24-.14-.1a2.21 2.21 0 0 0-.3-.15s-.12-.14-.1-.17-.07-.11.06-.08.14 0 .18.06.23.06.28.09a2.11 2.11 0 0 0 .3.11h.1a2.72 2.72 0 0 0 .52-.19.84.84 0 0 0 .36-.22c.16-.13.21-.21.32-.23a3.86 3.86 0 0 0 .39-.07 1.12 1.12 0 0 0 .41-.2c.07-.08 0-.14.17-.22s.17-.15.36-.25a1.53 1.53 0 0 0 .31-.23c.06 0 .16-.1.16-.23a3.48 3.48 0 0 0 0-.37.33.33 0 0 1 .07-.44c.23-.21.31-.22.34-.29s.06-.08 0-.14 0-.12-.09-.15-.22 0-.26-.1-.13-.06-.07-.18.07-.21.1-.22a.22.22 0 0 0 .15-.14l.08-.17v-.17a.71.71 0 0 0-.28-.07.54.54 0 0 1-.24 0 1.58 1.58 0 0 1-.31-.14s0-.1-.17-.07a.73.73 0 0 0-.31.13l-.3.07c-.3.07-.31 0-.54 0l-.46.1c-.17 0-.17-.07-.26.07s-.06.19-.15.19h-.24s0-.08-.23 0a1.13 1.13 0 0 0-.33.09.36.36 0 0 1-.19.07 4.67 4.67 0 0 1-.8-.06l-.4-.07s-.37 0-.27-.06.13-.11.11-.15 0-.08-.2-.07-.14 0-.35 0a3.55 3.55 0 0 1-.47.07h-.27a1.56 1.56 0 0 1-.48 0 1 1 0 0 0-.3.14c-.1.07-.06 0-.2.1a2.12 2.12 0 0 1-.26.23c-.13.08-.22.1-.22.07a1.22 1.22 0 0 0 0-.17s0-.06-.19 0a2.43 2.43 0 0 1-.37.09h-.66s-.08-.22.09-.26a.32.32 0 0 0 .25-.18c0-.07 0-.18.07-.2s0-.15 0-.15-.07-.15-.17-.1a.88.88 0 0 0-.2.13s.06 0-.2.1-.24.08-.36.14a1 1 0 0 1-.33.06l-.18-.07-.49.26c-.23.13 0 .15-.47.16s-.43 0-.61 0h-1c-.2 0-.14 0-.3-.08s-.22-.06-.32 0-.14 0-.32.13-.15 0-.31.26 0 .23-.24.31l-.32.14h-.52a2.09 2.09 0 0 0-.29.18l-.26.24c-.11.1-.35.13-.43.18l-.16.12s-1 1.15-1.16 1.25-.14 0-.25.15-.28.22-.45.28-.21 0-.31.16a4.67 4.67 0 0 1-.77.83c-.22.14-.45.18-.56.34s-.12.08-.26.28a1.34 1.34 0 0 1-.52.32s-.36.18-.17-.09c0-.06 0-.14-.11-.24a50.21 50.21 0 0 0-3.46 4.54.63.63 0 0 1 .3 0c.21.1.38-.17.45.14s.17 0 .28.45.1.45-.11.62-.38.34-.38.34a.82.82 0 0 0-.1.38c0 .21.07.07.13.08s.08-.12.14 0 .08.07 0 .19 0 .08-.14.21-.14.11-.16.24a2.35 2.35 0 0 0 0 .37v.37c0 .08-.06.18-.07.26s-.16.09-.19.12a.26.26 0 0 0-.09.15.34.34 0 0 0 0 .16.6.6 0 0 0 0 .26c0 .06.13.09.14.14s-.12.12 0 .16.16.13.21.06a.4.4 0 0 0 .07-.16c0-.06-.06-.14 0-.18s.15-.18.2-.07a.36.36 0 0 1 .06.21v.38c0 .09 0 0-.08.09a.45.45 0 0 1-.36.07s-.07-.17-.17-.07l-.21.22s-.56 1.22-.56 1.41 0 .25-.16.56a1.24 1.24 0 0 0-.25.49c-.07.24-.21.5-.24.61a5.33 5.33 0 0 0-.37.93c0 .18-.06 2-.08 2.29s0 .85.09.87.14-.14.2 0 .06.17.08.23 0 1.05 0 1.35a5.16 5.16 0 0 0-.07.71.51.51 0 0 0 .16.25.61.61 0 0 1 .07.39c-.06.15-.07.12-.08.26s0 .16 0 .22-.12-.12-.12.13v.34c0 .05.07 0 .1.16a1.07 1.07 0 0 1 .07.27v.39a.52.52 0 0 0 .09.25.88.88 0 0 0 .2.16h.13c.03 0 0 0 0-.22s-.12-.2-.07-.38a1.54 1.54 0 0 1 .09-.28 1.07 1.07 0 0 0 0-.55 2.9 2.9 0 0 0-.08-.46 2.65 2.65 0 0 0 0-.39 1.06 1.06 0 0 1 0-.33c0-.1-.09-.29-.07-.4s.07-.25.09-.33 0-.21.07-.31 0-.22.06-.21.14.19.15.3a1.62 1.62 0 0 1 0 .31 1 1 0 0 0 0 .23 6.3 6.3 0 0 0 .1.78c0 .12-.06.2 0 .36s.17.15.19.25a1 1 0 0 1 .07.3c0 .14.07.77.09.93a1 1 0 0 0 .09.42c.08.11.15.06.16.18s0 .21 0 .3.2.15.21.18a1.14 1.14 0 0 1 .13.44v.45a2.53 2.53 0 0 0 0 .3 4.63 4.63 0 0 1-.06.84 1.64 1.64 0 0 0 0 .53s.3.25.34.41a1.22 1.22 0 0 0 .13.33.84.84 0 0 0 .21.23s.08 0 .15.09a1 1 0 0 0 .21.14s.48.48.6.56.24.07.3.18a.51.51 0 0 0 .25.18 1.66 1.66 0 0 0 .32.17c.06 0 .24.23.27 0v-.2a.32.32 0 0 1 .17-.09c.08 0 0 0 .13-.12s.2-.19.24-.1a2.25 2.25 0 0 1 .11.23 1.18 1.18 0 0 0 .13.24s.14.13.15.16a2.9 2.9 0 0 1 .33.52c0 .15 0 .24.1.29s.18.08.23.13.33 0 .41.08a.63.63 0 0 0 .25.2h.14a.28.28 0 0 0 .16 0h.23c.07 0 .27.08.25.13s.07.27.08.44a.86.86 0 0 0 .07.32c0 .08.13.15.15.22a.67.67 0 0 0 .13.17v.52a1.14 1.14 0 0 0 .17.4h.15s0-.08.09 0a4.41 4.41 0 0 1 .22.41.6.6 0 0 0 .17.24c.08.08.18.08.21.14a.9.9 0 0 0 .29.26h.18c.03 0 0 0 .07.1s.24.08.25.13a1.15 1.15 0 0 0 .1.18s.15 0 .17.08 0 .07.11.06.16 0 .11-.13a.76.76 0 0 1-.1-.23v-.23c0-.05-.1 0 0-.12s.07-.16.1-.17 0 0 .1-.07a.56.56 0 0 0 .15-.18c0-.07 0-.14.08-.11a1.71 1.71 0 0 1 .13.24s0-.08.11.1a.54.54 0 0 1 .07.32 2.21 2.21 0 0 1 0 .25c0 .1.17.32.17.32a1.31 1.31 0 0 1 .21.22c0 .06.12.15.12.25a2.33 2.33 0 0 0 0 .3s.26 1.4.07 1.55-.2.32-.21.54a.61.61 0 0 1-.21.38s-.37.68-.39.76v.18c0 .1-.2.15-.23.25s0 .07-.06.16a5.23 5.23 0 0 0-.16.8v.85c0 .13 0 .18.09.22s.15.09.13.16 0 .17 0 .19.09 0 .09.09a.28.28 0 0 1-.06.21 1.56 1.56 0 0 1-.16.14s0-.07 0 0a2.69 2.69 0 0 0-.17.31l-.08.17a1 1 0 0 0 0 .26v.19a1 1 0 0 1 .23.38v.3a.62.62 0 0 0 .15.23s.3.29.33.38a1.73 1.73 0 0 1 .08.26c0 .1.2.21.21.25s.13.14.13.24a1.18 1.18 0 0 0 .06.27s.68 1.51.73 1.73 0 .25.18.43l.18.17.16.45c.04.11.06 0 .13.15a.62.62 0 0 1 .1.18.81.81 0 0 1 0 .18c0 .08.06.14.06.17a2.7 2.7 0 0 0 .44.81c.21.21.44.33.46.39s.63.32.64.42.1.1.16.18l.06.08a5.16 5.16 0 0 1 .36.39.54.54 0 0 0 .21.22 1.28 1.28 0 0 0 .29.12.26.26 0 0 1 .09.16.39.39 0 0 0 .1.18.41.41 0 0 1 .17.1 1.61 1.61 0 0 1 .18.56v.16c0 .16.06.16.06.28a1.81 1.81 0 0 0 0 .35c0 .11.1.18.11.28a1.75 1.75 0 0 1 0 .27v.4a1.14 1.14 0 0 0 0 .3 2.83 2.83 0 0 1 .13.54 4.48 4.48 0 0 0 0 .74 5.94 5.94 0 0 1 .26.88v.64a6.37 6.37 0 0 1 .11 1c0 .14-.07.23 0 .3s0-.07.07.07.06.17 0 .26.08-.16 0 .09a.66.66 0 0 0-.08.4 1.14 1.14 0 0 0 .12.21 3.42 3.42 0 0 1 .18.72 1.82 1.82 0 0 0 .08.47.32.32 0 0 1 .09.24v1.99c0 .12-.18 0-.21.16a.58.58 0 0 0 0 .34c0 .12.23.17.25.25a.91.91 0 0 1 0 .22s.33 1.07.34 1.3 0 .22 0 .48a.76.76 0 0 0 0 .33 1.7 1.7 0 0 1 .25.62c0 .26.09.25.13.39s.07.16.06.25a.92.92 0 0 1 0 .18s-.06-.14-.06.07v.26c0 .13 0 .21.17.22h.13s.12-.08.14.14-.07.09-.09.25-.07.17 0 .33 0 .29 0 .34.56.87.63 1 0 .16.18.31a1.43 1.43 0 0 0 .31.21c.13.08.32 0 .37.14a.34.34 0 0 0 .14.14s.19-.09.22 0a.13.13 0 0 1-.12.15s-.08-.06-.07 0 .08.1.16.18.45.19.54.32.19.13.28.21a.8.8 0 0 0 .24.14l.32.11s.44.25.62.21a2.46 2.46 0 0 1 .48 0s.21.16.25.07.11-.18.28-.09.25.18.28.09.12-.14 0-.21-.12-.16-.21-.18a2 2 0 0 1-.34-.25l-.3-.18c-.16-.09-.25.07-.39-.25s-.07-.27-.18-.46-.37-.23-.48-.48a2 2 0 0 0-.25-.41h.18a1.81 1.81 0 0 0 .12-.48.31.31 0 0 1 .16-.14c.12 0 .34 0 .23-.23a1.7 1.7 0 0 0-.21-.3c-.25-.34 0-.37-.25-.34a1.7 1.7 0 0 1-.37 0s-.3-.09-.32-.28 0-.34 0-.34l.28-.16s.09.09.16 0-.07 0 .07-.07.25 0 .32-.07a.42.42 0 0 0 .12-.37c0-.14-.18-.37-.21-.46a.78.78 0 0 0-.07-.39c-.11-.28-.3-.39-.3-.48s-.12-.3 0-.3a.59.59 0 0 1 .27.14 1.48 1.48 0 0 0 .25 0c.09 0 .09.14.2.12s0 .15.12 0l.14-.17s.14-.31.07-.41a.83.83 0 0 1-.12-.24c-.05-.14-.14-.21-.12-.28a.16.16 0 0 1 .22-.14 1.08 1.08 0 0 0 .41.09c.17 0 .21-.05.38 0s.21.14.31.07a.77.77 0 0 1 .34-.14.27.27 0 0 0 .22-.15c0-.09 0-.14.07-.17a.53.53 0 0 0 .19-.28c0-.14.21-.31 0-.5a2.22 2.22 0 0 1-.26-.31 5.16 5.16 0 0 1-.41-.55 1.92 1.92 0 0 0-.24-.34s-.07-.43 0-.33.21.31.29.41.14.08.28.19a2 2 0 0 1 .31.33c.1.12.15.21.27.19s.26-.17.36-.26.1-.15.28-.15.43-.38.48-.46a.61.61 0 0 0 .15-.38 3.54 3.54 0 0 1 0-.36 3.56 3.56 0 0 0 .24-.48c.09-.22.11-.22.11-.36s-.07-.27 0-.33 0-.12.15-.1a.83.83 0 0 1 .29.16.24.24 0 0 0 .21.07c.1 0 .15-.11.15-.34s-.19-.22 0-.43a4.17 4.17 0 0 0 .31-.36.34.34 0 0 0 .12-.28v-.78a3.26 3.26 0 0 1 0-.7 3.08 3.08 0 0 1 .24-.48c.07-.15 0-.26.09-.36s0-.21.28-.21.22-.17.52-.29a2.29 2.29 0 0 1 .65-.15c.22 0 .15-.09.28-.17a1 1 0 0 1 .53-.1 1.7 1.7 0 0 0 .29 0c.12 0 .24-.16.33-.28a1 1 0 0 1 .26-.28.24.24 0 0 0 .16-.14c0-.09 0-.54.05-.6a3 3 0 0 1 .24-.38 2.68 2.68 0 0 0 .21-.41c0-.07.09 0 .09-.22v-.5a1.48 1.48 0 0 1 .07-.5.81.81 0 0 0 .14-.46c0-.24.07-1 .05-1.2a1.65 1.65 0 0 0-.05-.45c-.05-.19-.12-.26-.1-.41a2 2 0 0 1 .07-.41.44.44 0 0 1 .21-.22c.07 0 .1-.15.17-.26s.07-.26.15-.29a.39.39 0 0 0 .19-.15 2.37 2.37 0 0 1 .12-.31c.05-.1.1-.33.14-.4a.48.48 0 0 1 .16-.21c.07 0 .07-.08.22-.22s.31-.46.4-.53a1.07 1.07 0 0 0 .17-.34.48.48 0 0 0 .24-.31 1 1 0 0 0 .08-.52c.21-.35.15-.49.15-.75z" transform="translate(-30.22 -75.33)"/>
      <path class="cls-47" d="M423.43 327.79c-.1.09-.07.14-.07.14a2 2 0 0 0-.26.28c-.07.1 0 0-.24-.05s-.09.14-.09.14l.17.26c.09.14 0 .17 0 .17a.58.58 0 0 1-.26-.05c-.07-.05-.07-.09-.1-.19s-.14 0-.24 0h-.16a1.34 1.34 0 0 0-.29 0c-.12 0 0 .1 0 .1l.11.24.43.19c.24.1.14.21.14.21s.17.19.14.26-.12.05-.24.05a.84.84 0 0 1-.33-.05.24.24 0 0 1-.19-.17 3.18 3.18 0 0 0-.4-.62 3 3 0 0 1-.58-.53c0-.09-.15-.21-.26-.38a.31.31 0 0 0-.33-.15 1.56 1.56 0 0 0-.28.05l.17.41a2.66 2.66 0 0 1 .16.34c0 .05-.09 0-.17 0s-.19-.1-.24-.1a3.84 3.84 0 0 1-.48-.12c-.1 0-.08-.09-.15-.14s-.07-.09-.09-.19-.1-.14-.19-.24-.24 0-.33.05 0 .15 0 .21a1.76 1.76 0 0 0 .21.4l-.83-.05a2.69 2.69 0 0 0-.39 0c-.12 0-.14-.14-.16-.19s-.27-.07-.27-.07a.91.91 0 0 1-.35 0 1.21 1.21 0 0 0-.36 0 3.15 3.15 0 0 0-.6.19c-.14.05 0 0-.07 0h-.17c-.07 0-.14-.1-.15-.19s0 0-.17-.21-.28.09-.36.12 0 .19 0 .24a.89.89 0 0 0 .12.22 4.47 4.47 0 0 1-.52.1h-.47c-.12 0-.09.09-.14.14a.52.52 0 0 1-.19.09v.19c0 .09-.07.09-.12.12s-.27 0-.27 0h-.09a.73.73 0 0 1-.15-.07.85.85 0 0 0-.31 0c-.09 0 0 .12 0 .12a1.2 1.2 0 0 1 .35.33c.14.21-.12.14-.22.14a1.19 1.19 0 0 1-.41-.16 2.94 2.94 0 0 1-.29-.19 3.07 3.07 0 0 1-.28-.22 1.29 1.29 0 0 1-.17-.28 1.62 1.62 0 0 1-.21-.46c0-.16-.12 0-.12 0l-.24-.09c-.05 0-.46-.26-.55-.31s0-.16 0-.16l.34.09a1.7 1.7 0 0 0 .48.15c.4.09.29.1.36.16a2 2 0 0 0 .41.1 4.09 4.09 0 0 0 .72.14c.35 0 .09 0 .21-.05s.24 0 .29-.1a.37.37 0 0 0 .07-.19c0-.09-.12-.07-.21-.12a.37.37 0 0 1-.12-.1s-.26-.1-.34-.16a.21.21 0 0 0-.19 0l-.57-.34a2.56 2.56 0 0 0-.29-.1c-.12-.05-.15 0-.15 0a1.45 1.45 0 0 1-.43-.14 1.27 1.27 0 0 0-.41-.17l-1.22-.29c-.05 0-.28 0-.4-.05a1 1 0 0 1-.33-.12c-.1-.07 0-.08.05-.26s-.09-.05-.19-.05-.79-.17-.79-.17h-.89c-.09 0-.19-.16-.38-.14s-.14.09-.14.15a4.09 4.09 0 0 1-1.07.05 1.51 1.51 0 0 0-.34 0h-.57c-.33 0-.09 0-.12.08a2.73 2.73 0 0 1-.45.22 1.12 1.12 0 0 0-.28 0c-.16 0-.1 0-.24.09l.19.1.1.05a.53.53 0 0 1-.21.1c-.1 0-.15.12-.34.17s-.12.15-.24.22-.05.1-.21.33-.12.29-.24.4-.52.38-.52.38a1.22 1.22 0 0 1-.26.24 1.23 1.23 0 0 1-.45.07 2.56 2.56 0 0 0-.45.17 3.77 3.77 0 0 1-.5.19c-.22.05-.24.12-.41.19s-.07.19-.21.48.05.26.05.33.31.29.31.29a.57.57 0 0 1 .14.31v.27c0 .05.12.14.12.14l.17.31.88.07c.69.05.43-.28.43-.28l.09-.07.19-.15a2.16 2.16 0 0 1 .41-.14.4.4 0 0 1 .28.12s.33.31.38.38a.56.56 0 0 1 .07.21l.27.14c.11.05.14.15.16.34s.17.22.16.36 0 0-.05.1-.11.07-.24.12 0 0-.09.07-.07.1-.1.21 0 0 0 .1.14.33.14.33a.5.5 0 0 0 .29-.16c.12-.14 0 0 0-.07s.09-.09.16-.26 0 0 .05 0a.25.25 0 0 1 .22.1c0 .07.16 0 .24 0s.12 0 .21-.12.12 0 .15-.12.28 0 .34-.12.09 0 .14 0 .43-.07.5-.15 0-.1-.05-.16a1.39 1.39 0 0 1-.14-.31.92.92 0 0 1 .17-.59c.1-.12 0 0 .09-.07a.56.56 0 0 1 .29-.09c.05 0 .09-.12.09-.17a2.84 2.84 0 0 0-.09-.33l-.12-.05-.26-.19c-.26-.19-.14 0-.24 0a.64.64 0 0 1-.35-.19c-.08-.09 0-.33 0-.57s.12-.22.17-.33.12 0 .26-.12.12-.14.21-.22.22 0 .36 0 .14-.07.19-.19a.5.5 0 0 0 .07-.26c0-.12.07-.19.1-.33s0 0 .33-.09a.84.84 0 0 1 .47 0c.12 0 .09.05.09.05l.33.14a1.64 1.64 0 0 1 .24.21l-.12.07c-.12.07 0 0-.05.12s0 0-.09.09a2.91 2.91 0 0 1-.33.24 1.48 1.48 0 0 1-.24.14c-.07 0-.15.1-.22.14s0 .12-.05.19a.59.59 0 0 0 0 .22 2.57 2.57 0 0 1 .24.31c.09.14 0 .22 0 .34s.1 0 .29.14a1.33 1.33 0 0 1 .36.28c.11.1.19.1.4.1a.52.52 0 0 0 .31-.05 1.73 1.73 0 0 1 .41-.07 2.68 2.68 0 0 1 .52 0 .84.84 0 0 0 .36-.05h.29c.09 0 .14.15.14.15l.35.1c.26.07 0 .12 0 .12a2.21 2.21 0 0 0-.4.12c-.21.09 0 0-.07 0a1 1 0 0 1-.22 0 1.55 1.55 0 0 1-.28-.07h-.14c-.05 0-.45-.07-.58-.07H409a.66.66 0 0 0-.22 0c-.1 0-.05.21-.05.21a1.44 1.44 0 0 0 .09.28c.05.1 0 0 .19.09s.09.09.09.09.27.26.26.33-.15.19-.15.19-.15.1-.24.09-.11-.07-.11-.07-.21-.09-.22-.14-.12-.07-.17-.22-.19-.07-.26-.07-.22.43-.22.43l-.07.4c-.02.11.17.1.24.14s.14.36.14.43-.12 0-.33 0a.29.29 0 0 0-.26.07c-.05 0-.12.17-.17.17h-.24a.25.25 0 0 1-.22-.16c-.05-.1-.26-.12-.34-.16s-.17.07-.26.09a.71.71 0 0 0-.4.26c-.1.15-.69.22-.74.21h-.14a1.35 1.35 0 0 1-.33-.24c-.05-.09-.14-.07-.22-.1s-.09.07-.14.1-.12.17-.19.21a1 1 0 0 1-.38 0c-.19 0-.14 0-.31-.08s-.16 0-.22 0a.48.48 0 0 1-.34-.14c-.1-.12-.1-.16-.1-.24s-.09-.12-.09-.17v-.24l.17.1c.09 0 .12.12.21.12s.12 0 .16-.08-.07-.17-.07-.22-.21-.19-.21-.19l-.05-.14.12-.07c.12-.07 0-.16 0-.16s-.17-.19-.17-.29a.33.33 0 0 0-.08-.22c-.05-.07-.29 0-.29 0s-.09.14-.17.14-.17.14-.17.14l-.22.19v.4c0 .14.36.46.38.52a1.43 1.43 0 0 1 .07.41c0 .26-.08 0-.14 0s-.29.21-.5.14a1 1 0 0 0-.43-.05c-.14 0-.17.26-.19.31a1.79 1.79 0 0 0 .07.36 1 1 0 0 1-.21.22.64.64 0 0 1-.31 0h-.15a2.48 2.48 0 0 1-.5.36c-.15 0-.33.17-.48.22s-.14.19-.24.33-.1.12-.28.19a.84.84 0 0 0-.33.19 1.21 1.21 0 0 1-.52.12c-.05 0-.1 0-.19-.1l-.1-.1c-.1-.1-.09 0-.19 0s0 .29 0 .36-.07.14-.21.21 0 0-.07 0a.82.82 0 0 1-.34-.08c-.14-.07-.19 0-.33 0s-.1 0-.21-.07-.31 0-.4 0 0 .31 0 .31l.33.24c.21.16.14.19.14.19a2.14 2.14 0 0 0 .43.07c.17 0 .21.05.28.05s.26.21.26.21a2.73 2.73 0 0 0 .34.36l.29.24v.4s-.09.52-.11.57-.09.46-.09.46-.1.21-.21.21-.36-.05-.54-.05a2.49 2.49 0 0 1-.36 0h-.55c-.21 0-.43 0-.64-.05a1.46 1.46 0 0 1-.34-.05c-.14-.05-.12-.09-.21-.16a.79.79 0 0 0-.38-.1c-.09 0-.12.1-.24.17s-.21.17-.33.19-.12 0-.21.12-.07.22-.09.33.12.19.12.19l.15.12a1.33 1.33 0 0 1 .11.43 3 3 0 0 1 0 .38 1.34 1.34 0 0 1-.16.59c-.14.21-.1.16-.19.22s-.05.17-.07.24a.77.77 0 0 0 0 .21s.19.22.28.31a.21.21 0 0 1 .05.21 2.66 2.66 0 0 1 0 .4c0 .22.16.16.24.19a.87.87 0 0 0 .33 0h.36c.12 0 .24.12.29.14s.11.16.14.21a.4.4 0 0 1 .05.17c0 .09.21 0 .21 0a2.76 2.76 0 0 0 .46 0 .76.76 0 0 0 .29-.2c.07-.07.17-.07.29-.16a.24.24 0 0 1 .26 0h.67a1.23 1.23 0 0 0 .4-.05 2.83 2.83 0 0 0 .29-.19c.14-.1.17-.07.24-.12a2.29 2.29 0 0 0 .22-.28c.08-.1.14-.15.22-.28a.38.38 0 0 0 .07-.27c0-.07-.07-.12-.12-.26s0 0 0-.24a1.52 1.52 0 0 1 .1-.45 1.56 1.56 0 0 1 .21-.22c.14-.14.15-.07.28-.14a.37.37 0 0 0 .19-.24c0-.1.33-.14.39-.19s.24 0 .36-.12 0 0 0-.09a.48.48 0 0 0 0-.22c0-.1 0-.14-.05-.24a.22.22 0 0 1 .07-.21 1.82 1.82 0 0 1 .19-.19h.42l.46.16c.31.1.33 0 .33 0s.14 0 .17-.07a1.6 1.6 0 0 0 .15-.24c.07-.14.22 0 .33-.05a1 1 0 0 0 .33-.26c.07-.1.28 0 .41 0s.26.15.38.21a4.94 4.94 0 0 1 .48.31 2 2 0 0 1 .33.4 1.16 1.16 0 0 0 .34.33l.36.29.38.31.86.36c.26.1.19.14.28.19a2.27 2.27 0 0 1 .41.33 1.76 1.76 0 0 1 .29.41.65.65 0 0 1-.05.33.51.51 0 0 1-.14.14.57.57 0 0 1-.31.14h-.29a.31.31 0 0 1-.19 0 .86.86 0 0 0-.35-.07.14.14 0 0 0-.14.17s.05.33.05.38.22.17.29.19.17.08.38.15 0 .21 0 .26.41.05.55-.1 0-.1 0-.1v-.38c0-.14 0 0 .08-.1s.16 0 .24-.05a.41.41 0 0 0 .17-.1 1.49 1.49 0 0 1 .14-.38.15.15 0 0 0 .09-.16V342c0-.09-.09-.16-.14-.24a.45.45 0 0 1-.09-.29c0-.15.1 0 .17 0s.19.09.33.12a.28.28 0 0 0 .24-.05l.1-.09c.1-.08-.09-.19-.14-.27s-.33.1-.78-.31a1.18 1.18 0 0 0-.83-.38l-.21-.07c-.21-.07-.28-.34-.48-.62s0 0-.24-.21a3.56 3.56 0 0 1-.55-.52 1 1 0 0 1-.31-.62c-.07-.24.21-.21.21-.21l.21.07a3.46 3.46 0 0 0 .55.17h.21l.24.1s.34.38.52.62.34.17.55.28a3.94 3.94 0 0 0 .62.14 2 2 0 0 1 .65.65c.07.14 0 .28 0 .45s.41.52.48.62.13.31.21.45a4.12 4.12 0 0 0 .55.55 1.83 1.83 0 0 1 .34.62c.07.21 0 .28 0 .55s.28.28.55.21 0 0 .07-.34 0 0 .14-.17 0-.24 0-.34.17-.07.07-.34a1.53 1.53 0 0 1-.34-.31c-.17-.21 0-.52 0-.72s0 0 .35-.14 0 0 .1 0a2.35 2.35 0 0 1 .48 0c.1 0 .48.34.48.34l.14.48.34.34v.41c0 .14.17.14.28.21a1.17 1.17 0 0 1 .31.48c0 .14.45.28.62.38a1.18 1.18 0 0 0 .58.1 1.11 1.11 0 0 0 .45-.14c.17-.07.28.2.28.2l.48.35a1.87 1.87 0 0 0 .65-.07c.34-.1 0 0 .21-.17s.31-.1.52-.1 0 .31 0 .31a6.91 6.91 0 0 0 .41.69c.14.17 0 .38-.07.65a3.43 3.43 0 0 0-.07.83 2.07 2.07 0 0 1-.14.86.9.9 0 0 1-.48.17 1.16 1.16 0 0 1-.48 0c-.21 0-.17 0-.34-.24s-.21 0-.31 0a2.67 2.67 0 0 0-.41.24 1.62 1.62 0 0 1-.86-.14s-.86-.24-1.17-.38-.31 0-.52-.07a.74.74 0 0 1-.45-.17 2.44 2.44 0 0 1-.59-.48c-.17-.24-.52-.07-.76-.07a1 1 0 0 0-.65.24.17.17 0 0 0 0 .31 1.83 1.83 0 0 1 .21.45.49.49 0 0 1-.1.34c-.1.14-.31.1-.38.31s-.38.17-.38.17l-.48-.45a8 8 0 0 1-1.13-.45c-.28-.17-.24-.17-.24-.17s-.24-.21-.28-.34a.52.52 0 0 0-.17-.24l-.82-.31a6 6 0 0 1-.76-.21c-.27-.14 0 0 0-.1s-.62-.34-.62-.34a1 1 0 0 1-.14-.62c.07-.28 0 0 .1-.1s0-.31 0-.41-.21-.21-.21-.38v-.34c0-.13-.24-.27-.34-.41s-.38.07-.62.1a.64.64 0 0 1-.45-.14h-.69l-.21.17c-.21.17-.24.07-.38.1a.82.82 0 0 1-.48-.07c-.17-.07 0 0-.17-.21s0 0-.31 0-.24.24-.24.24h-.69c-.35 0-.41.1-.41.21a11.24 11.24 0 0 1-1.72.58s-.45.14-.62.17-.38 0-.65.07a.33.33 0 0 1-.41-.31c0-.21-.35-.14-.55-.14s-.17.14-.24.24 0 .21-.1.58 0 0-.14.21-.86.31-1.13.58a.73.73 0 0 0-.28.55c0 .17 0 .41-.07 1a1.77 1.77 0 0 1-.76 1 1.6 1.6 0 0 1-.55.31c-.38.14-.28.17-.41.24s-.14.24-.31.45a2.22 2.22 0 0 1-.38.41 5.41 5.41 0 0 0-.52.59c-.21.24-.07.72-.31 1.2a2.91 2.91 0 0 1-.86.9 3 3 0 0 1-.28 1c-.17.21.14.38.21.58a2.32 2.32 0 0 1 .17.65c0 .21-.1.41-.1.69s.31.34.28.83a7.45 7.45 0 0 1-.38 1.51c-.1.31-.07.38-.14.52a.7.7 0 0 0-.07.28 2.39 2.39 0 0 1 .14.58.58.58 0 0 1-.07.31 2.84 2.84 0 0 1-.27.76c-.21.38.52.34.76.59s.65.48 1 .82a1.21 1.21 0 0 1 .41.83 5.85 5.85 0 0 0 1 1.72c.24.21.52.38.76.62s.45.34.45.45a2.92 2.92 0 0 0 1.14.69 1.33 1.33 0 0 0 .65 0c.17 0 .34-.17.69-.41s.52 0 .83 0h.83c.31 0 .41.24.62.24s.24 0 .48-.21a3.63 3.63 0 0 0 .59-.52c.28-.31.38 0 .62-.14s.86-.1 1.24-.24.89-.07 1 .14a3.79 3.79 0 0 0 .52.62 2.13 2.13 0 0 0 .48.1c.17 0 .34.52.45.66s.38 0 .48-.07a4 4 0 0 1 .52-.21c.17-.07.62.59.62.59l.24.62a3.37 3.37 0 0 1-.17 1 2.89 2.89 0 0 1-.35.83c-.1.1-.07.17-.31.55s.41 1 .41 1a4.11 4.11 0 0 0 .48.76c.34.45.52.66.65.86a8.78 8.78 0 0 1 .41 1.31 2.85 2.85 0 0 1 .24.72v1a1.44 1.44 0 0 0 .27.83v.65a1.66 1.66 0 0 1-.13.79c-.07.21-.31.48-.48.83a3.64 3.64 0 0 0-.31 1c-.07.38-.38 1.31-.41 1.41s-.14.62-.14.62a4.18 4.18 0 0 0 .55 1.1c.45.69.14.65.14.93s.17.35.34.66.07.38.07.62a7.46 7.46 0 0 1-.14 1 7.31 7.31 0 0 0 0 1.17v1c0 .38.31.41.52.62a1 1 0 0 1 .28.69 7 7 0 0 0 .21.72 6.77 6.77 0 0 1-.34 1c-.21.55.17.48.17.48l.31.76a2.5 2.5 0 0 0 .72-.14c.17-.1.45-.17.65-.31s.41.07.69-.07.31-.07.52-.17.52 0 .62-.07.52-.14.83-.31a3.62 3.62 0 0 0 .93-.62c.31-.31.24-.38.52-.83s.24-.24.83-.86a2 2 0 0 0 .62-1c.24-.48.07-.21.34-.72s.07-.28.11-.72.62-.35.76-.45a5.54 5.54 0 0 0 .78-.36c.15-.12 0-.29.1-.52s.21-.26.27-.5a5.06 5.06 0 0 0-.19-1.19 1 1 0 0 0 0-.22 1.42 1.42 0 0 1 .05-.55c.07-.28.19-.15.22-.29s.69-.55.71-.69.21-.1.26-.19.1-.07.5-.52.22-.07.31-.12a6.53 6.53 0 0 0 .67-.22c.43-.19.71-1.29.71-1.29s.05-.82.07-1.18.22-1.05.21-1.17a2.61 2.61 0 0 1 0-.41c0-.21 0-.17-.1-.33s-.07-.14-.16-.33 0-.29 0-.52a9.43 9.43 0 0 0 0-1.31.68.68 0 0 0-.14-.31c-.05-.09-.14-.22-.24-.36s.05-.34.19-.69.12-.19.21-.38.14-.09.28-.26a8.36 8.36 0 0 0 .38-.83c.21-.39 0 0 .11-.14s.09-.1.33-.29a11.07 11.07 0 0 0 1-1.75v-.24c0-.24.26-.26.34-.43a1 1 0 0 1 .29-.34c.12-.1 1.21-.93 1.21-.93a2.27 2.27 0 0 0 0-.29v-.4c0-.22.07-.15.34-.48s.14-.24.28-.71.59-2.34.59-2.34a3.43 3.43 0 0 1 0-.34 2.79 2.79 0 0 1 .1-.48 2.47 2.47 0 0 0 .07-.5.79.79 0 0 0 0-.22.84.84 0 0 0 0-.26c0-.1-.22 0-.22 0a.44.44 0 0 1-.14.16c-.08.05-.05.17-.15.29s-.12.09-.31.09a1.94 1.94 0 0 1-.34 0c-.14 0-.1.1-.22.29s-.26 0-.36-.07a.33.33 0 0 0-.31.12 1.94 1.94 0 0 1-.41.21.28.28 0 0 1-.31-.09c-.09-.1-.38-.26-.48-.45a.76.76 0 0 1-.15-.45 4.17 4.17 0 0 0 0-.48 5 5 0 0 0-.67-1 3 3 0 0 1-.26-.38c-.1-.17-.12-.1-.31-.31s-.14-.22-.28-.46a4.47 4.47 0 0 1-.27-.5c0-.07-.14-.31-.21-.57s0-.29-.09-.58-.17-.21-.24-.31-.17-.1-.28-.29a.76.76 0 0 1-.07-.46c0-.17-.38-1.43-.38-1.43s-.26-.36-.41-.55a.93.93 0 0 1-.19-.29c-.05-.1 0-.17-.26-.84a3.75 3.75 0 0 0-.57-1 3 3 0 0 1-.29-.72 2 2 0 0 0-.19-.46c-.09-.17-.22-.34-.28-.45a.72.72 0 0 0-.22-.24c-.12-.1-.1-.21-.1-.34s.09-.14.14-.14.12.09.19.21a1.14 1.14 0 0 0 .33.28c.09.07.05.1.14.19s.12 0 .14-.07a1.56 1.56 0 0 0 0-.33c0-.14.12-.1.12-.1h.12c.12 0 0 0 0 .16a.33.33 0 0 0 .07.22 1.46 1.46 0 0 1 .1.27 1.13 1.13 0 0 0 .14.29 5.06 5.06 0 0 1 .45.58c.15.26.15.29.24.45a7.39 7.39 0 0 1 .43.79c0 .07.16.2.22.33a2.7 2.7 0 0 1 .15.26c0 .08.12.22.21.38a3.92 3.92 0 0 1 .36.62c.1.27.07.31.05.79s.19.24.28.33 1.07 1.91 1.08 2a4.14 4.14 0 0 0 .28.5 3.83 3.83 0 0 1 .22.48 4.46 4.46 0 0 1 .15.86c0 .39.12.27.14.55s0 .17-.05.45.33.28.45.47.24.14.34.17.24-.17.31-.28.21 0 .39-.12 0 0 0-.07.12-.17.15-.26.36 0 .5 0 .41-.35.62-.43.55-.6.55-.6a1.13 1.13 0 0 0 .15-.22 2.36 2.36 0 0 1 .16-.33 1.38 1.38 0 0 0 .17-.34c0-.14.62 0 .79-.09s0 0 .07-.31.1-.17.15-.22a2.77 2.77 0 0 0 .43-.48c.28-.36 0-.19 0-.29a1.9 1.9 0 0 1 .21-.78.82.82 0 0 0 .17-.5 4.38 4.38 0 0 1 0-.46c0-.16-.09-.19-.12-.38s-.14-.16-.17-.26-.17-.09-.21-.17-.38-.29-.46-.43a.49.49 0 0 0-.2-.21c-.12-.09 0-.09-.12-.21a.74.74 0 0 1-.09-.46.38.38 0 0 0-.19-.31l-.29.36a2.88 2.88 0 0 1-.07.53c-.05.15-.28 0-.43 0a1 1 0 0 1-.53-.24c-.19-.14-.1-.14-.19-.29s0-.09-.1-.31 0 0-.1-.29-.14 0-.19 0 0 .28-.09.34-.1-.19-.21-.55-.14-.26-.21-.4-.14-.4-.24-.67-.28-.38-.34-.55-.14-.19-.26-.47.05-.4.1-.6.14-.1.22-.15.29.22.29.22a6.62 6.62 0 0 1 .46.53c.1.16.19.24.19.36s.52.55.62.78.55.36.76.45a.44.44 0 0 0 .43-.05.27.27 0 0 1 .29.1 1.13 1.13 0 0 1 .21.5c0 .17.12.15.67.41a4.78 4.78 0 0 0 1.24.34 4.29 4.29 0 0 0 .84.09c.21 0 .17-.07.31-.09s.12.24.12.24l.1.34.5.6c.21.24.11.17.16.28s.24.19.24.26a.72.72 0 0 1 0 .21 1.43 1.43 0 0 0 0 .31v.33c0 .16.29.31.46.41s.1 0 .14-.1.05-.09.12-.19.19.1.29.24 0 .26 0 .57a3.61 3.61 0 0 0 .24 1.05s.05.53.05.67a1.76 1.76 0 0 0 .24.57 1 1 0 0 1 .14.53c0 .16.17.34.17.71v.9c0 .12.29 1.07.29 1.26a6.68 6.68 0 0 0 .17.88 1.72 1.72 0 0 1 0 .53.43.43 0 0 0 .07.19s.11.48.33.45.12-.1.12-.17v-.69a2 2 0 0 1 .21-.46c.17-.31 0 0 .07-.16s0-.12.05-.22a2.58 2.58 0 0 0 .12-.41 13.89 13.89 0 0 0-.28-1.7 7.36 7.36 0 0 1-.1-1c0-.29.07-.17.19-.31s0-.22 0-.38a2.64 2.64 0 0 1 .15-.57 2.31 2.31 0 0 1 .17-.41 7.11 7.11 0 0 0 .1-.7c0-.26.07-.38.12-.71s.07-.28.12-.38.1 0 .36-.12 0 0 0-.12a.79.79 0 0 1 .07-.29c.05-.17.14-.07.14-.07s.07.29.1.45a2.45 2.45 0 0 1 0 .45 3.77 3.77 0 0 0 .12.51c0 .16.21.4.26.6s.11.34.16.55a4.53 4.53 0 0 1 0 .84l.12.34c.07.21.21.14.21.14a.6.6 0 0 1 .21.16c.08.1 0 .15 0 .38a2.33 2.33 0 0 1 0 .4v.76c0 .48 0 .28-.05.45a3 3 0 0 0-.05.31.38.38 0 0 0 .09.28c0 .05.17 0 .24 0s.15-.1.17-.22.12 0 .22.1.09.09.12.21a3.38 3.38 0 0 1 .07.45c0 .26.09.16.21.31s.21.15.21.15.1.5.17.71.09.14.14.13a50.16 50.16 0 0 0-15.05-35.32zm-9.4 14c0 .07-.25.09-.25.09a.87.87 0 0 0-.21-.16h-.37l-.14-.23a.12.12 0 0 1 .12-.09c.09 0 .14-.09.28 0l.14.09.23.09.16.12s.08 0 .01.07zm5.3-.55v.3c0 .3-.07.14-.14.21a.34.34 0 0 1-.21.07 4.83 4.83 0 0 1-.71 0h-.32a.69.69 0 0 1-.44-.16c-.16-.11-.21-.11-.32-.32s-.12 0-.34-.09-.37 0-.48-.14-.39 0-.55 0a1.28 1.28 0 0 0-.37 0c-.25 0-.23.25-.37.41s-.21 0-.44 0a1.88 1.88 0 0 1-.67-.23c-.16-.09-.32-.14-.44-.2a1.7 1.7 0 0 1-.44-.37c-.21-.23-.12-.14-.25-.3s0-.34 0-.48.09-.21.25-.46a1.81 1.81 0 0 1 .21-.32c.12-.14.09-.23.14-.39a1.12 1.12 0 0 0 0-.39c0-.16.14-.23.46-.46s.25.11.25.11.35.23.41.3.28.07.39.07.11.14.11.21a1 1 0 0 1-.14.32c0 .07.18.25.25.34s.14 0 .46-.07.21 0 .28 0 .34 0 .44-.14 0 0-.14-.16c0 0-.09-.11-.14-.18s-.09-.09-.11-.16a.92.92 0 0 1 0-.28.8.8 0 0 1 .07-.25c0-.09.3 0 .48-.09s.21-.09.32-.12a1.54 1.54 0 0 1 .32 0 1.9 1.9 0 0 1 .28 0 1.38 1.38 0 0 1 0 .32c0 .16-.23.14-.3.16s0 .16 0 .16a.45.45 0 0 1-.12.34.5.5 0 0 0-.09.39l.21.16a2.06 2.06 0 0 1 .46.18c.32.16.2.19.2.19a4.59 4.59 0 0 1 .64.5c.07.12.39.25.78.69s.07.17.11.31zm5.32 3.49a2.2 2.2 0 0 1-.71.14 4 4 0 0 1-.73-.23c-.14-.09-.44 0-.55-.27s-.25-.46-.3-.57a3 3 0 0 1-.3-.53c-.09-.28 0-.16-.09-.28a1.82 1.82 0 0 0-.25-.21l-.23-.21c0-.07-.21 0 0-.07a.64.64 0 0 1 .44 0h.41c.02 0 .09-.34 0-.37a3.25 3.25 0 0 1-.39-.32 3.85 3.85 0 0 1-.3-.44c-.07-.14-.09 0-.14-.3s-.34-.5-.37-.57a5.92 5.92 0 0 0-.37-.5l-.3-.34a1.72 1.72 0 0 1-.23-.37c0-.07-.07-.27 0-.32a.43.43 0 0 0 .2-.27 1.81 1.81 0 0 0 0-.37.45.45 0 0 1 0-.18.6.6 0 0 1 .23-.25h.09a2.4 2.4 0 0 1 .39 0c.11 0 .32-.25.32-.25s.07-.18.25 0 .41.27.46.39a.73.73 0 0 0 .21.3 1.11 1.11 0 0 0 .21.11l.28.25a2.74 2.74 0 0 1 .44.46c.07.14.21.23.25.37a.77.77 0 0 1 0 .3l-.14.09c-.14.09 0-.07-.12 0s-.12.25-.18.25H423l-.37-.07s0-.37-.19-.16-.23.27-.18.39a4.74 4.74 0 0 0 .41.55 1 1 0 0 1 .16.21v.09a1.24 1.24 0 0 1 .14.46c0 .14-.09.3.14.3h.23s0-.25.18-.16.41.16.41.28.32.21.32.34a.25.25 0 0 1-.23.25c-.14 0-.25-.07-.3 0s-.18.41-.07.46a2.4 2.4 0 0 0 .34.09s.28-.09.32.12a.71.71 0 0 1 0 .37.84.84 0 0 0 .09.48 2.11 2.11 0 0 1 .14.41s.29.01.11.13z" transform="translate(-30.22 -75.33)"/>
      <path class="cls-48" d="M374.67 326.41c-.23-.17-1.42.28-3.09 1.3" transform="translate(-30.22 -75.33)"/>
      <path d="M337.85 254.87c-4.14 3.34-9 8.74-10.8 15.69" stroke-dasharray="6.45 4.3" stroke="#ca1e49" stroke-width="1.7" fill="none" stroke-miterlimit="10"/>
      <path class="cls-48" d="M356.83 348a21.94 21.94 0 0 0-.27 3.39s1.2-.31 3.31-.76" transform="translate(-30.22 -75.33)"/>
      <path d="M334.21 274.4c12.9-2.33 38.71-5.35 54.66 3.9" stroke-dasharray="6.97 4.65" stroke="#ca1e49" stroke-width="1.7" fill="none" stroke-miterlimit="10"/>
      <path class="cls-48" d="M421.06 354.88a28.24 28.24 0 0 1 2.68 2.08s-1.24.26-3.28.87" transform="translate(-30.22 -75.33)"/>
      <path d="M386.37 283.79c-8.55 3.14-22.56 10.17-29.21 24" stroke-dasharray="6.11 4.08" stroke="#ca1e49" stroke-width="1.7" fill="none" stroke-miterlimit="10"/>
      <path class="cls-48" d="M386.55 384.95q-.64 1.55-1.16 3.2" transform="translate(-30.22 -75.33)"/>
      <path class="cls-52" d="M423.74 366.22A9.27 9.27 0 1 1 433 357a9.28 9.28 0 0 1-9.26 9.22zm0-17.41a8.14 8.14 0 1 0 8.14 8.14 8.15 8.15 0 0 0-8.14-8.13z" transform="translate(-30.22 -75.33)"/>
      <circle class="cls-52" cx="393.52" cy="281.63" r="5.61"/>
      <path class="cls-52" d="M385.39 403a9.27 9.27 0 1 1 9.27-9.27 9.28 9.28 0 0 1-9.27 9.27zm0-17.41a8.14 8.14 0 1 0 8.14 8.14 8.15 8.15 0 0 0-8.14-8.11z" transform="translate(-30.22 -75.33)"/>
      <circle class="cls-52" cx="355.17" cy="318.43" r="5.61"/>
      <path class="cls-52" d="M357.06 362.61a9.27 9.27 0 1 1 9.27-9.27 9.28 9.28 0 0 1-9.27 9.27zm0-17.41a8.14 8.14 0 1 0 8.14 8.14 8.15 8.15 0 0 0-8.14-8.14z" transform="translate(-30.22 -75.33)"/>
      <circle class="cls-52" cx="326.84" cy="278.01" r="5.61"/>
      <path d="M417 325.29c-10.58 0-24.56 2.21-31.67 5s-9.82 3-1.42 8.55c16-2.5 25.73-4.47 31.65-5.89a54.12 54.12 0 0 0 8.48-2.48c6.91-2.87 3.77-5.18-7.04-5.18zm-17.87 7.31c-4.56 0-5.88-1-3-2.17s9-2.17 13.56-2.17 5.88 1 3 2.17-9.01 2.18-13.57 2.18z" transform="translate(-30.22 -75.33)" style="mix-blend-mode:multiply" opacity=".6" fill="#919395"/>
      <path d="M383.73 262.51A28.71 28.71 0 0 0 355 290.23s-3.71 16.68 28.61 47.8c14.49-13.95 21.72-25 25.31-32.93a28.74 28.74 0 0 0-25.18-42.59zm0 40.86a12.12 12.12 0 1 1 12.12-12.12 12.12 12.12 0 0 1-12.12 12.13z" transform="translate(-30.22 -75.33)" fill="#e0952f"/>
    </g>
  </g>
</svg>
