<svg id="Layer_1" data-name="Layer 1" xmlns="http://www.w3.org/2000/svg" viewBox="0 0 512 512"><defs><style>.cls-1{fill:#fff;}.cls-2{fill:#47525d;}.cls-3{fill:#efce4a;}.cls-4{fill:#3d474f;}.cls-5{fill:#0b71b7;}</style></defs><title>clockcard</title><circle class="cls-1" cx="256" cy="256" r="256"/><circle class="cls-1" cx="251.46" cy="256" r="189.64"/><path class="cls-2" d="M250.46,95.46c90.14,0,163.48,73.34,163.48,163.48S340.61,422.42,250.46,422.42,87,349.08,87,258.94,160.32,95.46,250.46,95.46m0-26.16c-104.73,0-189.64,84.91-189.64,189.64s84.91,189.64,189.64,189.64S440.1,363.67,440.1,258.94,355.2,69.3,250.46,69.3Z" transform="translate(0.99 -2.94)"/><path class="cls-3" d="M250.46,107.74a6.54,6.54,0,0,0-6.54,6.54v6.54a6.54,6.54,0,0,0,13.08,0v-6.54A6.54,6.54,0,0,0,250.46,107.74Z" transform="translate(0.99 -2.94)"/><path class="cls-3" d="M250.46,388.93a6.54,6.54,0,0,0-6.54,6.54V402A6.54,6.54,0,0,0,257,402v-6.54A6.54,6.54,0,0,0,250.46,388.93Z" transform="translate(0.99 -2.94)"/><path class="cls-3" d="M394.33,251.6h-6.54a6.54,6.54,0,0,0,0,13.08h6.54a6.54,6.54,0,0,0,0-13.08Z" transform="translate(0.99 -2.94)"/><path class="cls-3" d="M113.14,251.6H106.6a6.54,6.54,0,0,0,0,13.08h6.54a6.54,6.54,0,0,0,0-13.08Z" transform="translate(0.99 -2.94)"/><path class="cls-3" d="M347.57,151.79l-4.62,4.62a6.54,6.54,0,1,0,9.25,9.25l4.62-4.62a6.54,6.54,0,1,0-9.25-9.25Z" transform="translate(0.99 -2.94)"/><path class="cls-3" d="M148.74,350.63l-4.62,4.62a6.54,6.54,0,1,0,9.25,9.25l4.62-4.62a6.54,6.54,0,0,0-9.25-9.25Z" transform="translate(0.99 -2.94)"/><path class="cls-3" d="M352.19,350.63a6.54,6.54,0,0,0-9.25,9.25l4.62,4.62a6.54,6.54,0,1,0,9.25-9.25Z" transform="translate(0.99 -2.94)"/><path class="cls-3" d="M153.36,151.79a6.54,6.54,0,0,0-9.25,9.25l4.62,4.62a6.54,6.54,0,1,0,9.25-9.25Z" transform="translate(0.99 -2.94)"/><path class="cls-4" d="M230.85,264.69H178.53a6.54,6.54,0,0,1,0-13.08h52.31a6.54,6.54,0,0,1,0,13.08Z" transform="translate(0.99 -2.94)"/><path class="cls-4" d="M250.46,245.07a6.54,6.54,0,0,1-6.54-6.54V166.6a6.54,6.54,0,1,1,13.08,0v71.93A6.54,6.54,0,0,1,250.46,245.07Z" transform="translate(0.99 -2.94)"/><path class="cls-4" d="M250.46,284.31a26.16,26.16,0,1,1,26.16-26.16A26.18,26.18,0,0,1,250.46,284.31Zm0-39.24a13.08,13.08,0,1,0,13.08,13.08A13.09,13.09,0,0,0,250.46,245.07Z" transform="translate(0.99 -2.94)"/><circle class="cls-5" cx="371.71" cy="367.17" r="78.47"/><path class="cls-1" d="M413.69,332a6.53,6.53,0,0,0-9.1,1.63L368,386.25l-25.82-21.2a6.54,6.54,0,1,0-8.29,10.11l31.3,25.69a6.56,6.56,0,0,0,4.15,1.48,7,7,0,0,0,.9-.06,6.57,6.57,0,0,0,4.47-2.74l40.64-58.39A6.55,6.55,0,0,0,413.69,332Z" transform="translate(0.99 -2.94)"/></svg>