<svg id="Layer_1" data-name="Layer 1" xmlns="http://www.w3.org/2000/svg" viewBox="0 0 512 512"><defs><style>.cls-1{fill:#fff;}.cls-2{fill:#efce4a;}.cls-3{fill:#e5be45;}.cls-4{fill:#cfd8dc;}.cls-5{fill:#0b71b7;}.cls-6{fill:#0d7dc9;}.cls-7{fill:#47525d;}.cls-8{fill:#3d474f;}</style></defs><title>heartcard</title><circle class="cls-1" cx="256" cy="256" r="256"/><path class="cls-2" d="M373.13,319.6c47.1-47.1,108.7-74.28,108.7-132.25,0-31.7-25.36-58-57.07-58A57.63,57.63,0,0,0,373.13,162a57.63,57.63,0,0,0-51.63-32.61c-31.7,0-57.07,26.27-57.07,58C264.43,246.22,328.75,273.4,373.13,319.6Z" transform="translate(-1.43 -1.14)"/><path class="cls-3" d="M394,327.75c-11.78,11.78-29,11.78-40.76,0,4.53-5.44,12.68-10,12.68-17.21h14.49C380.38,317.78,389.44,321.41,394,327.75Z" transform="translate(-1.43 -1.14)"/><path class="cls-4" d="M382.19,316H365a2.72,2.72,0,1,1,0-5.44h17.21a2.4,2.4,0,0,1,2.72,2.72A2.89,2.89,0,0,1,382.19,316Z" transform="translate(-1.43 -1.14)"/><path class="cls-4" d="M356.83,335c-.91,0-2.72-.91-2.72-1.81a4.71,4.71,0,0,1,1.81-3.62c2.72-.91,4.53-1.81,4.53-6.34.91-6.34,7.25-10.87,8.15-11.78a2.64,2.64,0,0,1,2.72,4.53c-1.81.91-5.44,4.53-5.44,8.15,0,6.34-2.72,9.06-9.06,10.87Z" transform="translate(-1.43 -1.14)"/><path class="cls-4" d="M387.63,373c-15.4-26.27-9.06-59.79-9.06-59.79v-.91h-5.44c-.91,2.72-6.34,35.33,10,63.41,14.49,26.27-7.25,73.37-7.25,74.28-.91,1.81,0,2.72.91,3.62h.91c.91,0,1.81-.91,2.72-1.81C381.29,450,403.93,402,387.63,373Z" transform="translate(-1.43 -1.14)"/><path class="cls-5" d="M161.17,258.91C211,209.08,275.3,181,275.3,120.31c0-33.52-27.18-60.69-59.79-60.69C192,59.62,171.13,73.21,162.07,94c-10.87-20.83-31.7-34.42-55.26-34.42C74.21,59.62,47,86.8,47,120.31,47,181.91,115,210,161.17,258.91Z" transform="translate(-1.43 -1.14)"/><path class="cls-6" d="M182,267.06c-12.68,11.78-29.89,11.78-42.57,0,4.53-6.34,13.59-10,13.59-18.12h15.4C168.41,256.19,177.47,260.72,182,267.06Z" transform="translate(-1.43 -1.14)"/><path class="cls-1" d="M245.41,94.95c7.25,8.15,9.06,17.21,5.44,19.93-3.62,3.62-12.68,0-19-8.15-7.25-8.15-9.06-17.21-5.44-19.93C230,83.17,238.16,86.8,245.41,94.95Z" transform="translate(-1.43 -1.14)"/><path class="cls-4" d="M170.23,254.38H152.11a2.72,2.72,0,1,1,0-5.44h18.12a2.4,2.4,0,0,1,2.72,2.72C173.85,252.56,172,254.38,170.23,254.38Z" transform="translate(-1.43 -1.14)"/><path class="cls-4" d="M144,274.3c-.91,0-2.72-.91-2.72-1.81a4.71,4.71,0,0,1,1.81-3.62c2.72-.91,4.53-1.81,5.44-6.34.91-6.34,7.25-11.78,8.15-12.68a2.64,2.64,0,1,1,2.72,4.53,15.18,15.18,0,0,0-6.34,8.15c0,7.25-2.72,10-9.06,11.78Z" transform="translate(-1.43 -1.14)"/><path class="cls-4" d="M175.66,314.16c-15.4-28.08-10-62.5-9.06-62.5v-.91h-5.44c-.91,2.72-6.34,37.14,10,66.13,15.4,27.18-7.25,77-8.15,77.9-.91,1.81,0,3.62,1.81,3.62h.91c.91,0,1.81-.91,2.72-1.81S192.87,344.05,175.66,314.16Z" transform="translate(-1.43 -1.14)"/><path class="cls-7" d="M264.43,395.69C309.72,351.3,367.7,325,367.7,270.68a54.51,54.51,0,0,0-54.35-54.35c-21.74,0-39.86,12.68-48.92,30.8-9.06-18.12-27.18-30.8-48.92-30.8a54.51,54.51,0,0,0-54.35,54.35C161.17,325.94,222.76,351.3,264.43,395.69Z" transform="translate(-1.43 -1.14)"/><path class="cls-8" d="M283.45,402c-10.87,10.87-27.18,10.87-38,0,4.53-5.44,12.68-9.06,12.68-16.31h13.59C271.68,393,279.83,396.59,283.45,402Z" transform="translate(-1.43 -1.14)"/><path class="cls-1" d="M340.52,247.13c6.34,7.25,8.15,15.4,5.44,18.12s-10.87,0-17.21-7.25-8.15-15.4-5.44-18.12S334.18,239.88,340.52,247.13Z" transform="translate(-1.43 -1.14)"/><path class="cls-4" d="M273.49,391.16H257.19a2.72,2.72,0,0,1,0-5.44h16.31a2.4,2.4,0,0,1,2.72,2.72Q274.85,391.16,273.49,391.16Z" transform="translate(-1.43 -1.14)"/><path class="cls-4" d="M249,409.27c-.91,0-2.72-.91-2.72-1.81a4.71,4.71,0,0,1,1.81-3.62c2.72-.91,4.53-1.81,4.53-5.44.91-6.34,7.25-10.87,7.25-10.87a2.64,2.64,0,1,1,2.72,4.53c-1.81.91-5.44,4.53-5.44,7.25,0,5.44-2.72,9.06-8.15,10Z" transform="translate(-1.43 -1.14)"/><path class="cls-4" d="M275.3,492.61c0,2.72,5.44,2.72,5.44,0,3.62-15.4,5.44-33.52-2.72-47.1-14.49-25.36-8.15-56.16-8.15-56.16v-.91h-5.44c-.91,2.72-5.44,33.52,9.06,59.79C280.74,460.91,278.93,478.12,275.3,492.61Z" transform="translate(-1.43 -1.14)"/><path class="cls-1" d="M453.75,163.79c6.34,7.25,9.06,16.31,5.44,19s-11.78,0-18.12-8.15c-6.34-7.25-9.06-16.31-5.44-19C438.35,152.92,446.51,156.55,453.75,163.79Z" transform="translate(-1.43 -1.14)"/></svg>